<svg xmlns="http://www.w3.org/2000/svg" xmlns:xlink="http://www.w3.org/1999/xlink"><defs><path d="M609.646 1585.354l.708-.708 30.146 30.147 30.146-30.147.708.708-30.147 30.146 30.147 30.147-.708.706-30.146-30.146-30.146 30.146-.708-.706 30.147-30.147z" id="a"/><style>.download_ico .cls-1,.download_ico .cls-2{fill:none;stroke-miterlimit:10}.download_ico .cls-1{stroke-width:.5px}.download_ico .cls-2{stroke-width:.75px}</style><style>.cls-1{fill-rule:evenodd}</style><style>.cls-1{fill-rule:evenodd}</style><style>.cls-1{fill-rule:evenodd}</style></defs><symbol id="icon-404" viewBox="0 0 305.5 103"><path d="M272.1 98.6c-1.2 0-2.2 1-2.2 2.2s1 2.2 2.2 2.2 2.2-1 2.2-2.2c0-1.2-1-2.2-2.2-2.2zm0-5.2c-1.2 0-2.2 1-2.2 2.2s1 2.2 2.2 2.2 2.2-1 2.2-2.2-1-2.2-2.2-2.2zm0-5.2c-1.2 0-2.2 1-2.2 2.2s1 2.2 2.2 2.2 2.2-1 2.2-2.2c0-1.2-1-2.2-2.2-2.2zm0-5.2c-1.2 0-2.2 1-2.2 2.2s1 2.2 2.2 2.2 2.2-1 2.2-2.2-1-2.2-2.2-2.2zm0-5.2c-1.2 0-2.2 1-2.2 2.2s1 2.2 2.2 2.2 2.2-1 2.2-2.2-1-2.2-2.2-2.2zm0-20.7c-1.2 0-2.2 1-2.2 2.2s1 2.2 2.2 2.2 2.2-1 2.2-2.2c0-1.3-1-2.2-2.2-2.2zm0-5.2c-1.2 0-2.2 1-2.2 2.2s1 2.2 2.2 2.2 2.2-1 2.2-2.2c0-1.2-1-2.2-2.2-2.2zm0-5.2c-1.2 0-2.2 1-2.2 2.2s1 2.2 2.2 2.2 2.2-1 2.2-2.2-1-2.2-2.2-2.2zm0-5.2c-1.2 0-2.2 1-2.2 2.2 0 1.2 1 2.2 2.2 2.2s2.2-1 2.2-2.2c0-1.2-1-2.2-2.2-2.2zm0-5.2c-1.2 0-2.2 1-2.2 2.2s1 2.2 2.2 2.2 2.2-1 2.2-2.2-1-2.2-2.2-2.2zm0-5.2c-1.2 0-2.2 1-2.2 2.2s1 2.2 2.2 2.2 2.2-1 2.2-2.2-1-2.2-2.2-2.2zm0-5.2c-1.2 0-2.2 1-2.2 2.2s1 2.2 2.2 2.2 2.2-1 2.2-2.2-1-2.2-2.2-2.2zm5.2 72.7c-1.2 0-2.2 1-2.2 2.2s1 2.2 2.2 2.2 2.2-1 2.2-2.2-1-2.2-2.2-2.2zm0-5.2c-1.2 0-2.2 1-2.2 2.2s1 2.2 2.2 2.2 2.2-1 2.2-2.2-1-2.2-2.2-2.2zm0-5.2c-1.2 0-2.2 1-2.2 2.2s1 2.2 2.2 2.2 2.2-1 2.2-2.2-1-2.2-2.2-2.2zm0-5.2c-1.2 0-2.2 1-2.2 2.2s1 2.2 2.2 2.2 2.2-1 2.2-2.2-1-2.2-2.2-2.2zm0-5.2c-1.2 0-2.2 1-2.2 2.2s1 2.2 2.2 2.2 2.2-1 2.2-2.2-1-2.2-2.2-2.2zm15.6-5.2c-1.2 0-2.2 1-2.2 2.2s1 2.2 2.2 2.2 2.2-1 2.2-2.2c-.1-1.2-1-2.2-2.2-2.2zm0-5.1c-1.2 0-2.2 1-2.2 2.2s1 2.2 2.2 2.2 2.2-1 2.2-2.2c-.1-1.3-1-2.2-2.2-2.2zm0-5.2c-1.2 0-2.2 1-2.2 2.2 0 1.2 1 2.2 2.2 2.2s2.2-1 2.2-2.2c-.1-1.3-1-2.2-2.2-2.2zm5.2 10.3c-1.2 0-2.2 1-2.2 2.2s1 2.2 2.2 2.2 2.2-1 2.2-2.2c-.1-1.2-1-2.2-2.2-2.2zm0-5.1c-1.2 0-2.2 1-2.2 2.2s1 2.2 2.2 2.2 2.2-1 2.2-2.2c-.1-1.3-1-2.2-2.2-2.2zm0-5.2c-1.2 0-2.2 1-2.2 2.2 0 1.2 1 2.2 2.2 2.2s2.2-1 2.2-2.2c-.1-1.3-1-2.2-2.2-2.2zm5.2 10.3c-1.2 0-2.2 1-2.2 2.2s1 2.2 2.2 2.2 2.2-1 2.2-2.2c-.1-1.2-1-2.2-2.2-2.2zm0-5.1c-1.2 0-2.2 1-2.2 2.2s1 2.2 2.2 2.2 2.2-1 2.2-2.2c-.1-1.3-1-2.2-2.2-2.2zm0-.9c1.2 0 2.2-1 2.2-2.2 0-1.2-1-2.2-2.2-2.2s-2.2 1-2.2 2.2c0 1.2 1 2.2 2.2 2.2zm-26 6c-1.2 0-2.2 1-2.2 2.2s1 2.2 2.2 2.2 2.2-1 2.2-2.2-1-2.2-2.2-2.2zm0-5.1c-1.2 0-2.2 1-2.2 2.2s1 2.2 2.2 2.2 2.2-1 2.2-2.2c0-1.3-1-2.2-2.2-2.2zm0-5.2c-1.2 0-2.2 1-2.2 2.2 0 1.2 1 2.2 2.2 2.2s2.2-1 2.2-2.2c0-1.3-1-2.2-2.2-2.2zm0-5.2c-1.2 0-2.2 1-2.2 2.2s1 2.2 2.2 2.2 2.2-1 2.2-2.2c0-1.3-1-2.2-2.2-2.2zm0-5.2c-1.2 0-2.2 1-2.2 2.2s1 2.2 2.2 2.2 2.2-1 2.2-2.2-1-2.2-2.2-2.2zm0-5.2c-1.2 0-2.2 1-2.2 2.2s1 2.2 2.2 2.2 2.2-1 2.2-2.2-1-2.2-2.2-2.2zm0-5.2c-1.2 0-2.2 1-2.2 2.2 0 1.2 1 2.2 2.2 2.2s2.2-1 2.2-2.2c0-1.2-1-2.2-2.2-2.2zm0-5.2c-1.2 0-2.2 1-2.2 2.2s1 2.2 2.2 2.2 2.2-1 2.2-2.2-1-2.2-2.2-2.2zm0-5.2c-1.2 0-2.2 1-2.2 2.2s1 2.2 2.2 2.2 2.2-1 2.2-2.2-1-2.2-2.2-2.2zm0-5.2c-1.2 0-2.2 1-2.2 2.2s1 2.2 2.2 2.2 2.2-1 2.2-2.2-1-2.2-2.2-2.2zm5.2 72.7c-1.2 0-2.2 1-2.2 2.2s1 2.2 2.2 2.2 2.2-1 2.2-2.2-1-2.2-2.2-2.2zm0-5.2c-1.2 0-2.2 1-2.2 2.2s1 2.2 2.2 2.2 2.2-1 2.2-2.2-1-2.2-2.2-2.2zm0-5.2c-1.2 0-2.2 1-2.2 2.2s1 2.2 2.2 2.2 2.2-1 2.2-2.2-1-2.2-2.2-2.2zm0-5.2c-1.2 0-2.2 1-2.2 2.2s1 2.2 2.2 2.2 2.2-1 2.2-2.2-1-2.2-2.2-2.2zm0-5.2c-1.2 0-2.2 1-2.2 2.2s1 2.2 2.2 2.2 2.2-1 2.2-2.2-1-2.2-2.2-2.2zm0-5.2c-1.2 0-2.2 1-2.2 2.2s1 2.2 2.2 2.2 2.2-1 2.2-2.2-1-2.2-2.2-2.2zm0-5.1c-1.2 0-2.2 1-2.2 2.2s1 2.2 2.2 2.2 2.2-1 2.2-2.2c0-1.3-1-2.2-2.2-2.2zm0-5.2c-1.2 0-2.2 1-2.2 2.2 0 1.2 1 2.2 2.2 2.2s2.2-1 2.2-2.2c0-1.3-1-2.2-2.2-2.2zm0-5.2c-1.2 0-2.2 1-2.2 2.2s1 2.2 2.2 2.2 2.2-1 2.2-2.2c0-1.3-1-2.2-2.2-2.2zm0-5.2c-1.2 0-2.2 1-2.2 2.2s1 2.2 2.2 2.2 2.2-1 2.2-2.2-1-2.2-2.2-2.2zm0-5.2c-1.2 0-2.2 1-2.2 2.2s1 2.2 2.2 2.2 2.2-1 2.2-2.2-1-2.2-2.2-2.2zm0-5.2c-1.2 0-2.2 1-2.2 2.2 0 1.2 1 2.2 2.2 2.2s2.2-1 2.2-2.2c0-1.2-1-2.2-2.2-2.2zm0-5.2c-1.2 0-2.2 1-2.2 2.2s1 2.2 2.2 2.2 2.2-1 2.2-2.2-1-2.2-2.2-2.2zm0-5.2c-1.2 0-2.2 1-2.2 2.2s1 2.2 2.2 2.2 2.2-1 2.2-2.2-1-2.2-2.2-2.2zm0-5.2c-1.2 0-2.2 1-2.2 2.2s1 2.2 2.2 2.2 2.2-1 2.2-2.2-1-2.2-2.2-2.2zm5.2 72.7c-1.2 0-2.2 1-2.2 2.2s1 2.2 2.2 2.2 2.2-1 2.2-2.2c0-1.2-1-2.2-2.2-2.2zm0-5.2c-1.2 0-2.2 1-2.2 2.2s1 2.2 2.2 2.2 2.2-1 2.2-2.2-1-2.2-2.2-2.2zm0-5.2c-1.2 0-2.2 1-2.2 2.2s1 2.2 2.2 2.2 2.2-1 2.2-2.2c0-1.2-1-2.2-2.2-2.2zm0-5.2c-1.2 0-2.2 1-2.2 2.2s1 2.2 2.2 2.2 2.2-1 2.2-2.2-1-2.2-2.2-2.2zm0-5.2c-1.2 0-2.2 1-2.2 2.2s1 2.2 2.2 2.2 2.2-1 2.2-2.2-1-2.2-2.2-2.2zm0-5.2c-1.2 0-2.2 1-2.2 2.2s1 2.2 2.2 2.2 2.2-1 2.2-2.2c0-1.2-1-2.2-2.2-2.2zm0-5.1c-1.2 0-2.2 1-2.2 2.2s1 2.2 2.2 2.2 2.2-1 2.2-2.2c0-1.3-1-2.2-2.2-2.2zm0-5.2c-1.2 0-2.2 1-2.2 2.2 0 1.2 1 2.2 2.2 2.2s2.2-1 2.2-2.2c0-1.3-1-2.2-2.2-2.2zm0-5.2c-1.2 0-2.2 1-2.2 2.2s1 2.2 2.2 2.2 2.2-1 2.2-2.2c0-1.3-1-2.2-2.2-2.2zm0-5.2c-1.2 0-2.2 1-2.2 2.2s1 2.2 2.2 2.2 2.2-1 2.2-2.2c0-1.2-1-2.2-2.2-2.2zm0-5.2c-1.2 0-2.2 1-2.2 2.2s1 2.2 2.2 2.2 2.2-1 2.2-2.2-1-2.2-2.2-2.2zm0-5.2c-1.2 0-2.2 1-2.2 2.2 0 1.2 1 2.2 2.2 2.2s2.2-1 2.2-2.2c0-1.2-1-2.2-2.2-2.2zm0-5.2c-1.2 0-2.2 1-2.2 2.2s1 2.2 2.2 2.2 2.2-1 2.2-2.2-1-2.2-2.2-2.2zm0-5.2c-1.2 0-2.2 1-2.2 2.2s1 2.2 2.2 2.2 2.2-1 2.2-2.2-1-2.2-2.2-2.2zm0-5.2c-1.2 0-2.2 1-2.2 2.2s1 2.2 2.2 2.2 2.2-1 2.2-2.2-1-2.2-2.2-2.2zm0-5.2c-1.2 0-2.2 1-2.2 2.2s1 2.2 2.2 2.2 2.2-1 2.2-2.2c0-1.2-1-2.2-2.2-2.2zm-5.2 0c-1.2 0-2.2 1-2.2 2.2s1 2.2 2.2 2.2 2.2-1 2.2-2.2-1-2.2-2.2-2.2zm-5.2 0c-1.2 0-2.2 1-2.2 2.2s1 2.2 2.2 2.2 2.2-1 2.2-2.2-1-2.2-2.2-2.2zm-5.2 0c-1.2 0-2.2 1-2.2 2.2s1 2.2 2.2 2.2 2.2-1 2.2-2.2c0-1.2-1-2.2-2.2-2.2zm0 51.9c-1.2 0-2.2 1-2.2 2.2s1 2.2 2.2 2.2 2.2-1 2.2-2.2c0-1.2-1-2.2-2.2-2.2zm-5.2 0c-1.2 0-2.2 1-2.2 2.2s1 2.2 2.2 2.2 2.2-1 2.2-2.2-1-2.2-2.2-2.2zm5.2-5.1c-1.2 0-2.2 1-2.2 2.2s1 2.2 2.2 2.2 2.2-1 2.2-2.2c0-1.3-1-2.2-2.2-2.2zm-5.2 0c-1.2 0-2.2 1-2.2 2.2s1 2.2 2.2 2.2 2.2-1 2.2-2.2c0-1.3-1-2.2-2.2-2.2zm5.2-5.2c-1.2 0-2.2 1-2.2 2.2 0 1.2 1 2.2 2.2 2.2s2.2-1 2.2-2.2c0-1.3-1-2.2-2.2-2.2zm-5.2 0c-1.2 0-2.2 1-2.2 2.2 0 1.2 1 2.2 2.2 2.2s2.2-1 2.2-2.2c0-1.3-1-2.2-2.2-2.2zm-5.2 10.3c-1.2 0-2.2 1-2.2 2.2s1 2.2 2.2 2.2 2.2-1 2.2-2.2c0-1.2-1-2.2-2.2-2.2zm-5.1 0c-1.2 0-2.2 1-2.2 2.2s1 2.2 2.2 2.2 2.2-1 2.2-2.2c-.1-1.2-1.1-2.2-2.2-2.2zm-10.4 0c-1.2 0-2.2 1-2.2 2.2s1 2.2 2.2 2.2 2.2-1 2.2-2.2c-.1-1.2-1-2.2-2.2-2.2zm5.2 0c-1.2 0-2.2 1-2.2 2.2s1 2.2 2.2 2.2 2.2-1 2.2-2.2c-.1-1.2-1-2.2-2.2-2.2zm-10.4 0c-1.2 0-2.2 1-2.2 2.2s1 2.2 2.2 2.2 2.2-1 2.2-2.2c-.1-1.2-1-2.2-2.2-2.2zm20.7-5.1c-1.2 0-2.2 1-2.2 2.2s1 2.2 2.2 2.2 2.2-1 2.2-2.2c0-1.3-1-2.2-2.2-2.2zm-5.1 0c-1.2 0-2.2 1-2.2 2.2s1 2.2 2.2 2.2 2.2-1 2.2-2.2c-.1-1.3-1.1-2.2-2.2-2.2zm-10.4 0c-1.2 0-2.2 1-2.2 2.2s1 2.2 2.2 2.2 2.2-1 2.2-2.2c-.1-1.3-1-2.2-2.2-2.2zm5.2 0c-1.2 0-2.2 1-2.2 2.2s1 2.2 2.2 2.2 2.2-1 2.2-2.2c-.1-1.3-1-2.2-2.2-2.2zm-10.4 0c-1.2 0-2.2 1-2.2 2.2s1 2.2 2.2 2.2 2.2-1 2.2-2.2c-.1-1.3-1-2.2-2.2-2.2zm20.7-5.2c-1.2 0-2.2 1-2.2 2.2 0 1.2 1 2.2 2.2 2.2s2.2-1 2.2-2.2c0-1.3-1-2.2-2.2-2.2zm-5.1 0c-1.2 0-2.2 1-2.2 2.2 0 1.2 1 2.2 2.2 2.2s2.2-1 2.2-2.2c-.1-1.3-1.1-2.2-2.2-2.2zm-10.4 0c-1.2 0-2.2 1-2.2 2.2 0 1.2 1 2.2 2.2 2.2s2.2-1 2.2-2.2c-.1-1.3-1-2.2-2.2-2.2zm5.2 0c-1.2 0-2.2 1-2.2 2.2 0 1.2 1 2.2 2.2 2.2s2.2-1 2.2-2.2c-.1-1.3-1-2.2-2.2-2.2zm-10.4 0c-1.2 0-2.2 1-2.2 2.2 0 1.2 1 2.2 2.2 2.2s2.2-1 2.2-2.2c-.1-1.3-1-2.2-2.2-2.2zm-5.2 10.3c-1.2 0-2.2 1-2.2 2.2s1 2.2 2.2 2.2 2.2-1 2.2-2.2-1-2.2-2.2-2.2zm-5.2 0c-1.2 0-2.2 1-2.2 2.2s1 2.2 2.2 2.2 2.2-1 2.2-2.2c0-1.2-1-2.2-2.2-2.2zm-10.4 0c-1.2 0-2.2 1-2.2 2.2s1 2.2 2.2 2.2 2.2-1 2.2-2.2-1-2.2-2.2-2.2zm5.2 0c-1.2 0-2.2 1-2.2 2.2s1 2.2 2.2 2.2c1.2 0 2.2-1 2.2-2.2s-1-2.2-2.2-2.2zm-10.4 0c-1.2 0-2.2 1-2.2 2.2s1 2.2 2.2 2.2 2.2-1 2.2-2.2-1-2.2-2.2-2.2zm20.8-5.1c-1.2 0-2.2 1-2.2 2.2s1 2.2 2.2 2.2 2.2-1 2.2-2.2c0-1.3-1-2.2-2.2-2.2zm-5.2 0c-1.2 0-2.2 1-2.2 2.2s1 2.2 2.2 2.2 2.2-1 2.2-2.2c0-1.3-1-2.2-2.2-2.2zm-10.4 0c-1.2 0-2.2 1-2.2 2.2s1 2.2 2.2 2.2 2.2-1 2.2-2.2c0-1.3-1-2.2-2.2-2.2zm5.2 0c-1.2 0-2.2 1-2.2 2.2s1 2.2 2.2 2.2c1.2 0 2.2-1 2.2-2.2 0-1.3-1-2.2-2.2-2.2zm-10.4 0c-1.2 0-2.2 1-2.2 2.2s1 2.2 2.2 2.2 2.2-1 2.2-2.2c0-1.3-1-2.2-2.2-2.2zm20.8-5.2c-1.2 0-2.2 1-2.2 2.2 0 1.2 1 2.2 2.2 2.2s2.2-1 2.2-2.2c0-1.3-1-2.2-2.2-2.2zm-5.2 0c-1.2 0-2.2 1-2.2 2.2 0 1.2 1 2.2 2.2 2.2s2.2-1 2.2-2.2c0-1.3-1-2.2-2.2-2.2zm-10.4 0c-1.2 0-2.2 1-2.2 2.2 0 1.2 1 2.2 2.2 2.2s2.2-1 2.2-2.2c0-1.3-1-2.2-2.2-2.2zm5.2 0c-1.2 0-2.2 1-2.2 2.2 0 1.2 1 2.2 2.2 2.2 1.2 0 2.2-1 2.2-2.2 0-1.3-1-2.2-2.2-2.2zm-10.4 0c-1.2 0-2.2 1-2.2 2.2 0 1.2 1 2.2 2.2 2.2s2.2-1 2.2-2.2c0-1.3-1-2.2-2.2-2.2zm20.8-5.2c-1.2 0-2.2 1-2.2 2.2s1 2.2 2.2 2.2 2.2-1 2.2-2.2c0-1.3-1-2.2-2.2-2.2zm-5.2 0c-1.2 0-2.2 1-2.2 2.2s1 2.2 2.2 2.2 2.2-1 2.2-2.2c0-1.3-1-2.2-2.2-2.2zm-10.4 0c-1.2 0-2.2 1-2.2 2.2s1 2.2 2.2 2.2 2.2-1 2.2-2.2c0-1.3-1-2.2-2.2-2.2zm5.2 0c-1.2 0-2.2 1-2.2 2.2s1 2.2 2.2 2.2c1.2 0 2.2-1 2.2-2.2 0-1.3-1-2.2-2.2-2.2zm-10.4 0c-1.2 0-2.2 1-2.2 2.2s1 2.2 2.2 2.2 2.2-1 2.2-2.2c0-1.3-1-2.2-2.2-2.2zm26-5.2c-1.2 0-2.2 1-2.2 2.2s1 2.2 2.2 2.2 2.2-1 2.2-2.2c-.1-1.2-1-2.2-2.2-2.2zm-5.2 0c-1.2 0-2.2 1-2.2 2.2s1 2.2 2.2 2.2 2.2-1 2.2-2.2-1-2.2-2.2-2.2zm-10.4 0c-1.2 0-2.2 1-2.2 2.2s1 2.2 2.2 2.2c1.2 0 2.2-1 2.2-2.2s-1-2.2-2.2-2.2zm5.2 0c-1.2 0-2.2 1-2.2 2.2s1 2.2 2.2 2.2 2.2-1 2.2-2.2c0-1.2-1-2.2-2.2-2.2zm15.6-5.2c-1.2 0-2.2 1-2.2 2.2s1 2.2 2.2 2.2 2.2-1 2.2-2.2-1-2.2-2.2-2.2zm-5.2 0c-1.2 0-2.2 1-2.2 2.2s1 2.2 2.2 2.2 2.2-1 2.2-2.2-1-2.2-2.2-2.2zm-10.4 0c-1.2 0-2.2 1-2.2 2.2s1 2.2 2.2 2.2 2.2-1 2.2-2.2-1-2.2-2.2-2.2zm5.2 0c-1.2 0-2.2 1-2.2 2.2s1 2.2 2.2 2.2 2.2-1 2.2-2.2-1-2.2-2.2-2.2zm15.6-5.2c-1.2 0-2.2 1-2.2 2.2 0 1.2 1 2.2 2.2 2.2s2.2-1 2.2-2.2c-.1-1.2-1-2.2-2.2-2.2zm-5.2 0c-1.2 0-2.2 1-2.2 2.2 0 1.2 1 2.2 2.2 2.2s2.2-1 2.2-2.2c-.1-1.2-1-2.2-2.2-2.2zm-10.4 0c-1.2 0-2.2 1-2.2 2.2 0 1.2 1 2.2 2.2 2.2s2.2-1 2.2-2.2c0-1.2-1-2.2-2.2-2.2zm5.2 0c-1.2 0-2.2 1-2.2 2.2 0 1.2 1 2.2 2.2 2.2s2.2-1 2.2-2.2c-.1-1.2-1-2.2-2.2-2.2zm15.6-5.2c-1.2 0-2.2 1-2.2 2.2s1 2.2 2.2 2.2 2.2-1 2.2-2.2-1.1-2.2-2.2-2.2zm-5.2 0c-1.2 0-2.2 1-2.2 2.2s1 2.2 2.2 2.2 2.2-1 2.2-2.2-1-2.2-2.2-2.2zm-10.4 0c-1.2 0-2.2 1-2.2 2.2s1 2.2 2.2 2.2 2.2-1 2.2-2.2-1-2.2-2.2-2.2zm5.2 0c-1.2 0-2.2 1-2.2 2.2s1 2.2 2.2 2.2 2.2-1 2.2-2.2-1-2.2-2.2-2.2zm15.5-5.2c-1.2 0-2.2 1-2.2 2.2s1 2.2 2.2 2.2 2.2-1 2.2-2.2-1-2.2-2.2-2.2zm-5.1 0c-1.2 0-2.2 1-2.2 2.2s1 2.2 2.2 2.2 2.2-1 2.2-2.2-1.1-2.2-2.2-2.2zm-10.4 0c-1.2 0-2.2 1-2.2 2.2s1 2.2 2.2 2.2 2.2-1 2.2-2.2-1-2.2-2.2-2.2zm5.2 0c-1.2 0-2.2 1-2.2 2.2s1 2.2 2.2 2.2 2.2-1 2.2-2.2-1-2.2-2.2-2.2zm15.5-5.2c-1.2 0-2.2 1-2.2 2.2s1 2.2 2.2 2.2 2.2-1 2.2-2.2-1-2.2-2.2-2.2zm-5.2 0c-1.2 0-2.2 1-2.2 2.2s1 2.2 2.2 2.2 2.2-1 2.2-2.2-1-2.2-2.2-2.2zm-41.5 26c-1.2 0-2.2 1-2.2 2.2s1 2.2 2.2 2.2 2.2-1 2.2-2.2-1-2.2-2.2-2.2zm5.2-5.2c-1.2 0-2.2 1-2.2 2.2s1 2.2 2.2 2.2c1.2 0 2.2-1 2.2-2.2s-1-2.2-2.2-2.2zm5.2-5.2c-1.2 0-2.2 1-2.2 2.2 0 1.2 1 2.2 2.2 2.2s2.2-1 2.2-2.2c0-1.2-1-2.2-2.2-2.2zm5.2-5.2c-1.2 0-2.2 1-2.2 2.2s1 2.2 2.2 2.2 2.2-1 2.2-2.2-1-2.2-2.2-2.2zm5.2-5.2c-1.2 0-2.2 1-2.2 2.2s1 2.2 2.2 2.2 2.2-1 2.2-2.2-1-2.2-2.2-2.2zm5.2-5.2c-1.2 0-2.2 1-2.2 2.2s1 2.2 2.2 2.2 2.2-1 2.2-2.2-1-2.2-2.2-2.2zm5.2 0c-1.2 0-2.2 1-2.2 2.2s1 2.2 2.2 2.2 2.2-1 2.2-2.2-1-2.2-2.2-2.2zm5.2 0c-1.2 0-2.2 1-2.2 2.2s1 2.2 2.2 2.2 2.2-1 2.2-2.2-1.1-2.2-2.2-2.2zm10.3-5.2c-1.2 0-2.2 1-2.2 2.2s1 2.2 2.2 2.2 2.2-1 2.2-2.2-1-2.2-2.2-2.2zm-5.2 0c-1.2 0-2.2 1-2.2 2.2s1 2.2 2.2 2.2 2.2-1 2.2-2.2c0-1.2-1-2.2-2.2-2.2zm-10.3 0c-1.2 0-2.2 1-2.2 2.2s1 2.2 2.2 2.2 2.2-1 2.2-2.2c-.1-1.2-1-2.2-2.2-2.2zm5.2 0c-1.2 0-2.2 1-2.2 2.2s1 2.2 2.2 2.2 2.2-1 2.2-2.2c-.1-1.2-1.1-2.2-2.2-2.2zm0-5.1c-1.2 0-2.2 1-2.2 2.2s1 2.2 2.2 2.2 2.2-1 2.2-2.2c-.1-1.3-1.1-2.2-2.2-2.2zm5.1 0c-1.2 0-2.2 1-2.2 2.2s1 2.2 2.2 2.2 2.2-1 2.2-2.2c0-1.3-1-2.2-2.2-2.2zm5.2 0c-1.2 0-2.2 1-2.2 2.2s1 2.2 2.2 2.2 2.2-1 2.2-2.2c0-1.3-1-2.2-2.2-2.2zm5.2 0c-1.2 0-2.2 1-2.2 2.2s1 2.2 2.2 2.2 2.2-1 2.2-2.2c0-1.3-1-2.2-2.2-2.2zm5.2 0c-1.2 0-2.2 1-2.2 2.2s1 2.2 2.2 2.2 2.2-1 2.2-2.2c0-1.3-1-2.2-2.2-2.2zm5.2 0c-1.2 0-2.2 1-2.2 2.2s1 2.2 2.2 2.2 2.2-1 2.2-2.2c0-1.3-1-2.2-2.2-2.2zm5.2 0c-1.2 0-2.2 1-2.2 2.2s1 2.2 2.2 2.2 2.2-1 2.2-2.2c0-1.3-1-2.2-2.2-2.2zm0-5.2c-1.2 0-2.2 1-2.2 2.2s1 2.2 2.2 2.2 2.2-1 2.2-2.2c0-1.3-1-2.2-2.2-2.2zm-5.2 0c-1.2 0-2.2 1-2.2 2.2s1 2.2 2.2 2.2 2.2-1 2.2-2.2c0-1.3-1-2.2-2.2-2.2zm-5.2 0c-1.2 0-2.2 1-2.2 2.2s1 2.2 2.2 2.2 2.2-1 2.2-2.2c0-1.3-1-2.2-2.2-2.2zm-5.2 0c-1.2 0-2.2 1-2.2 2.2s1 2.2 2.2 2.2 2.2-1 2.2-2.2c0-1.3-1-2.2-2.2-2.2zm-10.4 0c-1.2 0-2.2 1-2.2 2.2s1 2.2 2.2 2.2 2.2-1 2.2-2.2c0-1.3-1-2.2-2.2-2.2zm5.2 0c-1.2 0-2.2 1-2.2 2.2s1 2.2 2.2 2.2 2.2-1 2.2-2.2c0-1.3-1-2.2-2.2-2.2zm0-5.2c-1.2 0-2.2 1-2.2 2.2s1 2.2 2.2 2.2 2.2-1 2.2-2.2c0-1.3-1-2.2-2.2-2.2zm5.2 0c-1.2 0-2.2 1-2.2 2.2s1 2.2 2.2 2.2 2.2-1 2.2-2.2c0-1.3-1-2.2-2.2-2.2zm5.2 0c-1.2 0-2.2 1-2.2 2.2s1 2.2 2.2 2.2 2.2-1 2.2-2.2c0-1.3-1-2.2-2.2-2.2zm5.2 0c-1.2 0-2.2 1-2.2 2.2s1 2.2 2.2 2.2 2.2-1 2.2-2.2c0-1.3-1-2.2-2.2-2.2zm5.2 0c-1.2 0-2.2 1-2.2 2.2s1 2.2 2.2 2.2 2.2-1 2.2-2.2c0-1.3-1-2.2-2.2-2.2zm0-5.2c-1.2 0-2.2 1-2.2 2.2s1 2.2 2.2 2.2 2.2-1 2.2-2.2c0-1.3-1-2.2-2.2-2.2zm-5.2 0c-1.2 0-2.2 1-2.2 2.2s1 2.2 2.2 2.2 2.2-1 2.2-2.2c0-1.3-1-2.2-2.2-2.2zm-5.2 0c-1.2 0-2.2 1-2.2 2.2s1 2.2 2.2 2.2 2.2-1 2.2-2.2c0-1.3-1-2.2-2.2-2.2zm-5.2 0c-1.2 0-2.2 1-2.2 2.2s1 2.2 2.2 2.2 2.2-1 2.2-2.2c0-1.3-1-2.2-2.2-2.2zM59.3 98.6c-1.2 0-2.2 1-2.2 2.2s1 2.2 2.2 2.2 2.2-1 2.2-2.2-1-2.2-2.2-2.2zm0-5.2c-1.2 0-2.2 1-2.2 2.2s1 2.2 2.2 2.2 2.2-1 2.2-2.2-1-2.2-2.2-2.2zm0-5.2c-1.2 0-2.2 1-2.2 2.2s1 2.2 2.2 2.2 2.2-1 2.2-2.2-1-2.2-2.2-2.2zm0-5.2c-1.2 0-2.2 1-2.2 2.2s1 2.2 2.2 2.2 2.2-1 2.2-2.2-1-2.2-2.2-2.2zm0-5.2c-1.2 0-2.2 1-2.2 2.2s1 2.2 2.2 2.2 2.2-1 2.2-2.2-1-2.2-2.2-2.2zm0-20.7c-1.2 0-2.2 1-2.2 2.2s1 2.2 2.2 2.2 2.2-1 2.2-2.2c0-1.3-1-2.2-2.2-2.2zm0-5.2c-1.2 0-2.2 1-2.2 2.2s1 2.2 2.2 2.2 2.2-1 2.2-2.2-1-2.2-2.2-2.2zm0-5.2c-1.2 0-2.2 1-2.2 2.2s1 2.2 2.2 2.2 2.2-1 2.2-2.2-1-2.2-2.2-2.2zm0-5.2c-1.2 0-2.2 1-2.2 2.2 0 1.2 1 2.2 2.2 2.2s2.2-1 2.2-2.2c0-1.2-1-2.2-2.2-2.2zm0-5.2c-1.2 0-2.2 1-2.2 2.2s1 2.2 2.2 2.2 2.2-1 2.2-2.2-1-2.2-2.2-2.2zm0-5.2c-1.2 0-2.2 1-2.2 2.2s1 2.2 2.2 2.2 2.2-1 2.2-2.2-1-2.2-2.2-2.2zm0-5.2c-1.2 0-2.2 1-2.2 2.2s1 2.2 2.2 2.2 2.2-1 2.2-2.2-1-2.2-2.2-2.2zm5.2 72.7c-1.2 0-2.2 1-2.2 2.2s1 2.2 2.2 2.2 2.2-1 2.2-2.2-1-2.2-2.2-2.2zm0-5.2c-1.2 0-2.2 1-2.2 2.2s1 2.2 2.2 2.2 2.2-1 2.2-2.2-1-2.2-2.2-2.2zm0-5.2c-1.2 0-2.2 1-2.2 2.2s1 2.2 2.2 2.2 2.2-1 2.2-2.2-1-2.2-2.2-2.2zm0-5.2c-1.2 0-2.2 1-2.2 2.2s1 2.2 2.2 2.2 2.2-1 2.2-2.2-1-2.2-2.2-2.2zm0-5.2c-1.2 0-2.2 1-2.2 2.2s1 2.2 2.2 2.2 2.2-1 2.2-2.2-1-2.2-2.2-2.2zm15.6-5.2c-1.2 0-2.2 1-2.2 2.2s1 2.2 2.2 2.2 2.2-1 2.2-2.2c-.1-1.2-1-2.2-2.2-2.2zm0-5.1c-1.2 0-2.2 1-2.2 2.2s1 2.2 2.2 2.2 2.2-1 2.2-2.2c-.1-1.3-1-2.2-2.2-2.2zm0-5.2c-1.2 0-2.2 1-2.2 2.2 0 1.2 1 2.2 2.2 2.2s2.2-1 2.2-2.2c-.1-1.3-1-2.2-2.2-2.2zm5.2 10.3c-1.2 0-2.2 1-2.2 2.2s1 2.2 2.2 2.2 2.2-1 2.2-2.2c-.1-1.2-1-2.2-2.2-2.2zm0-5.1c-1.2 0-2.2 1-2.2 2.2s1 2.2 2.2 2.2 2.2-1 2.2-2.2c-.1-1.3-1-2.2-2.2-2.2zm0-5.2c-1.2 0-2.2 1-2.2 2.2 0 1.2 1 2.2 2.2 2.2s2.2-1 2.2-2.2c-.1-1.3-1-2.2-2.2-2.2zm5.2 10.3c-1.2 0-2.2 1-2.2 2.2s1 2.2 2.2 2.2 2.2-1 2.2-2.2c-.1-1.2-1-2.2-2.2-2.2zm0-5.1c-1.2 0-2.2 1-2.2 2.2s1 2.2 2.2 2.2 2.2-1 2.2-2.2c-.1-1.3-1-2.2-2.2-2.2zm0-5.2c-1.2 0-2.2 1-2.2 2.2 0 1.2 1 2.2 2.2 2.2s2.2-1 2.2-2.2c-.1-1.3-1-2.2-2.2-2.2zm-26 10.3c-1.2 0-2.2 1-2.2 2.2s1 2.2 2.2 2.2 2.2-1 2.2-2.2-1-2.2-2.2-2.2zm0-5.1c-1.2 0-2.2 1-2.2 2.2s1 2.2 2.2 2.2 2.2-1 2.2-2.2c0-1.3-1-2.2-2.2-2.2zm0-5.2c-1.2 0-2.2 1-2.2 2.2 0 1.2 1 2.2 2.2 2.2s2.2-1 2.2-2.2c0-1.3-1-2.2-2.2-2.2zm0-5.2c-1.2 0-2.2 1-2.2 2.2s1 2.2 2.2 2.2 2.2-1 2.2-2.2c0-1.3-1-2.2-2.2-2.2zm0-5.2c-1.2 0-2.2 1-2.2 2.2s1 2.2 2.2 2.2 2.2-1 2.2-2.2-1-2.2-2.2-2.2zm0-5.2c-1.2 0-2.2 1-2.2 2.2s1 2.2 2.2 2.2 2.2-1 2.2-2.2-1-2.2-2.2-2.2zm0-5.2c-1.2 0-2.2 1-2.2 2.2 0 1.2 1 2.2 2.2 2.2s2.2-1 2.2-2.2c0-1.2-1-2.2-2.2-2.2zm0-5.2c-1.2 0-2.2 1-2.2 2.2s1 2.2 2.2 2.2 2.2-1 2.2-2.2-1-2.2-2.2-2.2zm0-5.2c-1.2 0-2.2 1-2.2 2.2s1 2.2 2.2 2.2 2.2-1 2.2-2.2-1-2.2-2.2-2.2zm0-5.2c-1.2 0-2.2 1-2.2 2.2s1 2.2 2.2 2.2 2.2-1 2.2-2.2-1-2.2-2.2-2.2zm5.2 72.7c-1.2 0-2.2 1-2.2 2.2s1 2.2 2.2 2.2 2.2-1 2.2-2.2c0-1.2-1-2.2-2.2-2.2zm0-5.2c-1.2 0-2.2 1-2.2 2.2s1 2.2 2.2 2.2 2.2-1 2.2-2.2-1-2.2-2.2-2.2zm0-5.2c-1.2 0-2.2 1-2.2 2.2s1 2.2 2.2 2.2 2.2-1 2.2-2.2c0-1.2-1-2.2-2.2-2.2zm0-5.2c-1.2 0-2.2 1-2.2 2.2s1 2.2 2.2 2.2 2.2-1 2.2-2.2-1-2.2-2.2-2.2zm0-5.2c-1.2 0-2.2 1-2.2 2.2s1 2.2 2.2 2.2 2.2-1 2.2-2.2-1-2.2-2.2-2.2zm0-5.2c-1.2 0-2.2 1-2.2 2.2s1 2.2 2.2 2.2 2.2-1 2.2-2.2c0-1.2-1-2.2-2.2-2.2zm0-5.1c-1.2 0-2.2 1-2.2 2.2s1 2.2 2.2 2.2 2.2-1 2.2-2.2c0-1.3-1-2.2-2.2-2.2zm0-5.2c-1.2 0-2.2 1-2.2 2.2 0 1.2 1 2.2 2.2 2.2s2.2-1 2.2-2.2c0-1.3-1-2.2-2.2-2.2zm0-5.2c-1.2 0-2.2 1-2.2 2.2s1 2.2 2.2 2.2 2.2-1 2.2-2.2c0-1.3-1-2.2-2.2-2.2zm0-5.2c-1.2 0-2.2 1-2.2 2.2s1 2.2 2.2 2.2 2.2-1 2.2-2.2c0-1.2-1-2.2-2.2-2.2zm0-5.2c-1.2 0-2.2 1-2.2 2.2s1 2.2 2.2 2.2 2.2-1 2.2-2.2-1-2.2-2.2-2.2zm0-5.2c-1.2 0-2.2 1-2.2 2.2 0 1.2 1 2.2 2.2 2.2s2.2-1 2.2-2.2c0-1.2-1-2.2-2.2-2.2zm0-5.2c-1.2 0-2.2 1-2.2 2.2s1 2.2 2.2 2.2 2.2-1 2.2-2.2-1-2.2-2.2-2.2zm0-5.2c-1.2 0-2.2 1-2.2 2.2s1 2.2 2.2 2.2 2.2-1 2.2-2.2-1-2.2-2.2-2.2zm0-5.2c-1.2 0-2.2 1-2.2 2.2s1 2.2 2.2 2.2 2.2-1 2.2-2.2-1-2.2-2.2-2.2zm5.2 72.7c-1.2 0-2.2 1-2.2 2.2s1 2.2 2.2 2.2 2.2-1 2.2-2.2-1-2.2-2.2-2.2zm0-5.2c-1.2 0-2.2 1-2.2 2.2s1 2.2 2.2 2.2 2.2-1 2.2-2.2-1-2.2-2.2-2.2zm0-5.2c-1.2 0-2.2 1-2.2 2.2s1 2.2 2.2 2.2 2.2-1 2.2-2.2-1-2.2-2.2-2.2zm0-5.2c-1.2 0-2.2 1-2.2 2.2s1 2.2 2.2 2.2 2.2-1 2.2-2.2-1-2.2-2.2-2.2zm0-5.2c-1.2 0-2.2 1-2.2 2.2s1 2.2 2.2 2.2 2.2-1 2.2-2.2-1-2.2-2.2-2.2zm0-5.2c-1.2 0-2.2 1-2.2 2.2s1 2.2 2.2 2.2 2.2-1 2.2-2.2-1-2.2-2.2-2.2zm0-5.1c-1.2 0-2.2 1-2.2 2.2s1 2.2 2.2 2.2 2.2-1 2.2-2.2c0-1.3-1-2.2-2.2-2.2zm0-5.2c-1.2 0-2.2 1-2.2 2.2 0 1.2 1 2.2 2.2 2.2s2.2-1 2.2-2.2c0-1.3-1-2.2-2.2-2.2zm0-5.2c-1.2 0-2.2 1-2.2 2.2s1 2.2 2.2 2.2 2.2-1 2.2-2.2c0-1.3-1-2.2-2.2-2.2zm0-5.2c-1.2 0-2.2 1-2.2 2.2s1 2.2 2.2 2.2 2.2-1 2.2-2.2-1-2.2-2.2-2.2zm0-5.2c-1.2 0-2.2 1-2.2 2.2s1 2.2 2.2 2.2 2.2-1 2.2-2.2-1-2.2-2.2-2.2zm0-5.2c-1.2 0-2.2 1-2.2 2.2 0 1.2 1 2.2 2.2 2.2s2.2-1 2.2-2.2c0-1.2-1-2.2-2.2-2.2zm0-5.2c-1.2 0-2.2 1-2.2 2.2s1 2.2 2.2 2.2 2.2-1 2.2-2.2-1-2.2-2.2-2.2zm0-5.2c-1.2 0-2.2 1-2.2 2.2s1 2.2 2.2 2.2 2.2-1 2.2-2.2-1-2.2-2.2-2.2zm0-5.2c-1.2 0-2.2 1-2.2 2.2s1 2.2 2.2 2.2 2.2-1 2.2-2.2-1-2.2-2.2-2.2zm0-5.2c-1.2 0-2.2 1-2.2 2.2s1 2.2 2.2 2.2 2.2-1 2.2-2.2-1-2.2-2.2-2.2zm-5.2 0c-1.2 0-2.2 1-2.2 2.2s1 2.2 2.2 2.2 2.2-1 2.2-2.2c0-1.2-1-2.2-2.2-2.2zm-5.2 0c-1.2 0-2.2 1-2.2 2.2s1 2.2 2.2 2.2 2.2-1 2.2-2.2-1-2.2-2.2-2.2zm-5.2 0c-1.2 0-2.2 1-2.2 2.2s1 2.2 2.2 2.2 2.2-1 2.2-2.2-1-2.2-2.2-2.2zm0 51.9c-1.2 0-2.2 1-2.2 2.2s1 2.2 2.2 2.2 2.2-1 2.2-2.2-1-2.2-2.2-2.2zm-5.2 0c-1.2 0-2.2 1-2.2 2.2s1 2.2 2.2 2.2 2.2-1 2.2-2.2c0-1.2-1-2.2-2.2-2.2zm5.2-5.1c-1.2 0-2.2 1-2.2 2.2s1 2.2 2.2 2.2 2.2-1 2.2-2.2c0-1.3-1-2.2-2.2-2.2zm-5.2 0c-1.2 0-2.2 1-2.2 2.2s1 2.2 2.2 2.2 2.2-1 2.2-2.2c0-1.3-1-2.2-2.2-2.2zm5.2-5.2c-1.2 0-2.2 1-2.2 2.2 0 1.2 1 2.2 2.2 2.2s2.2-1 2.2-2.2c0-1.3-1-2.2-2.2-2.2zm-5.2 0c-1.2 0-2.2 1-2.2 2.2 0 1.2 1 2.2 2.2 2.2s2.2-1 2.2-2.2c0-1.3-1-2.2-2.2-2.2zm-5.2 10.3c-1.2 0-2.2 1-2.2 2.2s1 2.2 2.2 2.2 2.2-1 2.2-2.2-1-2.2-2.2-2.2zm-5.1 0c-1.2 0-2.2 1-2.2 2.2s1 2.2 2.2 2.2 2.2-1 2.2-2.2c-.1-1.2-1-2.2-2.2-2.2zm-10.4 0c-1.2 0-2.2 1-2.2 2.2s1 2.2 2.2 2.2c1.2 0 2.2-1 2.2-2.2-.1-1.2-1-2.2-2.2-2.2zm5.2 0c-1.2 0-2.2 1-2.2 2.2s1 2.2 2.2 2.2 2.2-1 2.2-2.2c-.1-1.2-1-2.2-2.2-2.2zm-10.4 0c-1.2 0-2.2 1-2.2 2.2s1 2.2 2.2 2.2 2.2-1 2.2-2.2c-.1-1.2-1-2.2-2.2-2.2zm20.7-5.1c-1.2 0-2.2 1-2.2 2.2s1 2.2 2.2 2.2 2.2-1 2.2-2.2c0-1.3-1-2.2-2.2-2.2zm-5.1 0c-1.2 0-2.2 1-2.2 2.2s1 2.2 2.2 2.2 2.2-1 2.2-2.2c-.1-1.3-1-2.2-2.2-2.2zm-10.4 0c-1.2 0-2.2 1-2.2 2.2s1 2.2 2.2 2.2c1.2 0 2.2-1 2.2-2.2-.1-1.3-1-2.2-2.2-2.2zm5.2 0c-1.2 0-2.2 1-2.2 2.2s1 2.2 2.2 2.2 2.2-1 2.2-2.2c-.1-1.3-1-2.2-2.2-2.2zm-10.4 0c-1.2 0-2.2 1-2.2 2.2s1 2.2 2.2 2.2 2.2-1 2.2-2.2c-.1-1.3-1-2.2-2.2-2.2zm20.7-5.2c-1.2 0-2.2 1-2.2 2.2 0 1.2 1 2.2 2.2 2.2s2.2-1 2.2-2.2c0-1.3-1-2.2-2.2-2.2zm-5.1 0c-1.2 0-2.2 1-2.2 2.2 0 1.2 1 2.2 2.2 2.2s2.2-1 2.2-2.2c-.1-1.3-1-2.2-2.2-2.2zm-10.4 0c-1.2 0-2.2 1-2.2 2.2 0 1.2 1 2.2 2.2 2.2 1.2 0 2.2-1 2.2-2.2-.1-1.3-1-2.2-2.2-2.2zm5.2 0c-1.2 0-2.2 1-2.2 2.2 0 1.2 1 2.2 2.2 2.2s2.2-1 2.2-2.2c-.1-1.3-1-2.2-2.2-2.2zm-10.4 0c-1.2 0-2.2 1-2.2 2.2 0 1.2 1 2.2 2.2 2.2s2.2-1 2.2-2.2c-.1-1.3-1-2.2-2.2-2.2zM23 72.6c-1.2 0-2.2 1-2.2 2.2s1 2.2 2.2 2.2 2.2-1 2.2-2.2-1-2.2-2.2-2.2zm-5.2 0c-1.2 0-2.2 1-2.2 2.2s1 2.2 2.2 2.2 2.2-1 2.2-2.2-1-2.2-2.2-2.2zm-10.4 0c-1.2 0-2.2 1-2.2 2.2s1 2.2 2.2 2.2 2.2-1 2.2-2.2c0-1.2-1-2.2-2.2-2.2zm5.2 0c-1.2 0-2.2 1-2.2 2.2s1 2.2 2.2 2.2 2.2-1 2.2-2.2-1-2.2-2.2-2.2zm-10.4 0c-1.2 0-2.2 1-2.2 2.2S1 77 2.2 77s2.2-1 2.2-2.2-1-2.2-2.2-2.2zM23 67.5c-1.2 0-2.2 1-2.2 2.2s1 2.2 2.2 2.2 2.2-1 2.2-2.2c0-1.3-1-2.2-2.2-2.2zm-5.2 0c-1.2 0-2.2 1-2.2 2.2s1 2.2 2.2 2.2 2.2-1 2.2-2.2c0-1.3-1-2.2-2.2-2.2zm-10.4 0c-1.2 0-2.2 1-2.2 2.2s1 2.2 2.2 2.2 2.2-1 2.2-2.2c0-1.3-1-2.2-2.2-2.2zm5.2 0c-1.2 0-2.2 1-2.2 2.2s1 2.2 2.2 2.2 2.2-1 2.2-2.2c0-1.3-1-2.2-2.2-2.2zm-10.4 0c-1.2 0-2.2 1-2.2 2.2s1 2.2 2.2 2.2 2.2-1 2.2-2.2c0-1.3-1-2.2-2.2-2.2zM23 62.3c-1.2 0-2.2 1-2.2 2.2 0 1.2 1 2.2 2.2 2.2s2.2-1 2.2-2.2c0-1.3-1-2.2-2.2-2.2zm-5.2 0c-1.2 0-2.2 1-2.2 2.2 0 1.2 1 2.2 2.2 2.2s2.2-1 2.2-2.2c0-1.3-1-2.2-2.2-2.2zm-10.4 0c-1.2 0-2.2 1-2.2 2.2 0 1.2 1 2.2 2.2 2.2s2.2-1 2.2-2.2c0-1.3-1-2.2-2.2-2.2zm5.2 0c-1.2 0-2.2 1-2.2 2.2 0 1.2 1 2.2 2.2 2.2s2.2-1 2.2-2.2c0-1.3-1-2.2-2.2-2.2zm-10.4 0c-1.2 0-2.2 1-2.2 2.2 0 1.2 1 2.2 2.2 2.2s2.2-1 2.2-2.2c0-1.3-1-2.2-2.2-2.2zM23 57.1c-1.2 0-2.2 1-2.2 2.2s1 2.2 2.2 2.2 2.2-1 2.2-2.2c0-1.3-1-2.2-2.2-2.2zm-5.2 0c-1.2 0-2.2 1-2.2 2.2s1 2.2 2.2 2.2 2.2-1 2.2-2.2c0-1.3-1-2.2-2.2-2.2zm-10.4 0c-1.2 0-2.2 1-2.2 2.2s1 2.2 2.2 2.2 2.2-1 2.2-2.2c0-1.3-1-2.2-2.2-2.2zm5.2 0c-1.2 0-2.2 1-2.2 2.2s1 2.2 2.2 2.2 2.2-1 2.2-2.2c0-1.3-1-2.2-2.2-2.2zm-10.4 0c-1.2 0-2.2 1-2.2 2.2s1 2.2 2.2 2.2 2.2-1 2.2-2.2c0-1.3-1-2.2-2.2-2.2zm26-5.2c-1.2 0-2.2 1-2.2 2.2s1 2.2 2.2 2.2 2.2-1 2.2-2.2c-.1-1.2-1-2.2-2.2-2.2zm-5.2 0c-1.2 0-2.2 1-2.2 2.2s1 2.2 2.2 2.2 2.2-1 2.2-2.2-1-2.2-2.2-2.2zm-10.4 0c-1.2 0-2.2 1-2.2 2.2s1 2.2 2.2 2.2 2.2-1 2.2-2.2-1-2.2-2.2-2.2zm5.2 0c-1.2 0-2.2 1-2.2 2.2s1 2.2 2.2 2.2 2.2-1 2.2-2.2-1-2.2-2.2-2.2zm15.6-5.2c-1.2 0-2.2 1-2.2 2.2s1 2.2 2.2 2.2c1.2 0 2.2-1 2.2-2.2s-1-2.2-2.2-2.2zm-5.2 0c-1.2 0-2.2 1-2.2 2.2s1 2.2 2.2 2.2 2.2-1 2.2-2.2-1-2.2-2.2-2.2zm-10.4 0c-1.2 0-2.2 1-2.2 2.2s1 2.2 2.2 2.2 2.2-1 2.2-2.2-1-2.2-2.2-2.2zm5.2 0c-1.2 0-2.2 1-2.2 2.2s1 2.2 2.2 2.2 2.2-1 2.2-2.2-1-2.2-2.2-2.2zm15.6-5.2c-1.2 0-2.2 1-2.2 2.2 0 1.2 1 2.2 2.2 2.2s2.2-1 2.2-2.2c-.1-1.2-1-2.2-2.2-2.2zm-5.2 0c-1.2 0-2.2 1-2.2 2.2 0 1.2 1 2.2 2.2 2.2 1.2 0 2.2-1 2.2-2.2-.1-1.2-1-2.2-2.2-2.2zm-10.4 0c-1.2 0-2.2 1-2.2 2.2 0 1.2 1 2.2 2.2 2.2s2.2-1 2.2-2.2c0-1.2-1-2.2-2.2-2.2zm5.2 0c-1.2 0-2.2 1-2.2 2.2 0 1.2 1 2.2 2.2 2.2s2.2-1 2.2-2.2c-.1-1.2-1-2.2-2.2-2.2zm15.6-5.2c-1.2 0-2.2 1-2.2 2.2s1 2.2 2.2 2.2 2.2-1 2.2-2.2-1-2.2-2.2-2.2zm-5.2 0c-1.2 0-2.2 1-2.2 2.2s1 2.2 2.2 2.2 2.2-1 2.2-2.2-1-2.2-2.2-2.2zm-10.4 0c-1.2 0-2.2 1-2.2 2.2s1 2.2 2.2 2.2 2.2-1 2.2-2.2-1-2.2-2.2-2.2zm5.2 0c-1.2 0-2.2 1-2.2 2.2s1 2.2 2.2 2.2c1.2 0 2.2-1 2.2-2.2s-1-2.2-2.2-2.2zm15.5-5.2c-1.2 0-2.2 1-2.2 2.2s1 2.2 2.2 2.2 2.2-1 2.2-2.2-1-2.2-2.2-2.2zm-5.1 0c-1.2 0-2.2 1-2.2 2.2s1 2.2 2.2 2.2 2.2-1 2.2-2.2-1-2.2-2.2-2.2zm-10.4 0c-1.2 0-2.2 1-2.2 2.2s1 2.2 2.2 2.2c1.2 0 2.2-1 2.2-2.2s-1-2.2-2.2-2.2zm5.2 0c-1.2 0-2.2 1-2.2 2.2s1 2.2 2.2 2.2 2.2-1 2.2-2.2-1-2.2-2.2-2.2zm15.5-5.2c-1.2 0-2.2 1-2.2 2.2s1 2.2 2.2 2.2 2.2-1 2.2-2.2-1-2.2-2.2-2.2zm-5.2 0c-1.2 0-2.2 1-2.2 2.2s1 2.2 2.2 2.2 2.2-1 2.2-2.2-1-2.2-2.2-2.2zm-41.5 26c-1.2 0-2.2 1-2.2 2.2s1 2.2 2.2 2.2 2.2-1 2.2-2.2c0-1.2-1-2.2-2.2-2.2zm5.2-5.2c-1.2 0-2.2 1-2.2 2.2s1 2.2 2.2 2.2 2.2-1 2.2-2.2-1-2.2-2.2-2.2zm5.2-5.2c-1.2 0-2.2 1-2.2 2.2 0 1.2 1 2.2 2.2 2.2s2.2-1 2.2-2.2c0-1.2-1-2.2-2.2-2.2zm5.2-5.2c-1.2 0-2.2 1-2.2 2.2s1 2.2 2.2 2.2 2.2-1 2.2-2.2-1-2.2-2.2-2.2zm5.2-5.2c-1.2 0-2.2 1-2.2 2.2s1 2.2 2.2 2.2 2.2-1 2.2-2.2-1-2.2-2.2-2.2zm5.2-5.2c-1.2 0-2.2 1-2.2 2.2s1 2.2 2.2 2.2c1.2 0 2.2-1 2.2-2.2s-1-2.2-2.2-2.2zm5.2 0c-1.2 0-2.2 1-2.2 2.2s1 2.2 2.2 2.2 2.2-1 2.2-2.2-1-2.2-2.2-2.2zm5.2 0c-1.2 0-2.2 1-2.2 2.2s1 2.2 2.2 2.2 2.2-1 2.2-2.2-1-2.2-2.2-2.2zm10.3-5.2c-1.2 0-2.2 1-2.2 2.2s1 2.2 2.2 2.2 2.2-1 2.2-2.2c0-1.2-1-2.2-2.2-2.2zm-5.2 0c-1.2 0-2.2 1-2.2 2.2s1 2.2 2.2 2.2 2.2-1 2.2-2.2-1-2.2-2.2-2.2zm-10.3 0c-1.2 0-2.2 1-2.2 2.2s1 2.2 2.2 2.2 2.2-1 2.2-2.2c-.1-1.2-1-2.2-2.2-2.2zm5.2 0c-1.2 0-2.2 1-2.2 2.2s1 2.2 2.2 2.2 2.2-1 2.2-2.2c-.1-1.2-1-2.2-2.2-2.2zm0-5.1c-1.2 0-2.2 1-2.2 2.2s1 2.2 2.2 2.2 2.2-1 2.2-2.2c-.1-1.3-1-2.2-2.2-2.2zm5.1 0c-1.2 0-2.2 1-2.2 2.2s1 2.2 2.2 2.2 2.2-1 2.2-2.2c0-1.3-1-2.2-2.2-2.2zm5.2 0c-1.2 0-2.2 1-2.2 2.2s1 2.2 2.2 2.2 2.2-1 2.2-2.2c0-1.3-1-2.2-2.2-2.2zm5.2 0c-1.2 0-2.2 1-2.2 2.2s1 2.2 2.2 2.2 2.2-1 2.2-2.2c0-1.3-1-2.2-2.2-2.2zm5.2 0c-1.2 0-2.2 1-2.2 2.2s1 2.2 2.2 2.2 2.2-1 2.2-2.2c0-1.3-1-2.2-2.2-2.2zm5.2 0c-1.2 0-2.2 1-2.2 2.2s1 2.2 2.2 2.2 2.2-1 2.2-2.2c0-1.3-1-2.2-2.2-2.2zm5.2 0c-1.2 0-2.2 1-2.2 2.2s1 2.2 2.2 2.2 2.2-1 2.2-2.2c0-1.3-1-2.2-2.2-2.2zm0-5.2c-1.2 0-2.2 1-2.2 2.2s1 2.2 2.2 2.2 2.2-1 2.2-2.2c0-1.3-1-2.2-2.2-2.2zm-5.2 0c-1.2 0-2.2 1-2.2 2.2s1 2.2 2.2 2.2 2.2-1 2.2-2.2c0-1.3-1-2.2-2.2-2.2zm-5.2 0c-1.2 0-2.2 1-2.2 2.2s1 2.2 2.2 2.2 2.2-1 2.2-2.2c0-1.3-1-2.2-2.2-2.2zm-5.2 0c-1.2 0-2.2 1-2.2 2.2s1 2.2 2.2 2.2 2.2-1 2.2-2.2c0-1.3-1-2.2-2.2-2.2zm-10.4 0c-1.2 0-2.2 1-2.2 2.2s1 2.2 2.2 2.2 2.2-1 2.2-2.2c0-1.3-1-2.2-2.2-2.2zm5.2 0c-1.2 0-2.2 1-2.2 2.2s1 2.2 2.2 2.2 2.2-1 2.2-2.2c0-1.3-1-2.2-2.2-2.2zm0-5.2c-1.2 0-2.2 1-2.2 2.2s1 2.2 2.2 2.2 2.2-1 2.2-2.2c0-1.3-1-2.2-2.2-2.2zm5.2 0c-1.2 0-2.2 1-2.2 2.2s1 2.2 2.2 2.2 2.2-1 2.2-2.2c0-1.3-1-2.2-2.2-2.2zm5.2 0c-1.2 0-2.2 1-2.2 2.2s1 2.2 2.2 2.2 2.2-1 2.2-2.2c0-1.3-1-2.2-2.2-2.2zm5.2 0c-1.2 0-2.2 1-2.2 2.2s1 2.2 2.2 2.2 2.2-1 2.2-2.2c0-1.3-1-2.2-2.2-2.2zm5.2 0c-1.2 0-2.2 1-2.2 2.2s1 2.2 2.2 2.2 2.2-1 2.2-2.2c0-1.3-1-2.2-2.2-2.2zm0-5.2c-1.2 0-2.2 1-2.2 2.2s1 2.2 2.2 2.2 2.2-1 2.2-2.2c0-1.3-1-2.2-2.2-2.2zm-5.2 0c-1.2 0-2.2 1-2.2 2.2s1 2.2 2.2 2.2 2.2-1 2.2-2.2c0-1.3-1-2.2-2.2-2.2zm-5.2 0c-1.2 0-2.2 1-2.2 2.2s1 2.2 2.2 2.2 2.2-1 2.2-2.2c0-1.3-1-2.2-2.2-2.2zm-5.2 0c-1.2 0-2.2 1-2.2 2.2s1 2.2 2.2 2.2 2.2-1 2.2-2.2c0-1.3-1-2.2-2.2-2.2zm83.1 93.4c-1.2 0-2.2 1-2.2 2.2s1 2.2 2.2 2.2 2.2-1 2.2-2.2-1-2.2-2.2-2.2zM132 62.3c-1.2 0-2.2 1-2.2 2.2 0 1.2 1 2.2 2.2 2.2s2.2-1 2.2-2.2c0-1.3-1-2.2-2.2-2.2zm0-5.2c-1.2 0-2.2 1-2.2 2.2s1 2.2 2.2 2.2 2.2-1 2.2-2.2c0-1.3-1-2.2-2.2-2.2zm0-5.2c-1.2 0-2.2 1-2.2 2.2s1 2.2 2.2 2.2 2.2-1 2.2-2.2-1-2.2-2.2-2.2zm5.2 25.9c-1.2 0-2.2 1-2.2 2.2s1 2.2 2.2 2.2 2.2-1 2.2-2.2-1-2.2-2.2-2.2zm-5.2-5.2c-1.2 0-2.2 1-2.2 2.2s1 2.2 2.2 2.2 2.2-1 2.2-2.2-1-2.2-2.2-2.2zm0-5.1c-1.2 0-2.2 1-2.2 2.2s1 2.2 2.2 2.2 2.2-1 2.2-2.2-1-2.2-2.2-2.2zm-5.2-5.2c-1.2 0-2.2 1-2.2 2.2 0 1.2 1 2.2 2.2 2.2s2.2-1 2.2-2.2c0-1.3-1-2.2-2.2-2.2zm0-5.2c-1.2 0-2.2 1-2.2 2.2s1 2.2 2.2 2.2 2.2-1 2.2-2.2c0-1.3-1-2.2-2.2-2.2zm0-5.2c-1.2 0-2.2 1-2.2 2.2s1 2.2 2.2 2.2 2.2-1 2.2-2.2-1-2.2-2.2-2.2zm0 15.6c-1.2 0-2.2 1-2.2 2.2s1 2.2 2.2 2.2 2.2-1 2.2-2.2-1-2.2-2.2-2.2zm-5.2-10.4c-1.2 0-2.2 1-2.2 2.2s1 2.2 2.2 2.2 2.2-1 2.2-2.2c0-1.3-1-2.2-2.2-2.2zm0-5.2c-1.2 0-2.2 1-2.2 2.2s1 2.2 2.2 2.2 2.2-1 2.2-2.2-1-2.2-2.2-2.2zm0 10.4c-1.2 0-2.2 1-2.2 2.2 0 1.2 1 2.2 2.2 2.2s2.2-1 2.2-2.2c0-1.3-1-2.2-2.2-2.2zm-5.2-5.2c-1.2 0-2.2 1-2.2 2.2s1 2.2 2.2 2.2 2.2-1 2.2-2.2c0-1.3-1-2.2-2.2-2.2zm0-5.2c-1.2 0-2.2 1-2.2 2.2s1 2.2 2.2 2.2 2.2-1 2.2-2.2-1-2.2-2.2-2.2zm0 20.7c-1.2 0-2.2 1-2.2 2.2s1 2.2 2.2 2.2 2.2-1 2.2-2.2c0-1.2-1-2.2-2.2-2.2zm0-5.1c-1.2 0-2.2 1-2.2 2.2s1 2.2 2.2 2.2 2.2-1 2.2-2.2-1-2.2-2.2-2.2zm0-5.2c-1.2 0-2.2 1-2.2 2.2 0 1.2 1 2.2 2.2 2.2s2.2-1 2.2-2.2c0-1.3-1-2.2-2.2-2.2zm5.2 15.5c-1.2 0-2.2 1-2.2 2.2s1 2.2 2.2 2.2 2.2-1 2.2-2.2-1-2.2-2.2-2.2zm0-5.2c-1.2 0-2.2 1-2.2 2.2s1 2.2 2.2 2.2 2.2-1 2.2-2.2-1-2.2-2.2-2.2zm0-5.1c-1.2 0-2.2 1-2.2 2.2s1 2.2 2.2 2.2 2.2-1 2.2-2.2-1-2.2-2.2-2.2zm5.2 15.5c-1.2 0-2.2 1-2.2 2.2s1 2.2 2.2 2.2 2.2-1 2.2-2.2-1-2.2-2.2-2.2zm0-5.2c-1.2 0-2.2 1-2.2 2.2s1 2.2 2.2 2.2 2.2-1 2.2-2.2-1-2.2-2.2-2.2zm0-5.2c-1.2 0-2.2 1-2.2 2.2s1 2.2 2.2 2.2 2.2-1 2.2-2.2-1-2.2-2.2-2.2zm5.2 15.6c-1.2 0-2.2 1-2.2 2.2s1 2.2 2.2 2.2 2.2-1 2.2-2.2-1-2.2-2.2-2.2zm0-5.2c-1.2 0-2.2 1-2.2 2.2s1 2.2 2.2 2.2 2.2-1 2.2-2.2-1-2.2-2.2-2.2zm0-5.2c-1.2 0-2.2 1-2.2 2.2s1 2.2 2.2 2.2 2.2-1 2.2-2.2-1-2.2-2.2-2.2zm5.2 15.6c-1.2 0-2.2 1-2.2 2.2s1 2.2 2.2 2.2 2.2-1 2.2-2.2-1-2.2-2.2-2.2zm0-5.2c-1.2 0-2.2 1-2.2 2.2s1 2.2 2.2 2.2 2.2-1 2.2-2.2c-.1-1.2-1-2.2-2.2-2.2zm0-5.2c-1.2 0-2.2 1-2.2 2.2s1 2.2 2.2 2.2 2.2-1 2.2-2.2-1-2.2-2.2-2.2zm5.2 0c-1.2 0-2.2 1-2.2 2.2s1 2.2 2.2 2.2 2.2-1 2.2-2.2-1-2.2-2.2-2.2zm0 5.2c-1.2 0-2.2 1-2.2 2.2s1 2.2 2.2 2.2 2.2-1 2.2-2.2c-.1-1.2-1-2.2-2.2-2.2zm5.2 0c-1.2 0-2.2 1-2.2 2.2s1 2.2 2.2 2.2 2.2-1 2.2-2.2c-.1-1.2-1-2.2-2.2-2.2zm5.2 0c-1.2 0-2.2 1-2.2 2.2s1 2.2 2.2 2.2 2.2-1 2.2-2.2c-.1-1.2-1.1-2.2-2.2-2.2zm-5.2 5.2c-1.2 0-2.2 1-2.2 2.2s1 2.2 2.2 2.2 2.2-1 2.2-2.2-1-2.2-2.2-2.2zm5.2 0c-1.2 0-2.2 1-2.2 2.2s1 2.2 2.2 2.2 2.2-1 2.2-2.2-1.1-2.2-2.2-2.2zm-5.2 5.2c-1.2 0-2.2 1-2.2 2.2s1 2.2 2.2 2.2 2.2-1 2.2-2.2-1-2.2-2.2-2.2zm5.2 0c-1.2 0-2.2 1-2.2 2.2s1 2.2 2.2 2.2 2.2-1 2.2-2.2-1.1-2.2-2.2-2.2zM142.4 5.2c-1.2 0-2.2 1-2.2 2.2s1 2.2 2.2 2.2 2.2-1 2.2-2.2-1-2.2-2.2-2.2zM132 36.3c-1.2 0-2.2 1-2.2 2.2s1 2.2 2.2 2.2 2.2-1 2.2-2.2-1-2.2-2.2-2.2zm0 5.2c-1.2 0-2.2 1-2.2 2.2 0 1.2 1 2.2 2.2 2.2s2.2-1 2.2-2.2c0-1.2-1-2.2-2.2-2.2zm0 5.2c-1.2 0-2.2 1-2.2 2.2s1 2.2 2.2 2.2 2.2-1 2.2-2.2-1-2.2-2.2-2.2zm5.2-26c-1.2 0-2.2 1-2.2 2.2s1 2.2 2.2 2.2 2.2-1 2.2-2.2-1-2.2-2.2-2.2zm-5.2 5.2c-1.2 0-2.2 1-2.2 2.2s1 2.2 2.2 2.2 2.2-1 2.2-2.2-1-2.2-2.2-2.2zm0 5.2c-1.2 0-2.2 1-2.2 2.2s1 2.2 2.2 2.2 2.2-1 2.2-2.2-1-2.2-2.2-2.2zm-5.2 5.2c-1.2 0-2.2 1-2.2 2.2s1 2.2 2.2 2.2 2.2-1 2.2-2.2-1-2.2-2.2-2.2zm0 5.2c-1.2 0-2.2 1-2.2 2.2 0 1.2 1 2.2 2.2 2.2s2.2-1 2.2-2.2c0-1.2-1-2.2-2.2-2.2zm0 5.2c-1.2 0-2.2 1-2.2 2.2s1 2.2 2.2 2.2 2.2-1 2.2-2.2-1-2.2-2.2-2.2zm0-15.6c-1.2 0-2.2 1-2.2 2.2s1 2.2 2.2 2.2 2.2-1 2.2-2.2-1-2.2-2.2-2.2zm-5.2 10.4c-1.2 0-2.2 1-2.2 2.2 0 1.2 1 2.2 2.2 2.2s2.2-1 2.2-2.2c0-1.2-1-2.2-2.2-2.2zm0 5.2c-1.2 0-2.2 1-2.2 2.2s1 2.2 2.2 2.2 2.2-1 2.2-2.2-1-2.2-2.2-2.2zm0-10.4c-1.2 0-2.2 1-2.2 2.2s1 2.2 2.2 2.2 2.2-1 2.2-2.2-1-2.2-2.2-2.2zm-5.2 5.2c-1.2 0-2.2 1-2.2 2.2 0 1.2 1 2.2 2.2 2.2s2.2-1 2.2-2.2c0-1.2-1-2.2-2.2-2.2zm0 5.2c-1.2 0-2.2 1-2.2 2.2s1 2.2 2.2 2.2 2.2-1 2.2-2.2c0-1.2-1-2.2-2.2-2.2zm0-20.8c-1.2 0-2.2 1-2.2 2.2s1 2.2 2.2 2.2 2.2-1 2.2-2.2-1-2.2-2.2-2.2zm0 5.2c-1.2 0-2.2 1-2.2 2.2s1 2.2 2.2 2.2 2.2-1 2.2-2.2-1-2.2-2.2-2.2zm0 5.2c-1.2 0-2.2 1-2.2 2.2s1 2.2 2.2 2.2 2.2-1 2.2-2.2-1-2.2-2.2-2.2zm5.2-15.6c-1.2 0-2.2 1-2.2 2.2s1 2.2 2.2 2.2 2.2-1 2.2-2.2-1-2.2-2.2-2.2zm0 5.2c-1.2 0-2.2 1-2.2 2.2s1 2.2 2.2 2.2 2.2-1 2.2-2.2-1-2.2-2.2-2.2zm0 5.2c-1.2 0-2.2 1-2.2 2.2s1 2.2 2.2 2.2 2.2-1 2.2-2.2-1-2.2-2.2-2.2zm5.2-15.5c-1.2 0-2.2 1-2.2 2.2s1 2.2 2.2 2.2 2.2-1 2.2-2.2c0-1.3-1-2.2-2.2-2.2zm0 5.1c-1.2 0-2.2 1-2.2 2.2s1 2.2 2.2 2.2 2.2-1 2.2-2.2-1-2.2-2.2-2.2zm0 5.2c-1.2 0-2.2 1-2.2 2.2s1 2.2 2.2 2.2 2.2-1 2.2-2.2-1-2.2-2.2-2.2zm5.2-15.5c-1.2 0-2.2 1-2.2 2.2s1 2.2 2.2 2.2 2.2-1 2.2-2.2c0-1.3-1-2.2-2.2-2.2zm0 5.2c-1.2 0-2.2 1-2.2 2.2s1 2.2 2.2 2.2 2.2-1 2.2-2.2c0-1.3-1-2.2-2.2-2.2zm0 5.1c-1.2 0-2.2 1-2.2 2.2s1 2.2 2.2 2.2 2.2-1 2.2-2.2-1-2.2-2.2-2.2zm5.2-15.5c-1.2 0-2.2 1-2.2 2.2s1 2.2 2.2 2.2 2.2-1 2.2-2.2-1-2.2-2.2-2.2zm0 5.2c-1.2 0-2.2 1-2.2 2.2s1 2.2 2.2 2.2 2.2-1 2.2-2.2c-.1-1.3-1-2.2-2.2-2.2zm0 5.2c-1.2 0-2.2 1-2.2 2.2s1 2.2 2.2 2.2 2.2-1 2.2-2.2c-.1-1.3-1-2.2-2.2-2.2zm5.2 0c-1.2 0-2.2 1-2.2 2.2s1 2.2 2.2 2.2 2.2-1 2.2-2.2c-.1-1.3-1-2.2-2.2-2.2zm0-5.2c-1.2 0-2.2 1-2.2 2.2s1 2.2 2.2 2.2 2.2-1 2.2-2.2c-.1-1.3-1-2.2-2.2-2.2zm5.2 0c-1.2 0-2.2 1-2.2 2.2s1 2.2 2.2 2.2 2.2-1 2.2-2.2c-.1-1.3-1-2.2-2.2-2.2zm5.2 0c-1.2 0-2.2 1-2.2 2.2s1 2.2 2.2 2.2 2.2-1 2.2-2.2c-.1-1.3-1.1-2.2-2.2-2.2zm-5.2-5.2c-1.2 0-2.2 1-2.2 2.2s1 2.2 2.2 2.2 2.2-1 2.2-2.2-1-2.2-2.2-2.2zm5.2 0c-1.2 0-2.2 1-2.2 2.2s1 2.2 2.2 2.2 2.2-1 2.2-2.2-1.1-2.2-2.2-2.2zM147.6 0c-1.2 0-2.2 1-2.2 2.2s1 2.2 2.2 2.2 2.2-1 2.2-2.2c-.1-1.3-1-2.2-2.2-2.2zm5.2 0c-1.2 0-2.2 1-2.2 2.2s1 2.2 2.2 2.2 2.2-1 2.2-2.2c-.1-1.3-1.1-2.2-2.2-2.2zm15.5 93.4c-1.2 0-2.2 1-2.2 2.2s1 2.2 2.2 2.2 2.2-1 2.2-2.2-1-2.2-2.2-2.2zm10.4-31.1c-1.2 0-2.2 1-2.2 2.2 0 1.2 1 2.2 2.2 2.2s2.2-1 2.2-2.2c0-1.3-1-2.2-2.2-2.2zm0-5.2c-1.2 0-2.2 1-2.2 2.2s1 2.2 2.2 2.2 2.2-1 2.2-2.2c0-1.3-1-2.2-2.2-2.2zm0-5.2c-1.2 0-2.2 1-2.2 2.2s1 2.2 2.2 2.2 2.2-1 2.2-2.2-1-2.2-2.2-2.2zm-5.2 25.9c-1.2 0-2.2 1-2.2 2.2s1 2.2 2.2 2.2 2.2-1 2.2-2.2-1-2.2-2.2-2.2zm5.2-5.2c-1.2 0-2.2 1-2.2 2.2s1 2.2 2.2 2.2 2.2-1 2.2-2.2-1-2.2-2.2-2.2zm0-5.1c-1.2 0-2.2 1-2.2 2.2s1 2.2 2.2 2.2 2.2-1 2.2-2.2-1-2.2-2.2-2.2zm5.2-5.2c-1.2 0-2.2 1-2.2 2.2 0 1.2 1 2.2 2.2 2.2s2.2-1 2.2-2.2c0-1.3-1-2.2-2.2-2.2zm0-5.2c-1.2 0-2.2 1-2.2 2.2s1 2.2 2.2 2.2 2.2-1 2.2-2.2c0-1.3-1-2.2-2.2-2.2zm0-5.2c-1.2 0-2.2 1-2.2 2.2s1 2.2 2.2 2.2 2.2-1 2.2-2.2-1-2.2-2.2-2.2zm0 15.6c-1.2 0-2.2 1-2.2 2.2s1 2.2 2.2 2.2 2.2-1 2.2-2.2-1-2.2-2.2-2.2zm5.2-10.4c-1.2 0-2.2 1-2.2 2.2s1 2.2 2.2 2.2 2.2-1 2.2-2.2c-.1-1.3-1-2.2-2.2-2.2zm0-5.2c-1.2 0-2.2 1-2.2 2.2s1 2.2 2.2 2.2 2.2-1 2.2-2.2-1-2.2-2.2-2.2zm0 10.4c-1.2 0-2.2 1-2.2 2.2 0 1.2 1 2.2 2.2 2.2s2.2-1 2.2-2.2c-.1-1.3-1-2.2-2.2-2.2zm5.2-5.2c-1.2 0-2.2 1-2.2 2.2s1 2.2 2.2 2.2 2.2-1 2.2-2.2c-.1-1.3-1-2.2-2.2-2.2zm0-5.2c-1.2 0-2.2 1-2.2 2.2s1 2.2 2.2 2.2 2.2-1 2.2-2.2-1-2.2-2.2-2.2zm0 20.7c-1.2 0-2.2 1-2.2 2.2s1 2.2 2.2 2.2 2.2-1 2.2-2.2c-.1-1.2-1-2.2-2.2-2.2zm0-5.1c-1.2 0-2.2 1-2.2 2.2s1 2.2 2.2 2.2 2.2-1 2.2-2.2-1-2.2-2.2-2.2zm0-5.2c-1.2 0-2.2 1-2.2 2.2 0 1.2 1 2.2 2.2 2.2s2.2-1 2.2-2.2c-.1-1.3-1-2.2-2.2-2.2zm-5.2 15.5c-1.2 0-2.2 1-2.2 2.2s1 2.2 2.2 2.2 2.2-1 2.2-2.2-1-2.2-2.2-2.2zm0-5.2c-1.2 0-2.2 1-2.2 2.2s1 2.2 2.2 2.2 2.2-1 2.2-2.2c-.1-1.2-1-2.2-2.2-2.2zm0-5.1c-1.2 0-2.2 1-2.2 2.2s1 2.2 2.2 2.2 2.2-1 2.2-2.2-1-2.2-2.2-2.2zM183.9 83c-1.2 0-2.2 1-2.2 2.2s1 2.2 2.2 2.2 2.2-1 2.2-2.2-1-2.2-2.2-2.2zm0-5.2c-1.2 0-2.2 1-2.2 2.2s1 2.2 2.2 2.2 2.2-1 2.2-2.2-1-2.2-2.2-2.2zm0-5.2c-1.2 0-2.2 1-2.2 2.2s1 2.2 2.2 2.2 2.2-1 2.2-2.2c0-1.2-1-2.2-2.2-2.2zm-5.2 15.6c-1.2 0-2.2 1-2.2 2.2s1 2.2 2.2 2.2 2.2-1 2.2-2.2-1-2.2-2.2-2.2zm0-5.2c-1.2 0-2.2 1-2.2 2.2s1 2.2 2.2 2.2 2.2-1 2.2-2.2-1-2.2-2.2-2.2zm0-5.2c-1.2 0-2.2 1-2.2 2.2s1 2.2 2.2 2.2 2.2-1 2.2-2.2-1-2.2-2.2-2.2zm-5.2 15.6c-1.2 0-2.2 1-2.2 2.2s1 2.2 2.2 2.2 2.2-1 2.2-2.2-1-2.2-2.2-2.2zm0-5.2c-1.2 0-2.2 1-2.2 2.2s1 2.2 2.2 2.2 2.2-1 2.2-2.2-1-2.2-2.2-2.2zm0-5.2c-1.2 0-2.2 1-2.2 2.2s1 2.2 2.2 2.2 2.2-1 2.2-2.2-1-2.2-2.2-2.2zm-5.2 0c-1.2 0-2.2 1-2.2 2.2s1 2.2 2.2 2.2 2.2-1 2.2-2.2-1-2.2-2.2-2.2zm0 5.2c-1.2 0-2.2 1-2.2 2.2s1 2.2 2.2 2.2 2.2-1 2.2-2.2-1-2.2-2.2-2.2zm-5.2 0c-1.2 0-2.2 1-2.2 2.2s1 2.2 2.2 2.2 2.2-1 2.2-2.2-1-2.2-2.2-2.2zm-5.2 0c-1.2 0-2.2 1-2.2 2.2s1 2.2 2.2 2.2 2.2-1 2.2-2.2c0-1.2-1-2.2-2.2-2.2zm5.2 5.2c-1.2 0-2.2 1-2.2 2.2s1 2.2 2.2 2.2 2.2-1 2.2-2.2-1-2.2-2.2-2.2zm-5.2 0c-1.2 0-2.2 1-2.2 2.2s1 2.2 2.2 2.2 2.2-1 2.2-2.2-1-2.2-2.2-2.2zm5.2 5.2c-1.2 0-2.2 1-2.2 2.2s1 2.2 2.2 2.2 2.2-1 2.2-2.2-1-2.2-2.2-2.2zm-5.2 0c-1.2 0-2.2 1-2.2 2.2s1 2.2 2.2 2.2 2.2-1 2.2-2.2-1-2.2-2.2-2.2zm10.4-93.4c-1.2 0-2.2 1-2.2 2.2s1 2.2 2.2 2.2 2.2-1 2.2-2.2c0-1.3-1-2.2-2.2-2.2zm10.4 31.1c-1.2 0-2.2 1-2.2 2.2s1 2.2 2.2 2.2 2.2-1 2.2-2.2-1-2.2-2.2-2.2zm0 5.2c-1.2 0-2.2 1-2.2 2.2 0 1.2 1 2.2 2.2 2.2s2.2-1 2.2-2.2c0-1.2-1-2.2-2.2-2.2zm0 5.2c-1.2 0-2.2 1-2.2 2.2s1 2.2 2.2 2.2 2.2-1 2.2-2.2-1-2.2-2.2-2.2zm-5.2-26c-1.2 0-2.2 1-2.2 2.2s1 2.2 2.2 2.2 2.2-1 2.2-2.2-1-2.2-2.2-2.2zm5.2 5.2c-1.2 0-2.2 1-2.2 2.2s1 2.2 2.2 2.2 2.2-1 2.2-2.2-1-2.2-2.2-2.2zm0 5.2c-1.2 0-2.2 1-2.2 2.2s1 2.2 2.2 2.2 2.2-1 2.2-2.2-1-2.2-2.2-2.2zm5.2 5.2c-1.2 0-2.2 1-2.2 2.2s1 2.2 2.2 2.2 2.2-1 2.2-2.2-1-2.2-2.2-2.2zm0 5.2c-1.2 0-2.2 1-2.2 2.2 0 1.2 1 2.2 2.2 2.2s2.2-1 2.2-2.2c0-1.2-1-2.2-2.2-2.2zm0 5.2c-1.2 0-2.2 1-2.2 2.2s1 2.2 2.2 2.2 2.2-1 2.2-2.2-1-2.2-2.2-2.2zm0-15.6c-1.2 0-2.2 1-2.2 2.2s1 2.2 2.2 2.2 2.2-1 2.2-2.2-1-2.2-2.2-2.2zm5.2 10.4c-1.2 0-2.2 1-2.2 2.2 0 1.2 1 2.2 2.2 2.2s2.2-1 2.2-2.2c-.1-1.2-1-2.2-2.2-2.2zm0 5.2c-1.2 0-2.2 1-2.2 2.2s1 2.2 2.2 2.2 2.2-1 2.2-2.2-1-2.2-2.2-2.2zm0-10.4c-1.2 0-2.2 1-2.2 2.2s1 2.2 2.2 2.2 2.2-1 2.2-2.2-1-2.2-2.2-2.2zm5.2 5.2c-1.2 0-2.2 1-2.2 2.2 0 1.2 1 2.2 2.2 2.2s2.2-1 2.2-2.2c-.1-1.2-1-2.2-2.2-2.2zm0 5.2c-1.2 0-2.2 1-2.2 2.2s1 2.2 2.2 2.2 2.2-1 2.2-2.2-1-2.2-2.2-2.2zm0-20.8c-1.2 0-2.2 1-2.2 2.2s1 2.2 2.2 2.2 2.2-1 2.2-2.2-1-2.2-2.2-2.2zm0 5.2c-1.2 0-2.2 1-2.2 2.2s1 2.2 2.2 2.2 2.2-1 2.2-2.2-1-2.2-2.2-2.2zm0 5.2c-1.2 0-2.2 1-2.2 2.2s1 2.2 2.2 2.2 2.2-1 2.2-2.2-1-2.2-2.2-2.2zm-5.2-15.6c-1.2 0-2.2 1-2.2 2.2s1 2.2 2.2 2.2 2.2-1 2.2-2.2c-.1-1.2-1-2.2-2.2-2.2zm0 5.2c-1.2 0-2.2 1-2.2 2.2s1 2.2 2.2 2.2 2.2-1 2.2-2.2-1-2.2-2.2-2.2zm0 5.2c-1.2 0-2.2 1-2.2 2.2s1 2.2 2.2 2.2 2.2-1 2.2-2.2-1-2.2-2.2-2.2zm-5.2-15.5c-1.2 0-2.2 1-2.2 2.2s1 2.2 2.2 2.2 2.2-1 2.2-2.2c0-1.3-1-2.2-2.2-2.2zm0 5.1c-1.2 0-2.2 1-2.2 2.2s1 2.2 2.2 2.2 2.2-1 2.2-2.2c0-1.2-1-2.2-2.2-2.2zm0 5.2c-1.2 0-2.2 1-2.2 2.2s1 2.2 2.2 2.2 2.2-1 2.2-2.2-1-2.2-2.2-2.2zm-5.2-15.5c-1.2 0-2.2 1-2.2 2.2s1 2.2 2.2 2.2 2.2-1 2.2-2.2c0-1.3-1-2.2-2.2-2.2zm0 5.2c-1.2 0-2.2 1-2.2 2.2s1 2.2 2.2 2.2 2.2-1 2.2-2.2c0-1.3-1-2.2-2.2-2.2zm0 5.1c-1.2 0-2.2 1-2.2 2.2s1 2.2 2.2 2.2 2.2-1 2.2-2.2-1-2.2-2.2-2.2zm-5.2-15.5c-1.2 0-2.2 1-2.2 2.2s1 2.2 2.2 2.2 2.2-1 2.2-2.2c0-1.3-1-2.2-2.2-2.2zm0 5.2c-1.2 0-2.2 1-2.2 2.2s1 2.2 2.2 2.2 2.2-1 2.2-2.2c0-1.3-1-2.2-2.2-2.2zm0 5.2c-1.2 0-2.2 1-2.2 2.2s1 2.2 2.2 2.2 2.2-1 2.2-2.2c0-1.3-1-2.2-2.2-2.2zm-5.2 0c-1.2 0-2.2 1-2.2 2.2s1 2.2 2.2 2.2 2.2-1 2.2-2.2c0-1.3-1-2.2-2.2-2.2zm0-5.2c-1.2 0-2.2 1-2.2 2.2s1 2.2 2.2 2.2 2.2-1 2.2-2.2c0-1.3-1-2.2-2.2-2.2zm-5.2 0c-1.2 0-2.2 1-2.2 2.2s1 2.2 2.2 2.2 2.2-1 2.2-2.2c0-1.3-1-2.2-2.2-2.2zm-5.2 0c-1.2 0-2.2 1-2.2 2.2s1 2.2 2.2 2.2 2.2-1 2.2-2.2c0-1.3-1-2.2-2.2-2.2zm5.2-5.2c-1.2 0-2.2 1-2.2 2.2s1 2.2 2.2 2.2 2.2-1 2.2-2.2c0-1.3-1-2.2-2.2-2.2zm-5.2 0c-1.2 0-2.2 1-2.2 2.2s1 2.2 2.2 2.2 2.2-1 2.2-2.2c0-1.3-1-2.2-2.2-2.2zm5.2-5.2c-1.2 0-2.2 1-2.2 2.2s1 2.2 2.2 2.2 2.2-1 2.2-2.2c0-1.3-1-2.2-2.2-2.2zm-5.2 0c-1.2 0-2.2 1-2.2 2.2s1 2.2 2.2 2.2 2.2-1 2.2-2.2c0-1.3-1-2.2-2.2-2.2z"/></symbol><symbol id="icon-about_us_icon1" viewBox="0 0 57.3 57.3"><style>.about_us__icon1 .st0,.about_us__icon1 .st1{fill-rule:evenodd;clip-rule:evenodd;fill:none;stroke:#3cb565;stroke-miterlimit:10}.about_us__icon1 .st1{opacity:.45}</style><g class="about_us__icon1"><circle class="st0" cx="28.7" cy="29" r="27.5"/><path class="st1" d="M9.7 9.2l33.8 43.1"/><path class="st1" d="M13.1 6.4l28 47.2"/><path class="st1" d="M30 1.6L11.3 50.3"/><path class="st1" d="M49 10.5L15.2 53"/><path class="st1" d="M56.2 31.1l-54.9-.3"/><path class="st1" d="M48.5 48.1L2.9 38.6"/><path class="st1" d="M36.7 2.7l14.7 42"/></g></symbol><symbol id="icon-about_us_icon2" viewBox="0 0 55 47.7"><style>.about_us__icon2 .st0,.about_us__icon2 .st1{fill-rule:evenodd;clip-rule:evenodd;fill:none;stroke:#3cb565;stroke-miterlimit:10}.about_us__icon2 .st1{opacity:.45}</style><g class="about_us__icon2"><path class="st0" d="M0 47.7L27.5 0 55 47.7z"/><path class="st1" d="M12.5 47.7l15-26 15 26z"/></g></symbol><symbol id="icon-arrow_icon" viewBox="0 0 24.6 14.8"><path d="M3.1 0l9.2 9.2L21.5 0l2.8 2.8-12 12-12-12L3.1 0z"/></symbol><symbol id="icon-blur_filter" viewBox="0 0 185 185"><circle cx="92.5" cy="92.5" r="92.5"/></symbol><symbol id="icon-close-ico" viewBox="0 0 65 65"><desc>Generated with Avocode.</desc><g transform="translate(-608 -1583)"><title>Shape 17 copy</title><use xlink:href="#a"/></g></symbol><symbol id="icon-file" viewBox="0 0 13.31 17.75"><g class="download_ico"><path class="cls-1" d="M2.69 7.54h7.79v4.04H2.69z"/><path class="cls-1" d="M6.58 7.54v4.04"/><path class="cls-1" d="M4.59 7.54v4.04"/><path class="cls-1" d="M8.51 7.54v4.04"/><path class="cls-1" d="M2.69 9.56h7.79"/><path class="cls-2" d="M12.94 17.38H.38V3.91L4.27.38h8.67v17z"/><path class="cls-2" d="M4.27.38v4"/><path class="cls-2" d="M.23 4.02h4"/></g></symbol><symbol id="icon-logo" viewBox="0 0 475.8 158.6"><style>.logo-svg-group .circle{fill:#37b662}.logo-svg-group .letter{fill:#fff}</style><g clip-path="url(#preloader-logo-clip)" class="logo-svg-group"><path d="M0 79.3c0 44.76 34.54 79.3 79.3 79.3s79.3-34.54 79.3-79.3S124.06 0 79.3 0 0 34.54 0 79.3z" class="circle"/><path d="M158.6 79.3c0 44.76 34.54 79.3 79.3 79.3s79.3-34.54 79.3-79.3S282.66 0 237.9 0s-79.3 34.54-79.3 79.3z" class="circle"/><path d="M317.2 79.3c0 44.76 34.54 79.3 79.3 79.3s79.3-34.54 79.3-79.3S441.26 0 396.5 0s-79.3 34.54-79.3 79.3z" class="circle"/><path d="M393.1 85.6C366 81.2 364 70.3 364 63.6c0-19.9 26.1-20.8 30.4-20.8 14.1 0 25.8 5.2 30.6 9.7v21.9h-.7c-8.2-16.2-23-18.1-31.3-18.1-5.2 0-13.4.6-13.4 7.3 0 5.2 5.8 6.7 20.3 9.1C427 77.1 429 88.3 429 95c0 19.9-26.1 20.8-30.4 20.8-15.3 0-25.8-5.5-30.6-10.2V83.7h.7c8.2 16.6 22.7 18.6 31.3 18.6 5.2 0 13.4-.6 13.4-7.3 0-5.2-5.8-7-20.3-9.4z" class="letter"/><path d="M238.4 110.6l10-66.3h30.3v70h-14.4v-65h-1.4l-11 65h-28l-11-65h-1.4v65h-14.4v-70h30.3l10 66.3z" class="letter"/><path d="M79.9 87.9h28.3v1c-6.2 7.7-16.9 12.1-29 12.1-13.9 0-23.3-9.5-23.3-21.7s9.4-21.7 23.3-21.7c11.2 0 20.3 4.5 25.4 14.5h.8V50.3c-7.4-5.6-16.8-7.5-25.5-7.5-23.3 0-40 15.9-40 36.5s16.7 36.5 40 36.5c13.4 0 24.4-4.5 30.8-10.2V74.4H79.9z" class="letter"/></g></symbol><symbol id="icon-platform_ico1" viewBox="0 0 55.12 78"><path class="cls-1" d="M2.6 65.52a2.6 2.6 0 1 0 2.6 2.6 2.6 2.6 0 0 0-2.6-2.6zm6.24 0a2.6 2.6 0 1 0 2.6 2.6 2.6 2.6 0 0 0-2.6-2.6zm6.24 0a2.6 2.6 0 1 0 2.6 2.6 2.6 2.6 0 0 0-2.6-2.6zM2.6 58.24a2.6 2.6 0 1 0 2.6 2.6 2.6 2.6 0 0 0-2.6-2.6zm6.24 0a2.6 2.6 0 1 0 2.6 2.6 2.6 2.6 0 0 0-2.6-2.6zm6.24 0a2.6 2.6 0 1 0 2.6 2.6 2.6 2.6 0 0 0-2.6-2.6zM2.6 51a2.6 2.6 0 1 0 2.6 2.6A2.6 2.6 0 0 0 2.6 51zm6.24 0a2.6 2.6 0 1 0 2.6 2.6 2.6 2.6 0 0 0-2.6-2.6zm6.24 0a2.6 2.6 0 1 0 2.6 2.6 2.6 2.6 0 0 0-2.6-2.6zm-6.24-7.32a2.6 2.6 0 1 0 2.6 2.6 2.6 2.6 0 0 0-2.6-2.6zm6.24 0a2.6 2.6 0 1 0 2.6 2.6 2.6 2.6 0 0 0-2.6-2.6zM8.84 36.4a2.6 2.6 0 1 0 2.6 2.6 2.6 2.6 0 0 0-2.6-2.6zm6.24 0a2.6 2.6 0 1 0 2.6 2.6 2.6 2.6 0 0 0-2.6-2.6zm-6.24-7.28a2.6 2.6 0 1 0 2.6 2.6 2.6 2.6 0 0 0-2.6-2.6zm6.24 0a2.6 2.6 0 1 0 2.6 2.6 2.6 2.6 0 0 0-2.6-2.6zm-6.24-7.28a2.6 2.6 0 1 0 2.6 2.6 2.6 2.6 0 0 0-2.6-2.6zm6.24 0a2.6 2.6 0 1 0 2.6 2.6 2.6 2.6 0 0 0-2.6-2.6zm-6.24-7.28a2.6 2.6 0 1 0 2.6 2.6 2.6 2.6 0 0 0-2.6-2.6zm6.24 0a2.6 2.6 0 1 0 2.6 2.6 2.6 2.6 0 0 0-2.6-2.6zm0-7.28a2.6 2.6 0 1 0 2.6 2.6 2.6 2.6 0 0 0-2.6-2.6zm37.44 58.24a2.6 2.6 0 1 0 2.6 2.6 2.6 2.6 0 0 0-2.6-2.6zm-6.24 0a2.6 2.6 0 1 0 2.6 2.6 2.6 2.6 0 0 0-2.6-2.6zm-6.24 0a2.6 2.6 0 1 0 2.6 2.6 2.6 2.6 0 0 0-2.64-2.6zm12.48-7.28a2.6 2.6 0 1 0 2.6 2.6 2.6 2.6 0 0 0-2.6-2.6zm-6.24 0a2.6 2.6 0 1 0 2.6 2.6 2.6 2.6 0 0 0-2.6-2.6zm-6.24 0a2.6 2.6 0 1 0 2.6 2.6 2.6 2.6 0 0 0-2.64-2.6zm12.48-2.08a2.6 2.6 0 1 0-2.6-2.6 2.6 2.6 0 0 0 2.6 2.6zM46.28 51a2.6 2.6 0 1 0 2.6 2.6 2.6 2.6 0 0 0-2.6-2.6zM40 51a2.6 2.6 0 1 0 2.6 2.6A2.6 2.6 0 0 0 40 51zm6.24-7.28a2.6 2.6 0 1 0 2.6 2.6 2.6 2.6 0 0 0-2.56-2.64zm-6.24 0a2.6 2.6 0 1 0 2.6 2.6 2.6 2.6 0 0 0-2.6-2.64zm6.24-7.28a2.6 2.6 0 1 0 2.6 2.6 2.6 2.6 0 0 0-2.56-2.64zM40 36.4a2.6 2.6 0 1 0 2.6 2.6 2.6 2.6 0 0 0-2.6-2.6zm6.24-7.28a2.6 2.6 0 1 0 2.6 2.6 2.6 2.6 0 0 0-2.56-2.6zm-6.24 0a2.6 2.6 0 1 0 2.6 2.6 2.6 2.6 0 0 0-2.6-2.6zm6.24-7.28a2.6 2.6 0 1 0 2.6 2.6 2.6 2.6 0 0 0-2.56-2.6zm-6.24 0a2.6 2.6 0 1 0 2.6 2.6 2.6 2.6 0 0 0-2.6-2.6zm6.24-7.28a2.6 2.6 0 1 0 2.6 2.6 2.6 2.6 0 0 0-2.56-2.6zm-6.24 0a2.6 2.6 0 1 0 2.6 2.6 2.6 2.6 0 0 0-2.6-2.6zm0-7.28a2.6 2.6 0 1 0 2.6 2.6 2.6 2.6 0 0 0-2.6-2.6zM33.8 72.8a2.6 2.6 0 1 0 2.6 2.6 2.6 2.6 0 0 0-2.6-2.6zm-6.24 0a2.6 2.6 0 1 0 2.6 2.6 2.6 2.6 0 0 0-2.6-2.6zm-6.24 0a2.6 2.6 0 1 0 2.6 2.6 2.6 2.6 0 0 0-2.6-2.6zm12.48-7.28a2.6 2.6 0 1 0 2.6 2.6 2.6 2.6 0 0 0-2.6-2.6zm-6.24 0a2.6 2.6 0 1 0 2.6 2.6 2.6 2.6 0 0 0-2.6-2.6zm-6.24 0a2.6 2.6 0 1 0 2.6 2.6 2.6 2.6 0 0 0-2.6-2.6zm12.48-7.28a2.6 2.6 0 1 0 2.6 2.6 2.6 2.6 0 0 0-2.6-2.6zm-6.24 0a2.6 2.6 0 1 0 2.6 2.6 2.6 2.6 0 0 0-2.6-2.6zm-6.24 0a2.6 2.6 0 1 0 2.6 2.6 2.6 2.6 0 0 0-2.6-2.6zM33.8 51a2.6 2.6 0 1 0 2.6 2.6 2.6 2.6 0 0 0-2.6-2.6zm-6.24 0a2.6 2.6 0 1 0 2.6 2.6 2.6 2.6 0 0 0-2.6-2.6zm-6.24 0a2.6 2.6 0 1 0 2.6 2.6 2.6 2.6 0 0 0-2.6-2.6zm12.48-7.32a2.6 2.6 0 1 0 2.6 2.6 2.6 2.6 0 0 0-2.6-2.6zm-6.24 0a2.6 2.6 0 1 0 2.6 2.6 2.6 2.6 0 0 0-2.6-2.6zm-6.24 0a2.6 2.6 0 1 0 2.6 2.6 2.6 2.6 0 0 0-2.6-2.6zM33.8 36.4a2.6 2.6 0 1 0 2.6 2.6 2.6 2.6 0 0 0-2.6-2.6zm-6.24 0a2.6 2.6 0 1 0 2.6 2.6 2.6 2.6 0 0 0-2.6-2.6zm-6.24 0a2.6 2.6 0 1 0 2.6 2.6 2.6 2.6 0 0 0-2.6-2.6zm12.48-7.28a2.6 2.6 0 1 0 2.6 2.6 2.6 2.6 0 0 0-2.6-2.6zm-6.24 0a2.6 2.6 0 1 0 2.6 2.6 2.6 2.6 0 0 0-2.6-2.6zm-6.24 0a2.6 2.6 0 1 0 2.6 2.6 2.6 2.6 0 0 0-2.6-2.6zm12.48-7.28a2.6 2.6 0 1 0 2.6 2.6 2.6 2.6 0 0 0-2.6-2.6zm-6.24 0a2.6 2.6 0 1 0 2.6 2.6 2.6 2.6 0 0 0-2.6-2.6zm-6.24 0a2.6 2.6 0 1 0 2.6 2.6 2.6 2.6 0 0 0-2.6-2.6zm12.48-7.28a2.6 2.6 0 1 0 2.6 2.6 2.6 2.6 0 0 0-2.6-2.6zm-6.24 0a2.6 2.6 0 1 0 2.6 2.6 2.6 2.6 0 0 0-2.6-2.6zm-6.24 0a2.6 2.6 0 1 0 2.6 2.6 2.6 2.6 0 0 0-2.6-2.6zM33.8 7.28a2.6 2.6 0 1 0 2.6 2.6 2.6 2.6 0 0 0-2.6-2.6zm-6.24 0a2.6 2.6 0 1 0 2.6 2.6 2.6 2.6 0 0 0-2.6-2.6zm-6.24 0a2.6 2.6 0 1 0 2.6 2.6 2.6 2.6 0 0 0-2.6-2.6zM33.8 0a2.6 2.6 0 1 0 2.6 2.6A2.6 2.6 0 0 0 33.8 0zm-6.24 0a2.6 2.6 0 1 0 2.6 2.6 2.6 2.6 0 0 0-2.6-2.6zm-6.24 0a2.6 2.6 0 1 0 2.6 2.6 2.6 2.6 0 0 0-2.6-2.6z"/></symbol><symbol id="icon-platform_ico2" viewBox="0 0 90.09 83"><title>icon_2</title><path class="cls-1" d="M81.48 56.68A2.53 2.53 0 1 0 84 59.21a2.53 2.53 0 0 0-2.52-2.53zm-6.07 0a2.53 2.53 0 1 0 2.53 2.53 2.53 2.53 0 0 0-2.53-2.53zm12.15-7.08a2.53 2.53 0 1 0 2.53 2.53 2.53 2.53 0 0 0-2.53-2.53zm-6.07 0A2.53 2.53 0 1 0 84 52.13a2.53 2.53 0 0 0-2.52-2.53zm-6.07 0a2.53 2.53 0 1 0 2.53 2.53 2.53 2.53 0 0 0-2.54-2.53zm12.15-7.09A2.53 2.53 0 1 0 90.09 45a2.53 2.53 0 0 0-2.53-2.49zm-6.07 0A2.53 2.53 0 1 0 84 45a2.53 2.53 0 0 0-2.52-2.49zm-6.07 0A2.53 2.53 0 1 0 77.94 45a2.53 2.53 0 0 0-2.53-2.49zm12.15-7.09A2.53 2.53 0 1 0 90.09 38a2.53 2.53 0 0 0-2.53-2.57zm-6.07 0A2.53 2.53 0 1 0 84 38a2.53 2.53 0 0 0-2.52-2.57zm-6.07 0a2.53 2.53 0 1 0 2.5 2.58 2.53 2.53 0 0 0-2.53-2.57zm12.15-7.09a2.53 2.53 0 1 0 2.53 2.53 2.53 2.53 0 0 0-2.56-2.52zm-6.07 0A2.53 2.53 0 1 0 84 30.87a2.53 2.53 0 0 0-2.52-2.53zm6.07-7.09a2.53 2.53 0 1 0 2.53 2.53 2.53 2.53 0 0 0-2.56-2.51zm-6.07 0A2.53 2.53 0 1 0 84 23.79a2.53 2.53 0 0 0-2.52-2.53zm-6.07 0a2.53 2.53 0 1 0 2.53 2.53 2.53 2.53 0 0 0-2.57-2.51zm12.15-7.09a2.53 2.53 0 1 0 2.53 2.53 2.53 2.53 0 0 0-2.57-2.51zm-6.07 0A2.53 2.53 0 1 0 84 16.7a2.53 2.53 0 0 0-2.52-2.53zm-6.07 0a2.53 2.53 0 1 0 2.53 2.53 2.53 2.53 0 0 0-2.58-2.51zm12.15-2A2.53 2.53 0 1 0 85 9.62a2.53 2.53 0 0 0 2.56 2.53zm-6.13-5.06A2.53 2.53 0 1 0 84 9.62a2.53 2.53 0 0 0-2.52-2.53zm-6.07 0a2.53 2.53 0 1 0 2.53 2.53 2.53 2.53 0 0 0-2.53-2.53zM81.48 0A2.53 2.53 0 1 0 84 2.53 2.53 2.53 0 0 0 81.48 0zm-6.07 0a2.53 2.53 0 1 0 2.53 2.53A2.53 2.53 0 0 0 75.41 0zm-6.07 56.68a2.53 2.53 0 1 0 2.53 2.53 2.53 2.53 0 0 0-2.53-2.53zm-6.07 0a2.53 2.53 0 1 0 2.53 2.53 2.53 2.53 0 0 0-2.54-2.53zm-6.07 0a2.53 2.53 0 1 0 2.53 2.53 2.53 2.53 0 0 0-2.54-2.53zm12.14-7.08a2.53 2.53 0 1 0 2.53 2.53 2.53 2.53 0 0 0-2.53-2.53zm-6.07 0a2.53 2.53 0 1 0 2.53 2.53 2.53 2.53 0 0 0-2.54-2.53zm-6.07 0a2.53 2.53 0 1 0 2.53 2.53 2.53 2.53 0 0 0-2.54-2.53zm12.15-7.09A2.53 2.53 0 1 0 71.87 45a2.53 2.53 0 0 0-2.53-2.49zm-6.07 0A2.53 2.53 0 1 0 65.79 45a2.53 2.53 0 0 0-2.53-2.49zm-6.07 0A2.53 2.53 0 1 0 59.72 45a2.53 2.53 0 0 0-2.53-2.49zm6.07-7.09A2.53 2.53 0 1 0 65.79 38a2.53 2.53 0 0 0-2.53-2.57zm-6.07 0A2.53 2.53 0 1 0 59.72 38a2.53 2.53 0 0 0-2.53-2.57zm0-7.09a2.53 2.53 0 1 0 2.53 2.53 2.53 2.53 0 0 0-2.55-2.52zm6.07-7.09a2.53 2.53 0 1 0 2.53 2.53 2.53 2.53 0 0 0-2.55-2.51zm-6.07 0a2.53 2.53 0 1 0 2.53 2.53 2.53 2.53 0 0 0-2.55-2.51zm12.15-7.09a2.53 2.53 0 1 0 2.53 2.53 2.53 2.53 0 0 0-2.55-2.51zm-6.07 0a2.53 2.53 0 1 0 2.53 2.53 2.53 2.53 0 0 0-2.56-2.51zm-6.07 0a2.53 2.53 0 1 0 2.53 2.53 2.53 2.53 0 0 0-2.56-2.51zm12.12-7.06a2.53 2.53 0 1 0 2.53 2.53 2.53 2.53 0 0 0-2.53-2.53zm-6.07 0a2.53 2.53 0 1 0 2.53 2.53 2.53 2.53 0 0 0-2.54-2.53zm-6.07 0a2.53 2.53 0 1 0 2.53 2.53 2.53 2.53 0 0 0-2.54-2.53zM69.34 0a2.53 2.53 0 1 0 2.53 2.53A2.53 2.53 0 0 0 69.34 0zm-6.08 0a2.53 2.53 0 1 0 2.53 2.53A2.53 2.53 0 0 0 63.26 0zm-6.07 0a2.53 2.53 0 1 0 2.53 2.53A2.53 2.53 0 0 0 57.19 0zm-6.07 56.68a2.53 2.53 0 1 0 2.53 2.53 2.53 2.53 0 0 0-2.53-2.53zm-6.07 0a2.53 2.53 0 1 0 2.53 2.53A2.53 2.53 0 0 0 45 56.68zm-6.07 0a2.53 2.53 0 1 0 2.53 2.53A2.53 2.53 0 0 0 39 56.68zm12.14-7.08a2.53 2.53 0 1 0 2.53 2.53 2.53 2.53 0 0 0-2.53-2.53zm-6.12 0a2.53 2.53 0 1 0 2.53 2.53A2.53 2.53 0 0 0 45 49.6zm-6 0a2.53 2.53 0 1 0 2.53 2.53A2.53 2.53 0 0 0 39 49.6zm12.15-7.09a2.53 2.53 0 1 0 2.5 2.49 2.53 2.53 0 0 0-2.53-2.49zm-6.07 0A2.53 2.53 0 1 0 47.57 45 2.53 2.53 0 0 0 45 42.51zm-6.07 0A2.53 2.53 0 1 0 41.5 45a2.53 2.53 0 0 0-2.5-2.49zm12.15-7.09A2.53 2.53 0 1 0 53.65 38a2.53 2.53 0 0 0-2.53-2.57zM39 35.43A2.53 2.53 0 1 0 41.5 38a2.53 2.53 0 0 0-2.5-2.57zm12.12-14.17a2.53 2.53 0 1 0 2.53 2.53 2.53 2.53 0 0 0-2.53-2.53zm-12.12 0a2.53 2.53 0 1 0 2.53 2.53A2.53 2.53 0 0 0 39 21.26zm12.15-7.09a2.53 2.53 0 1 0 2.53 2.53 2.53 2.53 0 0 0-2.56-2.53zm-6.07 0a2.53 2.53 0 1 0 2.53 2.53A2.53 2.53 0 0 0 45 14.17zm-6.07 0a2.53 2.53 0 1 0 2.49 2.53 2.53 2.53 0 0 0-2.5-2.53zm12.11-7.08a2.53 2.53 0 1 0 2.53 2.53 2.53 2.53 0 0 0-2.53-2.53zm-6.12 0a2.53 2.53 0 1 0 2.53 2.53A2.53 2.53 0 0 0 45 7.09zm-6 0a2.53 2.53 0 1 0 2.5 2.53A2.53 2.53 0 0 0 39 7.09zM51.12 0a2.53 2.53 0 1 0 2.53 2.53A2.53 2.53 0 0 0 51.12 0zM45 0a2.53 2.53 0 1 0 2.53 2.53A2.53 2.53 0 0 0 45 0zm-6 0a2.53 2.53 0 1 0 2.5 2.53A2.53 2.53 0 0 0 39 0zm-6.1 56.68a2.53 2.53 0 1 0 2.53 2.53 2.53 2.53 0 0 0-2.53-2.53zm-6.07 7.09a2.53 2.53 0 1 0 2.53 2.53 2.53 2.53 0 0 0-2.54-2.53zm0-7.09a2.53 2.53 0 1 0 2.53 2.53 2.53 2.53 0 0 0-2.54-2.53zm-6.08 14.17a2.53 2.53 0 1 0 2.53 2.53 2.53 2.53 0 0 0-2.53-2.53zm0-7.09a2.53 2.53 0 1 0 2.53 2.53 2.53 2.53 0 0 0-2.53-2.52zm0-7.09a2.53 2.53 0 1 0 2.53 2.53 2.53 2.53 0 0 0-2.53-2.52zM32.9 49.6a2.53 2.53 0 1 0 2.53 2.53 2.53 2.53 0 0 0-2.53-2.53zm-6.07 0a2.53 2.53 0 1 0 2.53 2.53 2.53 2.53 0 0 0-2.54-2.53zm-6.07 0a2.53 2.53 0 1 0 2.53 2.53 2.53 2.53 0 0 0-2.54-2.53zm12.14-7.09A2.53 2.53 0 1 0 35.43 45a2.53 2.53 0 0 0-2.53-2.49zm-6.07 0A2.53 2.53 0 1 0 29.35 45a2.53 2.53 0 0 0-2.53-2.49zm-6.07 0A2.53 2.53 0 1 0 23.28 45a2.53 2.53 0 0 0-2.53-2.49zm12.14-7.08A2.53 2.53 0 1 0 35.43 38a2.53 2.53 0 0 0-2.53-2.57zm-6.07 0A2.53 2.53 0 1 0 29.35 38a2.53 2.53 0 0 0-2.53-2.57zm6.07-7.09a2.53 2.53 0 1 0 2.53 2.53 2.53 2.53 0 0 0-2.53-2.53zm0-7.09a2.53 2.53 0 1 0 2.53 2.53 2.53 2.53 0 0 0-2.53-2.52zm-6.07 0a2.53 2.53 0 1 0 2.53 2.53 2.53 2.53 0 0 0-2.54-2.52zm6.07-7.09a2.53 2.53 0 1 0 2.53 2.53 2.53 2.53 0 0 0-2.53-2.52zm-6.07 0a2.53 2.53 0 1 0 2.53 2.53 2.53 2.53 0 0 0-2.54-2.52zm-6.07 0a2.53 2.53 0 1 0 2.53 2.53 2.53 2.53 0 0 0-2.54-2.52zM32.9 7.09a2.53 2.53 0 1 0 2.53 2.53 2.53 2.53 0 0 0-2.53-2.53zm-6.07 0a2.53 2.53 0 1 0 2.53 2.53 2.53 2.53 0 0 0-2.54-2.53zm-6.07 0a2.53 2.53 0 1 0 2.53 2.53 2.53 2.53 0 0 0-2.54-2.53zM32.9 0a2.53 2.53 0 1 0 2.53 2.53A2.53 2.53 0 0 0 32.9 0zm-6.08 0a2.53 2.53 0 1 0 2.53 2.53A2.53 2.53 0 0 0 26.82 0zm-6.07 0a2.53 2.53 0 1 0 2.53 2.53A2.53 2.53 0 0 0 20.75 0zm-6.07 77.94a2.53 2.53 0 1 0 2.53 2.53 2.53 2.53 0 0 0-2.53-2.53zm0-7.09a2.53 2.53 0 1 0 2.53 2.53 2.53 2.53 0 0 0-2.53-2.53zm0-7.09a2.53 2.53 0 1 0 2.53 2.53 2.53 2.53 0 0 0-2.53-2.52zm0-7.09a2.53 2.53 0 1 0 2.53 2.53 2.53 2.53 0 0 0-2.53-2.52zm-6.07 0a2.53 2.53 0 1 0 2.53 2.53 2.53 2.53 0 0 0-2.54-2.52zm6.07-7.09a2.53 2.53 0 1 0 2.53 2.53 2.53 2.53 0 0 0-2.53-2.51zm-6.07 0a2.53 2.53 0 1 0 2.53 2.53A2.53 2.53 0 0 0 8.6 49.6zm-6.07 0a2.53 2.53 0 1 0 2.53 2.53 2.53 2.53 0 0 0-2.54-2.51zm12.15-7.09A2.53 2.53 0 1 0 17.21 45a2.53 2.53 0 0 0-2.53-2.49zm-6.07 0A2.53 2.53 0 1 0 11.13 45a2.53 2.53 0 0 0-2.53-2.49zm-6.07 0A2.53 2.53 0 1 0 5.06 45a2.53 2.53 0 0 0-2.53-2.49zM14.7 35.4a2.53 2.53 0 1 0 2.51 2.6 2.53 2.53 0 0 0-2.53-2.57zm-6.07 0a2.53 2.53 0 1 0 2.5 2.6 2.53 2.53 0 0 0-2.53-2.57zm-6.07 0a2.53 2.53 0 1 0 2.5 2.6 2.53 2.53 0 0 0-2.53-2.57zm6.04-7.06a2.53 2.53 0 1 0 2.53 2.53 2.53 2.53 0 0 0-2.53-2.53zm-6.07 0a2.53 2.53 0 1 0 2.53 2.53 2.53 2.53 0 0 0-2.53-2.53zm12.15-7.09a2.53 2.53 0 1 0 2.53 2.53 2.53 2.53 0 0 0-2.53-2.52zm-6.07 0a2.53 2.53 0 1 0 2.53 2.53 2.53 2.53 0 0 0-2.54-2.52zm-6.07 0a2.53 2.53 0 1 0 2.53 2.53 2.53 2.53 0 0 0-2.54-2.52zm12.15-7.09a2.53 2.53 0 1 0 2.53 2.53 2.53 2.53 0 0 0-2.54-2.52zm-6.07 0a2.53 2.53 0 1 0 2.53 2.53 2.53 2.53 0 0 0-2.55-2.52zm-6.07 0a2.53 2.53 0 1 0 2.51 2.54 2.53 2.53 0 0 0-2.53-2.53zm12.13-7.07a2.53 2.53 0 1 0 2.53 2.53 2.53 2.53 0 0 0-2.53-2.53zm-6.07 0a2.53 2.53 0 1 0 2.53 2.53A2.53 2.53 0 0 0 8.6 7.09zm-6.07 0a2.53 2.53 0 1 0 2.52 2.53 2.53 2.53 0 0 0-2.53-2.53zM14.68 0a2.53 2.53 0 1 0 2.53 2.53A2.53 2.53 0 0 0 14.68 0zM8.6 0a2.53 2.53 0 1 0 2.53 2.53A2.53 2.53 0 0 0 8.6 0z"/></symbol><symbol id="icon-platform_ico3" viewBox="0 0 89 61"><path class="cls-1" d="M80.5 56a2.5 2.5 0 1 0 2.5 2.5 2.5 2.5 0 0 0-2.5-2.5zm-6 0a2.5 2.5 0 1 0 2.5 2.5 2.5 2.5 0 0 0-2.5-2.5zm12-7a2.5 2.5 0 1 0 2.5 2.5 2.5 2.5 0 0 0-2.5-2.5zm-6 0a2.5 2.5 0 1 0 2.5 2.5 2.5 2.5 0 0 0-2.5-2.5zm-6 0a2.5 2.5 0 1 0 2.5 2.5 2.5 2.5 0 0 0-2.5-2.5zm12-7a2.5 2.5 0 1 0 2.5 2.5 2.5 2.5 0 0 0-2.5-2.5zm-6 0a2.5 2.5 0 1 0 2.5 2.5 2.5 2.5 0 0 0-2.5-2.5zm-6 0a2.5 2.5 0 1 0 2.5 2.5 2.5 2.5 0 0 0-2.5-2.5zm12-7a2.5 2.5 0 1 0 2.5 2.5 2.5 2.5 0 0 0-2.5-2.5zm-6 0a2.5 2.5 0 1 0 2.5 2.5 2.5 2.5 0 0 0-2.5-2.5zm-6 0a2.5 2.5 0 1 0 2.5 2.5 2.5 2.5 0 0 0-2.5-2.5zm12-7a2.5 2.5 0 1 0 2.5 2.5 2.5 2.5 0 0 0-2.5-2.5zm-24 0a2.5 2.5 0 1 0 2.5 2.5 2.5 2.5 0 0 0-2.5-2.5zm6 0a2.5 2.5 0 1 0 2.5 2.5 2.5 2.5 0 0 0-2.5-2.5zm6 0a2.5 2.5 0 1 0 2.5 2.5 2.5 2.5 0 0 0-2.5-2.5zm6 0a2.5 2.5 0 1 0 2.5 2.5 2.5 2.5 0 0 0-2.5-2.5zm6-7a2.5 2.5 0 1 0 2.5 2.5 2.5 2.5 0 0 0-2.5-2.5zm-6 0a2.5 2.5 0 1 0 2.5 2.5 2.5 2.5 0 0 0-2.5-2.5zm-12 0a2.5 2.5 0 1 0 2.5 2.5 2.5 2.5 0 0 0-2.5-2.5zm6 0a2.5 2.5 0 1 0 2.5 2.5 2.5 2.5 0 0 0-2.5-2.5zm12-7a2.5 2.5 0 1 0 2.5 2.5 2.5 2.5 0 0 0-2.5-2.5zm-6 0a2.5 2.5 0 1 0 2.5 2.5 2.5 2.5 0 0 0-2.5-2.5zm-6 0a2.5 2.5 0 1 0 2.5 2.5 2.5 2.5 0 0 0-2.5-2.5zm12-2A2.5 2.5 0 1 0 84 9.5a2.5 2.5 0 0 0 2.5 2.5zm-6-5A2.5 2.5 0 1 0 83 9.5 2.5 2.5 0 0 0 80.5 7zm-6-7A2.5 2.5 0 1 0 77 2.5 2.5 2.5 0 0 0 74.5 0zm-6 56a2.5 2.5 0 1 0 2.5 2.5 2.5 2.5 0 0 0-2.5-2.5zm-6 0a2.5 2.5 0 1 0 2.5 2.5 2.5 2.5 0 0 0-2.5-2.5zm-6 0a2.5 2.5 0 1 0 2.5 2.5 2.5 2.5 0 0 0-2.5-2.5zm12-7a2.5 2.5 0 1 0 2.5 2.5 2.5 2.5 0 0 0-2.5-2.5zm-6 0a2.5 2.5 0 1 0 2.5 2.5 2.5 2.5 0 0 0-2.5-2.5zm-6 0a2.5 2.5 0 1 0 2.5 2.5 2.5 2.5 0 0 0-2.5-2.5zm12-14a2.5 2.5 0 1 0 2.5 2.5 2.5 2.5 0 0 0-2.5-2.5zm0 7a2.5 2.5 0 1 0 2.5 2.5 2.5 2.5 0 0 0-2.5-2.5zm-6 0a2.5 2.5 0 1 0 2.5 2.5 2.5 2.5 0 0 0-2.5-2.5zm-6 0a2.5 2.5 0 1 0 2.5 2.5 2.5 2.5 0 0 0-2.5-2.5zm6-7a2.5 2.5 0 1 0 2.5 2.5 2.5 2.5 0 0 0-2.5-2.5zm-6 0a2.5 2.5 0 1 0 2.5 2.5 2.5 2.5 0 0 0-2.5-2.5zm0-14a2.5 2.5 0 1 0 2.5 2.5 2.5 2.5 0 0 0-2.5-2.5zm6-7a2.5 2.5 0 1 0 2.5 2.5 2.5 2.5 0 0 0-2.5-2.5zm-6 0a2.5 2.5 0 1 0 2.5 2.5 2.5 2.5 0 0 0-2.5-2.5zm12-7A2.5 2.5 0 1 0 71 9.5 2.5 2.5 0 0 0 68.5 7zm-6 0A2.5 2.5 0 1 0 65 9.5 2.5 2.5 0 0 0 62.5 7zm-6 0A2.5 2.5 0 1 0 59 9.5 2.5 2.5 0 0 0 56.5 7zm12-7A2.5 2.5 0 1 0 71 2.5 2.5 2.5 0 0 0 68.5 0zm-6 0A2.5 2.5 0 1 0 65 2.5 2.5 2.5 0 0 0 62.5 0zm-6 0A2.5 2.5 0 1 0 59 2.5 2.5 2.5 0 0 0 56.5 0zm-6 56a2.5 2.5 0 1 0 2.5 2.5 2.5 2.5 0 0 0-2.5-2.5zm-6 0a2.5 2.5 0 1 0 2.5 2.5 2.5 2.5 0 0 0-2.5-2.5zm-6 0a2.5 2.5 0 1 0 2.5 2.5 2.5 2.5 0 0 0-2.5-2.5zm12-7a2.5 2.5 0 1 0 2.5 2.5 2.5 2.5 0 0 0-2.5-2.5zm-6 0a2.5 2.5 0 1 0 2.5 2.5 2.5 2.5 0 0 0-2.5-2.5zm-6 0a2.5 2.5 0 1 0 2.5 2.5 2.5 2.5 0 0 0-2.5-2.5zm12-7a2.5 2.5 0 1 0 2.5 2.5 2.5 2.5 0 0 0-2.5-2.5zm-12 0a2.5 2.5 0 1 0 2.5 2.5 2.5 2.5 0 0 0-2.5-2.5zm12-14a2.5 2.5 0 1 0 2.5 2.5 2.5 2.5 0 0 0-2.5-2.5zm0-7a2.5 2.5 0 1 0 2.5 2.5 2.5 2.5 0 0 0-2.5-2.5zm-12 7a2.5 2.5 0 1 0 2.5 2.5 2.5 2.5 0 0 0-2.5-2.5zm0-7a2.5 2.5 0 1 0 2.5 2.5 2.5 2.5 0 0 0-2.5-2.5zm12-7a2.5 2.5 0 1 0 2.5 2.5 2.5 2.5 0 0 0-2.5-2.5zm-6 14a2.5 2.5 0 1 0 2.5 2.5 2.5 2.5 0 0 0-2.5-2.5zm0-7a2.5 2.5 0 1 0 2.5 2.5 2.5 2.5 0 0 0-2.5-2.5zm0-7a2.5 2.5 0 1 0 2.5 2.5 2.5 2.5 0 0 0-2.5-2.5zm-6 0a2.5 2.5 0 1 0 2.5 2.5 2.5 2.5 0 0 0-2.5-2.5zm12-7A2.5 2.5 0 1 0 53 9.5 2.5 2.5 0 0 0 50.5 7zm-6 0A2.5 2.5 0 1 0 47 9.5 2.5 2.5 0 0 0 44.5 7zm-6 0A2.5 2.5 0 1 0 41 9.5 2.5 2.5 0 0 0 38.5 7zm12-7A2.5 2.5 0 1 0 53 2.5 2.5 2.5 0 0 0 50.5 0zm-6 0A2.5 2.5 0 1 0 47 2.5 2.5 2.5 0 0 0 44.5 0zm-6 0A2.5 2.5 0 1 0 41 2.5 2.5 2.5 0 0 0 38.5 0zm-6 56a2.5 2.5 0 1 0 2.5 2.5 2.5 2.5 0 0 0-2.5-2.5zm-6 0a2.5 2.5 0 1 0 2.5 2.5 2.5 2.5 0 0 0-2.5-2.5zm-6 0a2.5 2.5 0 1 0 2.5 2.5 2.5 2.5 0 0 0-2.5-2.5zm12-7a2.5 2.5 0 1 0 2.5 2.5 2.5 2.5 0 0 0-2.5-2.5zm-6 0a2.5 2.5 0 1 0 2.5 2.5 2.5 2.5 0 0 0-2.5-2.5zm-6 0a2.5 2.5 0 1 0 2.5 2.5 2.5 2.5 0 0 0-2.5-2.5zm12-7a2.5 2.5 0 1 0 2.5 2.5 2.5 2.5 0 0 0-2.5-2.5zm-6 0a2.5 2.5 0 1 0 2.5 2.5 2.5 2.5 0 0 0-2.5-2.5zm-6-7a2.5 2.5 0 1 0 2.5 2.5 2.5 2.5 0 0 0-2.5-2.5zm0 7a2.5 2.5 0 1 0 2.5 2.5 2.5 2.5 0 0 0-2.5-2.5zm12-7a2.5 2.5 0 1 0 2.5 2.5 2.5 2.5 0 0 0-2.5-2.5zm-6 0a2.5 2.5 0 1 0 2.5 2.5 2.5 2.5 0 0 0-2.5-2.5zm6-14a2.5 2.5 0 1 0 2.5 2.5 2.5 2.5 0 0 0-2.5-2.5zm0-7a2.5 2.5 0 1 0 2.5 2.5 2.5 2.5 0 0 0-2.5-2.5zm-6 0a2.5 2.5 0 1 0 2.5 2.5 2.5 2.5 0 0 0-2.5-2.5zm6-7A2.5 2.5 0 1 0 35 9.5 2.5 2.5 0 0 0 32.5 7zm-6 0A2.5 2.5 0 1 0 29 9.5 2.5 2.5 0 0 0 26.5 7zm-6 0A2.5 2.5 0 1 0 23 9.5 2.5 2.5 0 0 0 20.5 7zm12-7A2.5 2.5 0 1 0 35 2.5 2.5 2.5 0 0 0 32.5 0zm-6 0A2.5 2.5 0 1 0 29 2.5 2.5 2.5 0 0 0 26.5 0zm-6 0A2.5 2.5 0 1 0 23 2.5 2.5 2.5 0 0 0 20.5 0zm-6 56a2.5 2.5 0 1 0 2.5 2.5 2.5 2.5 0 0 0-2.5-2.5zm-6 0a2.5 2.5 0 1 0 2.5 2.5A2.5 2.5 0 0 0 8.5 56zm6-7a2.5 2.5 0 1 0 2.5 2.5 2.5 2.5 0 0 0-2.5-2.5zm-6 0a2.5 2.5 0 1 0 2.5 2.5A2.5 2.5 0 0 0 8.5 49zm-6 0A2.5 2.5 0 1 0 5 51.5 2.5 2.5 0 0 0 2.5 49zm12-7a2.5 2.5 0 1 0 2.5 2.5 2.5 2.5 0 0 0-2.5-2.5zm-6 0a2.5 2.5 0 1 0 2.5 2.5A2.5 2.5 0 0 0 8.5 42zm-6 0A2.5 2.5 0 1 0 5 44.5 2.5 2.5 0 0 0 2.5 42zm12-7a2.5 2.5 0 1 0 2.5 2.5 2.5 2.5 0 0 0-2.5-2.5zm-6 0a2.5 2.5 0 1 0 2.5 2.5A2.5 2.5 0 0 0 8.5 35zm-6 0A2.5 2.5 0 1 0 5 37.5 2.5 2.5 0 0 0 2.5 35zm24-7a2.5 2.5 0 1 0 2.5 2.5 2.5 2.5 0 0 0-2.5-2.5zm-6 0a2.5 2.5 0 1 0 2.5 2.5 2.5 2.5 0 0 0-2.5-2.5zm-6 0a2.5 2.5 0 1 0 2.5 2.5 2.5 2.5 0 0 0-2.5-2.5zm-6 0a2.5 2.5 0 1 0 2.5 2.5A2.5 2.5 0 0 0 8.5 28zm-6 0A2.5 2.5 0 1 0 5 30.5 2.5 2.5 0 0 0 2.5 28zm18-7a2.5 2.5 0 1 0 2.5 2.5 2.5 2.5 0 0 0-2.5-2.5zm-6 0a2.5 2.5 0 1 0 2.5 2.5 2.5 2.5 0 0 0-2.5-2.5zm-6 0a2.5 2.5 0 1 0 2.5 2.5A2.5 2.5 0 0 0 8.5 21zm-6 0A2.5 2.5 0 1 0 5 23.5 2.5 2.5 0 0 0 2.5 21zm12-7a2.5 2.5 0 1 0 2.5 2.5 2.5 2.5 0 0 0-2.5-2.5zm-6 0a2.5 2.5 0 1 0 2.5 2.5A2.5 2.5 0 0 0 8.5 14zm-6 0A2.5 2.5 0 1 0 5 16.5 2.5 2.5 0 0 0 2.5 14zm6-7A2.5 2.5 0 1 0 11 9.5 2.5 2.5 0 0 0 8.5 7zm-6 0A2.5 2.5 0 1 0 5 9.5 2.5 2.5 0 0 0 2.5 7zm12-7A2.5 2.5 0 1 0 17 2.5 2.5 2.5 0 0 0 14.5 0z"/></symbol><symbol id="icon-play" viewBox="0 0 17 20"><path d="M17 10L0 20V0l17 10z"/></symbol><symbol id="icon-vintage-logo" viewBox="0 0 84.1 115.5"><style>.st0{fill:#000}</style><path d="M21.7 0H0l5.1 19.8h21.5z"/><path d="M63.2 0L33.7 115.5h21L84.1 0z"/></symbol></svg>