<?xml version="1.0" encoding="utf-8"?>
<!-- Generator: Adobe Illustrator 21.1.0, SVG Export Plug-In . SVG Version: 6.00 Build 0)  -->
<svg version="1.1" id="Layer_1" xmlns="http://www.w3.org/2000/svg" xmlns:xlink="http://www.w3.org/1999/xlink" x="0px" y="0px"
	 viewBox="0 0 305.5 103" style="enable-background:new 0 0 305.5 103;" xml:space="preserve">
<g>
	<path d="M272.1,98.6c-1.2,0-2.2,1-2.2,2.2s1,2.2,2.2,2.2s2.2-1,2.2-2.2C274.3,99.6,273.3,98.6,272.1,98.6z M272.1,93.4
		c-1.2,0-2.2,1-2.2,2.2s1,2.2,2.2,2.2s2.2-1,2.2-2.2S273.3,93.4,272.1,93.4z M272.1,88.2c-1.2,0-2.2,1-2.2,2.2s1,2.2,2.2,2.2
		s2.2-1,2.2-2.2C274.3,89.2,273.3,88.2,272.1,88.2z M272.1,83c-1.2,0-2.2,1-2.2,2.2s1,2.2,2.2,2.2s2.2-1,2.2-2.2S273.3,83,272.1,83z
		 M272.1,77.8c-1.2,0-2.2,1-2.2,2.2s1,2.2,2.2,2.2s2.2-1,2.2-2.2S273.3,77.8,272.1,77.8z M272.1,57.1c-1.2,0-2.2,1-2.2,2.2
		s1,2.2,2.2,2.2s2.2-1,2.2-2.2C274.3,58,273.3,57.1,272.1,57.1z M272.1,51.9c-1.2,0-2.2,1-2.2,2.2s1,2.2,2.2,2.2s2.2-1,2.2-2.2
		C274.3,52.9,273.3,51.9,272.1,51.9z M272.1,46.7c-1.2,0-2.2,1-2.2,2.2s1,2.2,2.2,2.2s2.2-1,2.2-2.2S273.3,46.7,272.1,46.7z
		 M272.1,41.5c-1.2,0-2.2,1-2.2,2.2c0,1.2,1,2.2,2.2,2.2s2.2-1,2.2-2.2C274.3,42.5,273.3,41.5,272.1,41.5z M272.1,36.3
		c-1.2,0-2.2,1-2.2,2.2s1,2.2,2.2,2.2s2.2-1,2.2-2.2S273.3,36.3,272.1,36.3z M272.1,31.1c-1.2,0-2.2,1-2.2,2.2s1,2.2,2.2,2.2
		s2.2-1,2.2-2.2S273.3,31.1,272.1,31.1z M272.1,25.9c-1.2,0-2.2,1-2.2,2.2s1,2.2,2.2,2.2s2.2-1,2.2-2.2S273.3,25.9,272.1,25.9z
		 M277.3,98.6c-1.2,0-2.2,1-2.2,2.2s1,2.2,2.2,2.2s2.2-1,2.2-2.2S278.5,98.6,277.3,98.6z M277.3,93.4c-1.2,0-2.2,1-2.2,2.2
		s1,2.2,2.2,2.2s2.2-1,2.2-2.2S278.5,93.4,277.3,93.4z M277.3,88.2c-1.2,0-2.2,1-2.2,2.2s1,2.2,2.2,2.2s2.2-1,2.2-2.2
		S278.5,88.2,277.3,88.2z M277.3,83c-1.2,0-2.2,1-2.2,2.2s1,2.2,2.2,2.2s2.2-1,2.2-2.2S278.5,83,277.3,83z M277.3,77.8
		c-1.2,0-2.2,1-2.2,2.2s1,2.2,2.2,2.2s2.2-1,2.2-2.2S278.5,77.8,277.3,77.8z M292.9,72.6c-1.2,0-2.2,1-2.2,2.2s1,2.2,2.2,2.2
		s2.2-1,2.2-2.2C295,73.6,294.1,72.6,292.9,72.6z M292.9,67.5c-1.2,0-2.2,1-2.2,2.2s1,2.2,2.2,2.2s2.2-1,2.2-2.2
		C295,68.4,294.1,67.5,292.9,67.5z M292.9,62.3c-1.2,0-2.2,1-2.2,2.2c0,1.2,1,2.2,2.2,2.2s2.2-1,2.2-2.2
		C295,63.2,294.1,62.3,292.9,62.3z M298.1,72.6c-1.2,0-2.2,1-2.2,2.2s1,2.2,2.2,2.2s2.2-1,2.2-2.2C300.2,73.6,299.3,72.6,298.1,72.6
		z M298.1,67.5c-1.2,0-2.2,1-2.2,2.2s1,2.2,2.2,2.2s2.2-1,2.2-2.2C300.2,68.4,299.3,67.5,298.1,67.5z M298.1,62.3
		c-1.2,0-2.2,1-2.2,2.2c0,1.2,1,2.2,2.2,2.2s2.2-1,2.2-2.2C300.2,63.2,299.3,62.3,298.1,62.3z M303.3,72.6c-1.2,0-2.2,1-2.2,2.2
		s1,2.2,2.2,2.2s2.2-1,2.2-2.2C305.4,73.6,304.5,72.6,303.3,72.6z M303.3,67.5c-1.2,0-2.2,1-2.2,2.2s1,2.2,2.2,2.2s2.2-1,2.2-2.2
		C305.4,68.4,304.5,67.5,303.3,67.5z M303.3,66.6c1.2,0,2.2-1,2.2-2.2c0-1.2-1-2.2-2.2-2.2s-2.2,1-2.2,2.2
		C301.1,65.6,302.1,66.6,303.3,66.6z M277.3,72.6c-1.2,0-2.2,1-2.2,2.2s1,2.2,2.2,2.2s2.2-1,2.2-2.2S278.5,72.6,277.3,72.6z
		 M277.3,67.5c-1.2,0-2.2,1-2.2,2.2s1,2.2,2.2,2.2s2.2-1,2.2-2.2C279.5,68.4,278.5,67.5,277.3,67.5z M277.3,62.3
		c-1.2,0-2.2,1-2.2,2.2c0,1.2,1,2.2,2.2,2.2s2.2-1,2.2-2.2C279.5,63.2,278.5,62.3,277.3,62.3z M277.3,57.1c-1.2,0-2.2,1-2.2,2.2
		s1,2.2,2.2,2.2s2.2-1,2.2-2.2C279.5,58,278.5,57.1,277.3,57.1z M277.3,51.9c-1.2,0-2.2,1-2.2,2.2s1,2.2,2.2,2.2s2.2-1,2.2-2.2
		S278.5,51.9,277.3,51.9z M277.3,46.7c-1.2,0-2.2,1-2.2,2.2s1,2.2,2.2,2.2s2.2-1,2.2-2.2S278.5,46.7,277.3,46.7z M277.3,41.5
		c-1.2,0-2.2,1-2.2,2.2c0,1.2,1,2.2,2.2,2.2s2.2-1,2.2-2.2C279.5,42.5,278.5,41.5,277.3,41.5z M277.3,36.3c-1.2,0-2.2,1-2.2,2.2
		s1,2.2,2.2,2.2s2.2-1,2.2-2.2S278.5,36.3,277.3,36.3z M277.3,31.1c-1.2,0-2.2,1-2.2,2.2s1,2.2,2.2,2.2s2.2-1,2.2-2.2
		S278.5,31.1,277.3,31.1z M277.3,25.9c-1.2,0-2.2,1-2.2,2.2s1,2.2,2.2,2.2s2.2-1,2.2-2.2S278.5,25.9,277.3,25.9z M282.5,98.6
		c-1.2,0-2.2,1-2.2,2.2s1,2.2,2.2,2.2s2.2-1,2.2-2.2S283.7,98.6,282.5,98.6z M282.5,93.4c-1.2,0-2.2,1-2.2,2.2s1,2.2,2.2,2.2
		s2.2-1,2.2-2.2S283.7,93.4,282.5,93.4z M282.5,88.2c-1.2,0-2.2,1-2.2,2.2s1,2.2,2.2,2.2s2.2-1,2.2-2.2S283.7,88.2,282.5,88.2z
		 M282.5,83c-1.2,0-2.2,1-2.2,2.2s1,2.2,2.2,2.2s2.2-1,2.2-2.2S283.7,83,282.5,83z M282.5,77.8c-1.2,0-2.2,1-2.2,2.2s1,2.2,2.2,2.2
		s2.2-1,2.2-2.2S283.7,77.8,282.5,77.8z M282.5,72.6c-1.2,0-2.2,1-2.2,2.2s1,2.2,2.2,2.2s2.2-1,2.2-2.2S283.7,72.6,282.5,72.6z
		 M282.5,67.5c-1.2,0-2.2,1-2.2,2.2s1,2.2,2.2,2.2s2.2-1,2.2-2.2C284.7,68.4,283.7,67.5,282.5,67.5z M282.5,62.3
		c-1.2,0-2.2,1-2.2,2.2c0,1.2,1,2.2,2.2,2.2s2.2-1,2.2-2.2C284.7,63.2,283.7,62.3,282.5,62.3z M282.5,57.1c-1.2,0-2.2,1-2.2,2.2
		s1,2.2,2.2,2.2s2.2-1,2.2-2.2C284.7,58,283.7,57.1,282.5,57.1z M282.5,51.9c-1.2,0-2.2,1-2.2,2.2s1,2.2,2.2,2.2s2.2-1,2.2-2.2
		S283.7,51.9,282.5,51.9z M282.5,46.7c-1.2,0-2.2,1-2.2,2.2s1,2.2,2.2,2.2s2.2-1,2.2-2.2S283.7,46.7,282.5,46.7z M282.5,41.5
		c-1.2,0-2.2,1-2.2,2.2c0,1.2,1,2.2,2.2,2.2s2.2-1,2.2-2.2C284.7,42.5,283.7,41.5,282.5,41.5z M282.5,36.3c-1.2,0-2.2,1-2.2,2.2
		s1,2.2,2.2,2.2s2.2-1,2.2-2.2S283.7,36.3,282.5,36.3z M282.5,31.1c-1.2,0-2.2,1-2.2,2.2s1,2.2,2.2,2.2s2.2-1,2.2-2.2
		S283.7,31.1,282.5,31.1z M282.5,25.9c-1.2,0-2.2,1-2.2,2.2s1,2.2,2.2,2.2s2.2-1,2.2-2.2S283.7,25.9,282.5,25.9z M287.7,98.6
		c-1.2,0-2.2,1-2.2,2.2s1,2.2,2.2,2.2s2.2-1,2.2-2.2C289.9,99.6,288.9,98.6,287.7,98.6z M287.7,93.4c-1.2,0-2.2,1-2.2,2.2
		s1,2.2,2.2,2.2s2.2-1,2.2-2.2S288.9,93.4,287.7,93.4z M287.7,88.2c-1.2,0-2.2,1-2.2,2.2s1,2.2,2.2,2.2s2.2-1,2.2-2.2
		C289.9,89.2,288.9,88.2,287.7,88.2z M287.7,83c-1.2,0-2.2,1-2.2,2.2s1,2.2,2.2,2.2s2.2-1,2.2-2.2S288.9,83,287.7,83z M287.7,77.8
		c-1.2,0-2.2,1-2.2,2.2s1,2.2,2.2,2.2s2.2-1,2.2-2.2S288.9,77.8,287.7,77.8z M287.7,72.6c-1.2,0-2.2,1-2.2,2.2s1,2.2,2.2,2.2
		s2.2-1,2.2-2.2C289.9,73.6,288.9,72.6,287.7,72.6z M287.7,67.5c-1.2,0-2.2,1-2.2,2.2s1,2.2,2.2,2.2s2.2-1,2.2-2.2
		C289.9,68.4,288.9,67.5,287.7,67.5z M287.7,62.3c-1.2,0-2.2,1-2.2,2.2c0,1.2,1,2.2,2.2,2.2s2.2-1,2.2-2.2
		C289.9,63.2,288.9,62.3,287.7,62.3z M287.7,57.1c-1.2,0-2.2,1-2.2,2.2s1,2.2,2.2,2.2s2.2-1,2.2-2.2C289.9,58,288.9,57.1,287.7,57.1
		z M287.7,51.9c-1.2,0-2.2,1-2.2,2.2s1,2.2,2.2,2.2s2.2-1,2.2-2.2C289.9,52.9,288.9,51.9,287.7,51.9z M287.7,46.7
		c-1.2,0-2.2,1-2.2,2.2s1,2.2,2.2,2.2s2.2-1,2.2-2.2S288.9,46.7,287.7,46.7z M287.7,41.5c-1.2,0-2.2,1-2.2,2.2c0,1.2,1,2.2,2.2,2.2
		s2.2-1,2.2-2.2C289.9,42.5,288.9,41.5,287.7,41.5z M287.7,36.3c-1.2,0-2.2,1-2.2,2.2s1,2.2,2.2,2.2s2.2-1,2.2-2.2
		S288.9,36.3,287.7,36.3z M287.7,31.1c-1.2,0-2.2,1-2.2,2.2s1,2.2,2.2,2.2s2.2-1,2.2-2.2S288.9,31.1,287.7,31.1z M287.7,25.9
		c-1.2,0-2.2,1-2.2,2.2s1,2.2,2.2,2.2s2.2-1,2.2-2.2S288.9,25.9,287.7,25.9z M287.7,20.7c-1.2,0-2.2,1-2.2,2.2s1,2.2,2.2,2.2
		s2.2-1,2.2-2.2C289.9,21.7,288.9,20.7,287.7,20.7z M282.5,20.7c-1.2,0-2.2,1-2.2,2.2s1,2.2,2.2,2.2s2.2-1,2.2-2.2
		S283.7,20.7,282.5,20.7z M277.3,20.7c-1.2,0-2.2,1-2.2,2.2s1,2.2,2.2,2.2s2.2-1,2.2-2.2S278.5,20.7,277.3,20.7z M272.1,20.7
		c-1.2,0-2.2,1-2.2,2.2s1,2.2,2.2,2.2s2.2-1,2.2-2.2C274.3,21.7,273.3,20.7,272.1,20.7z M272.1,72.6c-1.2,0-2.2,1-2.2,2.2
		s1,2.2,2.2,2.2s2.2-1,2.2-2.2C274.3,73.6,273.3,72.6,272.1,72.6z M266.9,72.6c-1.2,0-2.2,1-2.2,2.2s1,2.2,2.2,2.2s2.2-1,2.2-2.2
		S268.1,72.6,266.9,72.6z M272.1,67.5c-1.2,0-2.2,1-2.2,2.2s1,2.2,2.2,2.2s2.2-1,2.2-2.2C274.3,68.4,273.3,67.5,272.1,67.5z
		 M266.9,67.5c-1.2,0-2.2,1-2.2,2.2s1,2.2,2.2,2.2s2.2-1,2.2-2.2C269.1,68.4,268.1,67.5,266.9,67.5z M272.1,62.3
		c-1.2,0-2.2,1-2.2,2.2c0,1.2,1,2.2,2.2,2.2s2.2-1,2.2-2.2C274.3,63.2,273.3,62.3,272.1,62.3z M266.9,62.3c-1.2,0-2.2,1-2.2,2.2
		c0,1.2,1,2.2,2.2,2.2s2.2-1,2.2-2.2C269.1,63.2,268.1,62.3,266.9,62.3z M261.7,72.6c-1.2,0-2.2,1-2.2,2.2s1,2.2,2.2,2.2
		s2.2-1,2.2-2.2C263.9,73.6,262.9,72.6,261.7,72.6z M256.6,72.6c-1.2,0-2.2,1-2.2,2.2s1,2.2,2.2,2.2s2.2-1,2.2-2.2
		C258.7,73.6,257.7,72.6,256.6,72.6z M246.2,72.6c-1.2,0-2.2,1-2.2,2.2s1,2.2,2.2,2.2s2.2-1,2.2-2.2
		C248.3,73.6,247.4,72.6,246.2,72.6z M251.4,72.6c-1.2,0-2.2,1-2.2,2.2s1,2.2,2.2,2.2s2.2-1,2.2-2.2
		C253.5,73.6,252.6,72.6,251.4,72.6z M241,72.6c-1.2,0-2.2,1-2.2,2.2s1,2.2,2.2,2.2s2.2-1,2.2-2.2C243.1,73.6,242.2,72.6,241,72.6z
		 M261.7,67.5c-1.2,0-2.2,1-2.2,2.2s1,2.2,2.2,2.2s2.2-1,2.2-2.2C263.9,68.4,262.9,67.5,261.7,67.5z M256.6,67.5
		c-1.2,0-2.2,1-2.2,2.2s1,2.2,2.2,2.2s2.2-1,2.2-2.2C258.7,68.4,257.7,67.5,256.6,67.5z M246.2,67.5c-1.2,0-2.2,1-2.2,2.2
		s1,2.2,2.2,2.2s2.2-1,2.2-2.2C248.3,68.4,247.4,67.5,246.2,67.5z M251.4,67.5c-1.2,0-2.2,1-2.2,2.2s1,2.2,2.2,2.2s2.2-1,2.2-2.2
		C253.5,68.4,252.6,67.5,251.4,67.5z M241,67.5c-1.2,0-2.2,1-2.2,2.2s1,2.2,2.2,2.2s2.2-1,2.2-2.2C243.1,68.4,242.2,67.5,241,67.5z
		 M261.7,62.3c-1.2,0-2.2,1-2.2,2.2c0,1.2,1,2.2,2.2,2.2s2.2-1,2.2-2.2C263.9,63.2,262.9,62.3,261.7,62.3z M256.6,62.3
		c-1.2,0-2.2,1-2.2,2.2c0,1.2,1,2.2,2.2,2.2s2.2-1,2.2-2.2C258.7,63.2,257.7,62.3,256.6,62.3z M246.2,62.3c-1.2,0-2.2,1-2.2,2.2
		c0,1.2,1,2.2,2.2,2.2s2.2-1,2.2-2.2C248.3,63.2,247.4,62.3,246.2,62.3z M251.4,62.3c-1.2,0-2.2,1-2.2,2.2c0,1.2,1,2.2,2.2,2.2
		s2.2-1,2.2-2.2C253.5,63.2,252.6,62.3,251.4,62.3z M241,62.3c-1.2,0-2.2,1-2.2,2.2c0,1.2,1,2.2,2.2,2.2s2.2-1,2.2-2.2
		C243.1,63.2,242.2,62.3,241,62.3z M235.8,72.6c-1.2,0-2.2,1-2.2,2.2s1,2.2,2.2,2.2s2.2-1,2.2-2.2S237,72.6,235.8,72.6z M230.6,72.6
		c-1.2,0-2.2,1-2.2,2.2s1,2.2,2.2,2.2s2.2-1,2.2-2.2C232.8,73.6,231.8,72.6,230.6,72.6z M220.2,72.6c-1.2,0-2.2,1-2.2,2.2
		s1,2.2,2.2,2.2s2.2-1,2.2-2.2S221.4,72.6,220.2,72.6z M225.4,72.6c-1.2,0-2.2,1-2.2,2.2s1,2.2,2.2,2.2c1.2,0,2.2-1,2.2-2.2
		S226.6,72.6,225.4,72.6z M215,72.6c-1.2,0-2.2,1-2.2,2.2s1,2.2,2.2,2.2s2.2-1,2.2-2.2S216.2,72.6,215,72.6z M235.8,67.5
		c-1.2,0-2.2,1-2.2,2.2s1,2.2,2.2,2.2s2.2-1,2.2-2.2C238,68.4,237,67.5,235.8,67.5z M230.6,67.5c-1.2,0-2.2,1-2.2,2.2s1,2.2,2.2,2.2
		s2.2-1,2.2-2.2C232.8,68.4,231.8,67.5,230.6,67.5z M220.2,67.5c-1.2,0-2.2,1-2.2,2.2s1,2.2,2.2,2.2s2.2-1,2.2-2.2
		C222.4,68.4,221.4,67.5,220.2,67.5z M225.4,67.5c-1.2,0-2.2,1-2.2,2.2s1,2.2,2.2,2.2c1.2,0,2.2-1,2.2-2.2
		C227.6,68.4,226.6,67.5,225.4,67.5z M215,67.5c-1.2,0-2.2,1-2.2,2.2s1,2.2,2.2,2.2s2.2-1,2.2-2.2C217.2,68.4,216.2,67.5,215,67.5z
		 M235.8,62.3c-1.2,0-2.2,1-2.2,2.2c0,1.2,1,2.2,2.2,2.2s2.2-1,2.2-2.2C238,63.2,237,62.3,235.8,62.3z M230.6,62.3
		c-1.2,0-2.2,1-2.2,2.2c0,1.2,1,2.2,2.2,2.2s2.2-1,2.2-2.2C232.8,63.2,231.8,62.3,230.6,62.3z M220.2,62.3c-1.2,0-2.2,1-2.2,2.2
		c0,1.2,1,2.2,2.2,2.2s2.2-1,2.2-2.2C222.4,63.2,221.4,62.3,220.2,62.3z M225.4,62.3c-1.2,0-2.2,1-2.2,2.2c0,1.2,1,2.2,2.2,2.2
		c1.2,0,2.2-1,2.2-2.2C227.6,63.2,226.6,62.3,225.4,62.3z M215,62.3c-1.2,0-2.2,1-2.2,2.2c0,1.2,1,2.2,2.2,2.2s2.2-1,2.2-2.2
		C217.2,63.2,216.2,62.3,215,62.3z M235.8,57.1c-1.2,0-2.2,1-2.2,2.2s1,2.2,2.2,2.2s2.2-1,2.2-2.2C238,58,237,57.1,235.8,57.1z
		 M230.6,57.1c-1.2,0-2.2,1-2.2,2.2s1,2.2,2.2,2.2s2.2-1,2.2-2.2C232.8,58,231.8,57.1,230.6,57.1z M220.2,57.1c-1.2,0-2.2,1-2.2,2.2
		s1,2.2,2.2,2.2s2.2-1,2.2-2.2C222.4,58,221.4,57.1,220.2,57.1z M225.4,57.1c-1.2,0-2.2,1-2.2,2.2s1,2.2,2.2,2.2
		c1.2,0,2.2-1,2.2-2.2C227.6,58,226.6,57.1,225.4,57.1z M215,57.1c-1.2,0-2.2,1-2.2,2.2s1,2.2,2.2,2.2s2.2-1,2.2-2.2
		C217.2,58,216.2,57.1,215,57.1z M241,51.9c-1.2,0-2.2,1-2.2,2.2s1,2.2,2.2,2.2s2.2-1,2.2-2.2C243.1,52.9,242.2,51.9,241,51.9z
		 M235.8,51.9c-1.2,0-2.2,1-2.2,2.2s1,2.2,2.2,2.2s2.2-1,2.2-2.2S237,51.9,235.8,51.9z M225.4,51.9c-1.2,0-2.2,1-2.2,2.2
		s1,2.2,2.2,2.2c1.2,0,2.2-1,2.2-2.2S226.6,51.9,225.4,51.9z M230.6,51.9c-1.2,0-2.2,1-2.2,2.2s1,2.2,2.2,2.2s2.2-1,2.2-2.2
		C232.8,52.9,231.8,51.9,230.6,51.9z M246.2,46.7c-1.2,0-2.2,1-2.2,2.2s1,2.2,2.2,2.2s2.2-1,2.2-2.2S247.4,46.7,246.2,46.7z
		 M241,46.7c-1.2,0-2.2,1-2.2,2.2s1,2.2,2.2,2.2s2.2-1,2.2-2.2S242.2,46.7,241,46.7z M230.6,46.7c-1.2,0-2.2,1-2.2,2.2
		s1,2.2,2.2,2.2s2.2-1,2.2-2.2S231.8,46.7,230.6,46.7z M235.8,46.7c-1.2,0-2.2,1-2.2,2.2s1,2.2,2.2,2.2s2.2-1,2.2-2.2
		S237,46.7,235.8,46.7z M251.4,41.5c-1.2,0-2.2,1-2.2,2.2c0,1.2,1,2.2,2.2,2.2s2.2-1,2.2-2.2C253.5,42.5,252.6,41.5,251.4,41.5z
		 M246.2,41.5c-1.2,0-2.2,1-2.2,2.2c0,1.2,1,2.2,2.2,2.2s2.2-1,2.2-2.2C248.3,42.5,247.4,41.5,246.2,41.5z M235.8,41.5
		c-1.2,0-2.2,1-2.2,2.2c0,1.2,1,2.2,2.2,2.2s2.2-1,2.2-2.2C238,42.5,237,41.5,235.8,41.5z M241,41.5c-1.2,0-2.2,1-2.2,2.2
		c0,1.2,1,2.2,2.2,2.2s2.2-1,2.2-2.2C243.1,42.5,242.2,41.5,241,41.5z M256.6,36.3c-1.2,0-2.2,1-2.2,2.2s1,2.2,2.2,2.2
		s2.2-1,2.2-2.2S257.7,36.3,256.6,36.3z M251.4,36.3c-1.2,0-2.2,1-2.2,2.2s1,2.2,2.2,2.2s2.2-1,2.2-2.2S252.6,36.3,251.4,36.3z
		 M241,36.3c-1.2,0-2.2,1-2.2,2.2s1,2.2,2.2,2.2s2.2-1,2.2-2.2S242.2,36.3,241,36.3z M246.2,36.3c-1.2,0-2.2,1-2.2,2.2
		s1,2.2,2.2,2.2s2.2-1,2.2-2.2S247.4,36.3,246.2,36.3z M261.7,31.1c-1.2,0-2.2,1-2.2,2.2s1,2.2,2.2,2.2s2.2-1,2.2-2.2
		S262.9,31.1,261.7,31.1z M256.6,31.1c-1.2,0-2.2,1-2.2,2.2s1,2.2,2.2,2.2s2.2-1,2.2-2.2S257.7,31.1,256.6,31.1z M246.2,31.1
		c-1.2,0-2.2,1-2.2,2.2s1,2.2,2.2,2.2s2.2-1,2.2-2.2S247.4,31.1,246.2,31.1z M251.4,31.1c-1.2,0-2.2,1-2.2,2.2s1,2.2,2.2,2.2
		s2.2-1,2.2-2.2S252.6,31.1,251.4,31.1z M266.9,25.9c-1.2,0-2.2,1-2.2,2.2s1,2.2,2.2,2.2s2.2-1,2.2-2.2S268.1,25.9,266.9,25.9z
		 M261.7,25.9c-1.2,0-2.2,1-2.2,2.2s1,2.2,2.2,2.2s2.2-1,2.2-2.2S262.9,25.9,261.7,25.9z M220.2,51.9c-1.2,0-2.2,1-2.2,2.2
		s1,2.2,2.2,2.2s2.2-1,2.2-2.2S221.4,51.9,220.2,51.9z M225.4,46.7c-1.2,0-2.2,1-2.2,2.2s1,2.2,2.2,2.2c1.2,0,2.2-1,2.2-2.2
		S226.6,46.7,225.4,46.7z M230.6,41.5c-1.2,0-2.2,1-2.2,2.2c0,1.2,1,2.2,2.2,2.2s2.2-1,2.2-2.2C232.8,42.5,231.8,41.5,230.6,41.5z
		 M235.8,36.3c-1.2,0-2.2,1-2.2,2.2s1,2.2,2.2,2.2s2.2-1,2.2-2.2S237,36.3,235.8,36.3z M241,31.1c-1.2,0-2.2,1-2.2,2.2
		s1,2.2,2.2,2.2s2.2-1,2.2-2.2S242.2,31.1,241,31.1z M246.2,25.9c-1.2,0-2.2,1-2.2,2.2s1,2.2,2.2,2.2s2.2-1,2.2-2.2
		S247.4,25.9,246.2,25.9z M251.4,25.9c-1.2,0-2.2,1-2.2,2.2s1,2.2,2.2,2.2s2.2-1,2.2-2.2S252.6,25.9,251.4,25.9z M256.6,25.9
		c-1.2,0-2.2,1-2.2,2.2s1,2.2,2.2,2.2s2.2-1,2.2-2.2S257.7,25.9,256.6,25.9z M266.9,20.7c-1.2,0-2.2,1-2.2,2.2s1,2.2,2.2,2.2
		s2.2-1,2.2-2.2S268.1,20.7,266.9,20.7z M261.7,20.7c-1.2,0-2.2,1-2.2,2.2s1,2.2,2.2,2.2s2.2-1,2.2-2.2
		C263.9,21.7,262.9,20.7,261.7,20.7z M251.4,20.7c-1.2,0-2.2,1-2.2,2.2s1,2.2,2.2,2.2s2.2-1,2.2-2.2
		C253.5,21.7,252.6,20.7,251.4,20.7z M256.6,20.7c-1.2,0-2.2,1-2.2,2.2s1,2.2,2.2,2.2s2.2-1,2.2-2.2
		C258.7,21.7,257.7,20.7,256.6,20.7z M256.6,15.6c-1.2,0-2.2,1-2.2,2.2s1,2.2,2.2,2.2s2.2-1,2.2-2.2
		C258.7,16.5,257.7,15.6,256.6,15.6z M261.7,15.6c-1.2,0-2.2,1-2.2,2.2s1,2.2,2.2,2.2s2.2-1,2.2-2.2
		C263.9,16.5,262.9,15.6,261.7,15.6z M266.9,15.6c-1.2,0-2.2,1-2.2,2.2s1,2.2,2.2,2.2s2.2-1,2.2-2.2
		C269.1,16.5,268.1,15.6,266.9,15.6z M272.1,15.6c-1.2,0-2.2,1-2.2,2.2s1,2.2,2.2,2.2s2.2-1,2.2-2.2
		C274.3,16.5,273.3,15.6,272.1,15.6z M277.3,15.6c-1.2,0-2.2,1-2.2,2.2s1,2.2,2.2,2.2s2.2-1,2.2-2.2
		C279.5,16.5,278.5,15.6,277.3,15.6z M282.5,15.6c-1.2,0-2.2,1-2.2,2.2s1,2.2,2.2,2.2s2.2-1,2.2-2.2
		C284.7,16.5,283.7,15.6,282.5,15.6z M287.7,15.6c-1.2,0-2.2,1-2.2,2.2s1,2.2,2.2,2.2s2.2-1,2.2-2.2
		C289.9,16.5,288.9,15.6,287.7,15.6z M287.7,10.4c-1.2,0-2.2,1-2.2,2.2s1,2.2,2.2,2.2s2.2-1,2.2-2.2
		C289.9,11.3,288.9,10.4,287.7,10.4z M282.5,10.4c-1.2,0-2.2,1-2.2,2.2s1,2.2,2.2,2.2s2.2-1,2.2-2.2
		C284.7,11.3,283.7,10.4,282.5,10.4z M277.3,10.4c-1.2,0-2.2,1-2.2,2.2s1,2.2,2.2,2.2s2.2-1,2.2-2.2
		C279.5,11.3,278.5,10.4,277.3,10.4z M272.1,10.4c-1.2,0-2.2,1-2.2,2.2s1,2.2,2.2,2.2s2.2-1,2.2-2.2
		C274.3,11.3,273.3,10.4,272.1,10.4z M261.7,10.4c-1.2,0-2.2,1-2.2,2.2s1,2.2,2.2,2.2s2.2-1,2.2-2.2
		C263.9,11.3,262.9,10.4,261.7,10.4z M266.9,10.4c-1.2,0-2.2,1-2.2,2.2s1,2.2,2.2,2.2s2.2-1,2.2-2.2
		C269.1,11.3,268.1,10.4,266.9,10.4z M266.9,5.2c-1.2,0-2.2,1-2.2,2.2s1,2.2,2.2,2.2s2.2-1,2.2-2.2C269.1,6.1,268.1,5.2,266.9,5.2z
		 M272.1,5.2c-1.2,0-2.2,1-2.2,2.2s1,2.2,2.2,2.2s2.2-1,2.2-2.2C274.3,6.1,273.3,5.2,272.1,5.2z M277.3,5.2c-1.2,0-2.2,1-2.2,2.2
		s1,2.2,2.2,2.2s2.2-1,2.2-2.2C279.5,6.1,278.5,5.2,277.3,5.2z M282.5,5.2c-1.2,0-2.2,1-2.2,2.2s1,2.2,2.2,2.2s2.2-1,2.2-2.2
		C284.7,6.1,283.7,5.2,282.5,5.2z M287.7,5.2c-1.2,0-2.2,1-2.2,2.2s1,2.2,2.2,2.2s2.2-1,2.2-2.2C289.9,6.1,288.9,5.2,287.7,5.2z
		 M287.7,0c-1.2,0-2.2,1-2.2,2.2s1,2.2,2.2,2.2s2.2-1,2.2-2.2C289.9,0.9,288.9,0,287.7,0z M282.5,0c-1.2,0-2.2,1-2.2,2.2
		s1,2.2,2.2,2.2s2.2-1,2.2-2.2C284.7,0.9,283.7,0,282.5,0z M277.3,0c-1.2,0-2.2,1-2.2,2.2s1,2.2,2.2,2.2s2.2-1,2.2-2.2
		C279.5,0.9,278.5,0,277.3,0z M272.1,0c-1.2,0-2.2,1-2.2,2.2s1,2.2,2.2,2.2s2.2-1,2.2-2.2C274.3,0.9,273.3,0,272.1,0z M59.3,98.6
		c-1.2,0-2.2,1-2.2,2.2s1,2.2,2.2,2.2s2.2-1,2.2-2.2S60.5,98.6,59.3,98.6z M59.3,93.4c-1.2,0-2.2,1-2.2,2.2s1,2.2,2.2,2.2
		s2.2-1,2.2-2.2S60.5,93.4,59.3,93.4z M59.3,88.2c-1.2,0-2.2,1-2.2,2.2s1,2.2,2.2,2.2s2.2-1,2.2-2.2S60.5,88.2,59.3,88.2z M59.3,83
		c-1.2,0-2.2,1-2.2,2.2s1,2.2,2.2,2.2s2.2-1,2.2-2.2S60.5,83,59.3,83z M59.3,77.8c-1.2,0-2.2,1-2.2,2.2s1,2.2,2.2,2.2s2.2-1,2.2-2.2
		S60.5,77.8,59.3,77.8z M59.3,57.1c-1.2,0-2.2,1-2.2,2.2s1,2.2,2.2,2.2s2.2-1,2.2-2.2C61.5,58,60.5,57.1,59.3,57.1z M59.3,51.9
		c-1.2,0-2.2,1-2.2,2.2s1,2.2,2.2,2.2s2.2-1,2.2-2.2S60.5,51.9,59.3,51.9z M59.3,46.7c-1.2,0-2.2,1-2.2,2.2s1,2.2,2.2,2.2
		s2.2-1,2.2-2.2S60.5,46.7,59.3,46.7z M59.3,41.5c-1.2,0-2.2,1-2.2,2.2c0,1.2,1,2.2,2.2,2.2s2.2-1,2.2-2.2
		C61.5,42.5,60.5,41.5,59.3,41.5z M59.3,36.3c-1.2,0-2.2,1-2.2,2.2s1,2.2,2.2,2.2s2.2-1,2.2-2.2S60.5,36.3,59.3,36.3z M59.3,31.1
		c-1.2,0-2.2,1-2.2,2.2s1,2.2,2.2,2.2s2.2-1,2.2-2.2S60.5,31.1,59.3,31.1z M59.3,25.9c-1.2,0-2.2,1-2.2,2.2s1,2.2,2.2,2.2
		s2.2-1,2.2-2.2S60.5,25.9,59.3,25.9z M64.5,98.6c-1.2,0-2.2,1-2.2,2.2s1,2.2,2.2,2.2s2.2-1,2.2-2.2S65.7,98.6,64.5,98.6z
		 M64.5,93.4c-1.2,0-2.2,1-2.2,2.2s1,2.2,2.2,2.2s2.2-1,2.2-2.2S65.7,93.4,64.5,93.4z M64.5,88.2c-1.2,0-2.2,1-2.2,2.2
		s1,2.2,2.2,2.2s2.2-1,2.2-2.2S65.7,88.2,64.5,88.2z M64.5,83c-1.2,0-2.2,1-2.2,2.2s1,2.2,2.2,2.2s2.2-1,2.2-2.2S65.7,83,64.5,83z
		 M64.5,77.8c-1.2,0-2.2,1-2.2,2.2s1,2.2,2.2,2.2s2.2-1,2.2-2.2S65.7,77.8,64.5,77.8z M80.1,72.6c-1.2,0-2.2,1-2.2,2.2
		s1,2.2,2.2,2.2s2.2-1,2.2-2.2C82.2,73.6,81.3,72.6,80.1,72.6z M80.1,67.5c-1.2,0-2.2,1-2.2,2.2s1,2.2,2.2,2.2s2.2-1,2.2-2.2
		C82.2,68.4,81.3,67.5,80.1,67.5z M80.1,62.3c-1.2,0-2.2,1-2.2,2.2c0,1.2,1,2.2,2.2,2.2s2.2-1,2.2-2.2
		C82.2,63.2,81.3,62.3,80.1,62.3z M85.3,72.6c-1.2,0-2.2,1-2.2,2.2s1,2.2,2.2,2.2s2.2-1,2.2-2.2C87.4,73.6,86.5,72.6,85.3,72.6z
		 M85.3,67.5c-1.2,0-2.2,1-2.2,2.2s1,2.2,2.2,2.2s2.2-1,2.2-2.2C87.4,68.4,86.5,67.5,85.3,67.5z M85.3,62.3c-1.2,0-2.2,1-2.2,2.2
		c0,1.2,1,2.2,2.2,2.2s2.2-1,2.2-2.2C87.4,63.2,86.5,62.3,85.3,62.3z M90.5,72.6c-1.2,0-2.2,1-2.2,2.2s1,2.2,2.2,2.2s2.2-1,2.2-2.2
		C92.6,73.6,91.7,72.6,90.5,72.6z M90.5,67.5c-1.2,0-2.2,1-2.2,2.2s1,2.2,2.2,2.2s2.2-1,2.2-2.2C92.6,68.4,91.7,67.5,90.5,67.5z
		 M90.5,62.3c-1.2,0-2.2,1-2.2,2.2c0,1.2,1,2.2,2.2,2.2s2.2-1,2.2-2.2C92.6,63.2,91.7,62.3,90.5,62.3z M64.5,72.6
		c-1.2,0-2.2,1-2.2,2.2s1,2.2,2.2,2.2s2.2-1,2.2-2.2S65.7,72.6,64.5,72.6z M64.5,67.5c-1.2,0-2.2,1-2.2,2.2s1,2.2,2.2,2.2
		s2.2-1,2.2-2.2C66.7,68.4,65.7,67.5,64.5,67.5z M64.5,62.3c-1.2,0-2.2,1-2.2,2.2c0,1.2,1,2.2,2.2,2.2s2.2-1,2.2-2.2
		C66.7,63.2,65.7,62.3,64.5,62.3z M64.5,57.1c-1.2,0-2.2,1-2.2,2.2s1,2.2,2.2,2.2s2.2-1,2.2-2.2C66.7,58,65.7,57.1,64.5,57.1z
		 M64.5,51.9c-1.2,0-2.2,1-2.2,2.2s1,2.2,2.2,2.2s2.2-1,2.2-2.2S65.7,51.9,64.5,51.9z M64.5,46.7c-1.2,0-2.2,1-2.2,2.2
		s1,2.2,2.2,2.2s2.2-1,2.2-2.2S65.7,46.7,64.5,46.7z M64.5,41.5c-1.2,0-2.2,1-2.2,2.2c0,1.2,1,2.2,2.2,2.2s2.2-1,2.2-2.2
		C66.7,42.5,65.7,41.5,64.5,41.5z M64.5,36.3c-1.2,0-2.2,1-2.2,2.2s1,2.2,2.2,2.2s2.2-1,2.2-2.2S65.7,36.3,64.5,36.3z M64.5,31.1
		c-1.2,0-2.2,1-2.2,2.2s1,2.2,2.2,2.2s2.2-1,2.2-2.2S65.7,31.1,64.5,31.1z M64.5,25.9c-1.2,0-2.2,1-2.2,2.2s1,2.2,2.2,2.2
		s2.2-1,2.2-2.2S65.7,25.9,64.5,25.9z M69.7,98.6c-1.2,0-2.2,1-2.2,2.2s1,2.2,2.2,2.2s2.2-1,2.2-2.2C71.9,99.6,70.9,98.6,69.7,98.6z
		 M69.7,93.4c-1.2,0-2.2,1-2.2,2.2s1,2.2,2.2,2.2s2.2-1,2.2-2.2S70.9,93.4,69.7,93.4z M69.7,88.2c-1.2,0-2.2,1-2.2,2.2
		s1,2.2,2.2,2.2s2.2-1,2.2-2.2C71.9,89.2,70.9,88.2,69.7,88.2z M69.7,83c-1.2,0-2.2,1-2.2,2.2s1,2.2,2.2,2.2s2.2-1,2.2-2.2
		S70.9,83,69.7,83z M69.7,77.8c-1.2,0-2.2,1-2.2,2.2s1,2.2,2.2,2.2s2.2-1,2.2-2.2S70.9,77.8,69.7,77.8z M69.7,72.6
		c-1.2,0-2.2,1-2.2,2.2s1,2.2,2.2,2.2s2.2-1,2.2-2.2C71.9,73.6,70.9,72.6,69.7,72.6z M69.7,67.5c-1.2,0-2.2,1-2.2,2.2s1,2.2,2.2,2.2
		s2.2-1,2.2-2.2C71.9,68.4,70.9,67.5,69.7,67.5z M69.7,62.3c-1.2,0-2.2,1-2.2,2.2c0,1.2,1,2.2,2.2,2.2s2.2-1,2.2-2.2
		C71.9,63.2,70.9,62.3,69.7,62.3z M69.7,57.1c-1.2,0-2.2,1-2.2,2.2s1,2.2,2.2,2.2s2.2-1,2.2-2.2C71.9,58,70.9,57.1,69.7,57.1z
		 M69.7,51.9c-1.2,0-2.2,1-2.2,2.2s1,2.2,2.2,2.2s2.2-1,2.2-2.2C71.9,52.9,70.9,51.9,69.7,51.9z M69.7,46.7c-1.2,0-2.2,1-2.2,2.2
		s1,2.2,2.2,2.2s2.2-1,2.2-2.2S70.9,46.7,69.7,46.7z M69.7,41.5c-1.2,0-2.2,1-2.2,2.2c0,1.2,1,2.2,2.2,2.2s2.2-1,2.2-2.2
		C71.9,42.5,70.9,41.5,69.7,41.5z M69.7,36.3c-1.2,0-2.2,1-2.2,2.2s1,2.2,2.2,2.2s2.2-1,2.2-2.2S70.9,36.3,69.7,36.3z M69.7,31.1
		c-1.2,0-2.2,1-2.2,2.2s1,2.2,2.2,2.2s2.2-1,2.2-2.2S70.9,31.1,69.7,31.1z M69.7,25.9c-1.2,0-2.2,1-2.2,2.2s1,2.2,2.2,2.2
		s2.2-1,2.2-2.2S70.9,25.9,69.7,25.9z M74.9,98.6c-1.2,0-2.2,1-2.2,2.2s1,2.2,2.2,2.2s2.2-1,2.2-2.2S76.1,98.6,74.9,98.6z
		 M74.9,93.4c-1.2,0-2.2,1-2.2,2.2s1,2.2,2.2,2.2s2.2-1,2.2-2.2S76.1,93.4,74.9,93.4z M74.9,88.2c-1.2,0-2.2,1-2.2,2.2
		s1,2.2,2.2,2.2s2.2-1,2.2-2.2S76.1,88.2,74.9,88.2z M74.9,83c-1.2,0-2.2,1-2.2,2.2s1,2.2,2.2,2.2s2.2-1,2.2-2.2S76.1,83,74.9,83z
		 M74.9,77.8c-1.2,0-2.2,1-2.2,2.2s1,2.2,2.2,2.2s2.2-1,2.2-2.2S76.1,77.8,74.9,77.8z M74.9,72.6c-1.2,0-2.2,1-2.2,2.2
		s1,2.2,2.2,2.2s2.2-1,2.2-2.2S76.1,72.6,74.9,72.6z M74.9,67.5c-1.2,0-2.2,1-2.2,2.2s1,2.2,2.2,2.2s2.2-1,2.2-2.2
		C77.1,68.4,76.1,67.5,74.9,67.5z M74.9,62.3c-1.2,0-2.2,1-2.2,2.2c0,1.2,1,2.2,2.2,2.2s2.2-1,2.2-2.2
		C77.1,63.2,76.1,62.3,74.9,62.3z M74.9,57.1c-1.2,0-2.2,1-2.2,2.2s1,2.2,2.2,2.2s2.2-1,2.2-2.2C77.1,58,76.1,57.1,74.9,57.1z
		 M74.9,51.9c-1.2,0-2.2,1-2.2,2.2s1,2.2,2.2,2.2s2.2-1,2.2-2.2S76.1,51.9,74.9,51.9z M74.9,46.7c-1.2,0-2.2,1-2.2,2.2
		s1,2.2,2.2,2.2s2.2-1,2.2-2.2S76.1,46.7,74.9,46.7z M74.9,41.5c-1.2,0-2.2,1-2.2,2.2c0,1.2,1,2.2,2.2,2.2s2.2-1,2.2-2.2
		C77.1,42.5,76.1,41.5,74.9,41.5z M74.9,36.3c-1.2,0-2.2,1-2.2,2.2s1,2.2,2.2,2.2s2.2-1,2.2-2.2S76.1,36.3,74.9,36.3z M74.9,31.1
		c-1.2,0-2.2,1-2.2,2.2s1,2.2,2.2,2.2s2.2-1,2.2-2.2S76.1,31.1,74.9,31.1z M74.9,25.9c-1.2,0-2.2,1-2.2,2.2s1,2.2,2.2,2.2
		s2.2-1,2.2-2.2S76.1,25.9,74.9,25.9z M74.9,20.7c-1.2,0-2.2,1-2.2,2.2s1,2.2,2.2,2.2s2.2-1,2.2-2.2S76.1,20.7,74.9,20.7z
		 M69.7,20.7c-1.2,0-2.2,1-2.2,2.2s1,2.2,2.2,2.2s2.2-1,2.2-2.2C71.9,21.7,70.9,20.7,69.7,20.7z M64.5,20.7c-1.2,0-2.2,1-2.2,2.2
		s1,2.2,2.2,2.2s2.2-1,2.2-2.2S65.7,20.7,64.5,20.7z M59.3,20.7c-1.2,0-2.2,1-2.2,2.2s1,2.2,2.2,2.2s2.2-1,2.2-2.2
		S60.5,20.7,59.3,20.7z M59.3,72.6c-1.2,0-2.2,1-2.2,2.2s1,2.2,2.2,2.2s2.2-1,2.2-2.2S60.5,72.6,59.3,72.6z M54.1,72.6
		c-1.2,0-2.2,1-2.2,2.2s1,2.2,2.2,2.2s2.2-1,2.2-2.2C56.3,73.6,55.3,72.6,54.1,72.6z M59.3,67.5c-1.2,0-2.2,1-2.2,2.2s1,2.2,2.2,2.2
		s2.2-1,2.2-2.2C61.5,68.4,60.5,67.5,59.3,67.5z M54.1,67.5c-1.2,0-2.2,1-2.2,2.2s1,2.2,2.2,2.2s2.2-1,2.2-2.2
		C56.3,68.4,55.3,67.5,54.1,67.5z M59.3,62.3c-1.2,0-2.2,1-2.2,2.2c0,1.2,1,2.2,2.2,2.2s2.2-1,2.2-2.2
		C61.5,63.2,60.5,62.3,59.3,62.3z M54.1,62.3c-1.2,0-2.2,1-2.2,2.2c0,1.2,1,2.2,2.2,2.2s2.2-1,2.2-2.2
		C56.3,63.2,55.3,62.3,54.1,62.3z M48.9,72.6c-1.2,0-2.2,1-2.2,2.2s1,2.2,2.2,2.2s2.2-1,2.2-2.2S50.1,72.6,48.9,72.6z M43.8,72.6
		c-1.2,0-2.2,1-2.2,2.2s1,2.2,2.2,2.2s2.2-1,2.2-2.2C45.9,73.6,45,72.6,43.8,72.6z M33.4,72.6c-1.2,0-2.2,1-2.2,2.2s1,2.2,2.2,2.2
		c1.2,0,2.2-1,2.2-2.2C35.5,73.6,34.6,72.6,33.4,72.6z M38.6,72.6c-1.2,0-2.2,1-2.2,2.2s1,2.2,2.2,2.2s2.2-1,2.2-2.2
		C40.7,73.6,39.8,72.6,38.6,72.6z M28.2,72.6c-1.2,0-2.2,1-2.2,2.2s1,2.2,2.2,2.2s2.2-1,2.2-2.2C30.3,73.6,29.4,72.6,28.2,72.6z
		 M48.9,67.5c-1.2,0-2.2,1-2.2,2.2s1,2.2,2.2,2.2s2.2-1,2.2-2.2C51.1,68.4,50.1,67.5,48.9,67.5z M43.8,67.5c-1.2,0-2.2,1-2.2,2.2
		s1,2.2,2.2,2.2s2.2-1,2.2-2.2C45.9,68.4,45,67.5,43.8,67.5z M33.4,67.5c-1.2,0-2.2,1-2.2,2.2s1,2.2,2.2,2.2c1.2,0,2.2-1,2.2-2.2
		C35.5,68.4,34.6,67.5,33.4,67.5z M38.6,67.5c-1.2,0-2.2,1-2.2,2.2s1,2.2,2.2,2.2s2.2-1,2.2-2.2C40.7,68.4,39.8,67.5,38.6,67.5z
		 M28.2,67.5c-1.2,0-2.2,1-2.2,2.2s1,2.2,2.2,2.2s2.2-1,2.2-2.2C30.3,68.4,29.4,67.5,28.2,67.5z M48.9,62.3c-1.2,0-2.2,1-2.2,2.2
		c0,1.2,1,2.2,2.2,2.2s2.2-1,2.2-2.2C51.1,63.2,50.1,62.3,48.9,62.3z M43.8,62.3c-1.2,0-2.2,1-2.2,2.2c0,1.2,1,2.2,2.2,2.2
		s2.2-1,2.2-2.2C45.9,63.2,45,62.3,43.8,62.3z M33.4,62.3c-1.2,0-2.2,1-2.2,2.2c0,1.2,1,2.2,2.2,2.2c1.2,0,2.2-1,2.2-2.2
		C35.5,63.2,34.6,62.3,33.4,62.3z M38.6,62.3c-1.2,0-2.2,1-2.2,2.2c0,1.2,1,2.2,2.2,2.2s2.2-1,2.2-2.2
		C40.7,63.2,39.8,62.3,38.6,62.3z M28.2,62.3c-1.2,0-2.2,1-2.2,2.2c0,1.2,1,2.2,2.2,2.2s2.2-1,2.2-2.2
		C30.3,63.2,29.4,62.3,28.2,62.3z M23,72.6c-1.2,0-2.2,1-2.2,2.2s1,2.2,2.2,2.2s2.2-1,2.2-2.2S24.2,72.6,23,72.6z M17.8,72.6
		c-1.2,0-2.2,1-2.2,2.2s1,2.2,2.2,2.2s2.2-1,2.2-2.2S19,72.6,17.8,72.6z M7.4,72.6c-1.2,0-2.2,1-2.2,2.2s1,2.2,2.2,2.2
		s2.2-1,2.2-2.2C9.6,73.6,8.6,72.6,7.4,72.6z M12.6,72.6c-1.2,0-2.2,1-2.2,2.2s1,2.2,2.2,2.2s2.2-1,2.2-2.2S13.8,72.6,12.6,72.6z
		 M2.2,72.6c-1.2,0-2.2,1-2.2,2.2S1,77,2.2,77s2.2-1,2.2-2.2S3.4,72.6,2.2,72.6z M23,67.5c-1.2,0-2.2,1-2.2,2.2s1,2.2,2.2,2.2
		s2.2-1,2.2-2.2C25.2,68.4,24.2,67.5,23,67.5z M17.8,67.5c-1.2,0-2.2,1-2.2,2.2s1,2.2,2.2,2.2s2.2-1,2.2-2.2
		C20,68.4,19,67.5,17.8,67.5z M7.4,67.5c-1.2,0-2.2,1-2.2,2.2s1,2.2,2.2,2.2s2.2-1,2.2-2.2C9.6,68.4,8.6,67.5,7.4,67.5z M12.6,67.5
		c-1.2,0-2.2,1-2.2,2.2s1,2.2,2.2,2.2s2.2-1,2.2-2.2C14.8,68.4,13.8,67.5,12.6,67.5z M2.2,67.5c-1.2,0-2.2,1-2.2,2.2s1,2.2,2.2,2.2
		s2.2-1,2.2-2.2C4.4,68.4,3.4,67.5,2.2,67.5z M23,62.3c-1.2,0-2.2,1-2.2,2.2c0,1.2,1,2.2,2.2,2.2s2.2-1,2.2-2.2
		C25.2,63.2,24.2,62.3,23,62.3z M17.8,62.3c-1.2,0-2.2,1-2.2,2.2c0,1.2,1,2.2,2.2,2.2s2.2-1,2.2-2.2C20,63.2,19,62.3,17.8,62.3z
		 M7.4,62.3c-1.2,0-2.2,1-2.2,2.2c0,1.2,1,2.2,2.2,2.2s2.2-1,2.2-2.2C9.6,63.2,8.6,62.3,7.4,62.3z M12.6,62.3c-1.2,0-2.2,1-2.2,2.2
		c0,1.2,1,2.2,2.2,2.2s2.2-1,2.2-2.2C14.8,63.2,13.8,62.3,12.6,62.3z M2.2,62.3c-1.2,0-2.2,1-2.2,2.2c0,1.2,1,2.2,2.2,2.2
		s2.2-1,2.2-2.2C4.4,63.2,3.4,62.3,2.2,62.3z M23,57.1c-1.2,0-2.2,1-2.2,2.2s1,2.2,2.2,2.2s2.2-1,2.2-2.2C25.2,58,24.2,57.1,23,57.1
		z M17.8,57.1c-1.2,0-2.2,1-2.2,2.2s1,2.2,2.2,2.2s2.2-1,2.2-2.2C20,58,19,57.1,17.8,57.1z M7.4,57.1c-1.2,0-2.2,1-2.2,2.2
		s1,2.2,2.2,2.2s2.2-1,2.2-2.2C9.6,58,8.6,57.1,7.4,57.1z M12.6,57.1c-1.2,0-2.2,1-2.2,2.2s1,2.2,2.2,2.2s2.2-1,2.2-2.2
		C14.8,58,13.8,57.1,12.6,57.1z M2.2,57.1c-1.2,0-2.2,1-2.2,2.2s1,2.2,2.2,2.2s2.2-1,2.2-2.2C4.4,58,3.4,57.1,2.2,57.1z M28.2,51.9
		c-1.2,0-2.2,1-2.2,2.2s1,2.2,2.2,2.2s2.2-1,2.2-2.2C30.3,52.9,29.4,51.9,28.2,51.9z M23,51.9c-1.2,0-2.2,1-2.2,2.2s1,2.2,2.2,2.2
		s2.2-1,2.2-2.2S24.2,51.9,23,51.9z M12.6,51.9c-1.2,0-2.2,1-2.2,2.2s1,2.2,2.2,2.2s2.2-1,2.2-2.2S13.8,51.9,12.6,51.9z M17.8,51.9
		c-1.2,0-2.2,1-2.2,2.2s1,2.2,2.2,2.2s2.2-1,2.2-2.2S19,51.9,17.8,51.9z M33.4,46.7c-1.2,0-2.2,1-2.2,2.2s1,2.2,2.2,2.2
		c1.2,0,2.2-1,2.2-2.2S34.6,46.7,33.4,46.7z M28.2,46.7c-1.2,0-2.2,1-2.2,2.2s1,2.2,2.2,2.2s2.2-1,2.2-2.2S29.4,46.7,28.2,46.7z
		 M17.8,46.7c-1.2,0-2.2,1-2.2,2.2s1,2.2,2.2,2.2s2.2-1,2.2-2.2S19,46.7,17.8,46.7z M23,46.7c-1.2,0-2.2,1-2.2,2.2s1,2.2,2.2,2.2
		s2.2-1,2.2-2.2S24.2,46.7,23,46.7z M38.6,41.5c-1.2,0-2.2,1-2.2,2.2c0,1.2,1,2.2,2.2,2.2s2.2-1,2.2-2.2
		C40.7,42.5,39.8,41.5,38.6,41.5z M33.4,41.5c-1.2,0-2.2,1-2.2,2.2c0,1.2,1,2.2,2.2,2.2c1.2,0,2.2-1,2.2-2.2
		C35.5,42.5,34.6,41.5,33.4,41.5z M23,41.5c-1.2,0-2.2,1-2.2,2.2c0,1.2,1,2.2,2.2,2.2s2.2-1,2.2-2.2C25.2,42.5,24.2,41.5,23,41.5z
		 M28.2,41.5c-1.2,0-2.2,1-2.2,2.2c0,1.2,1,2.2,2.2,2.2s2.2-1,2.2-2.2C30.3,42.5,29.4,41.5,28.2,41.5z M43.8,36.3
		c-1.2,0-2.2,1-2.2,2.2s1,2.2,2.2,2.2s2.2-1,2.2-2.2S45,36.3,43.8,36.3z M38.6,36.3c-1.2,0-2.2,1-2.2,2.2s1,2.2,2.2,2.2
		s2.2-1,2.2-2.2S39.8,36.3,38.6,36.3z M28.2,36.3c-1.2,0-2.2,1-2.2,2.2s1,2.2,2.2,2.2s2.2-1,2.2-2.2S29.4,36.3,28.2,36.3z
		 M33.4,36.3c-1.2,0-2.2,1-2.2,2.2s1,2.2,2.2,2.2c1.2,0,2.2-1,2.2-2.2S34.6,36.3,33.4,36.3z M48.9,31.1c-1.2,0-2.2,1-2.2,2.2
		s1,2.2,2.2,2.2s2.2-1,2.2-2.2S50.1,31.1,48.9,31.1z M43.8,31.1c-1.2,0-2.2,1-2.2,2.2s1,2.2,2.2,2.2s2.2-1,2.2-2.2
		S45,31.1,43.8,31.1z M33.4,31.1c-1.2,0-2.2,1-2.2,2.2s1,2.2,2.2,2.2c1.2,0,2.2-1,2.2-2.2S34.6,31.1,33.4,31.1z M38.6,31.1
		c-1.2,0-2.2,1-2.2,2.2s1,2.2,2.2,2.2s2.2-1,2.2-2.2S39.8,31.1,38.6,31.1z M54.1,25.9c-1.2,0-2.2,1-2.2,2.2s1,2.2,2.2,2.2
		s2.2-1,2.2-2.2S55.3,25.9,54.1,25.9z M48.9,25.9c-1.2,0-2.2,1-2.2,2.2s1,2.2,2.2,2.2s2.2-1,2.2-2.2S50.1,25.9,48.9,25.9z M7.4,51.9
		c-1.2,0-2.2,1-2.2,2.2s1,2.2,2.2,2.2s2.2-1,2.2-2.2C9.6,52.9,8.6,51.9,7.4,51.9z M12.6,46.7c-1.2,0-2.2,1-2.2,2.2s1,2.2,2.2,2.2
		s2.2-1,2.2-2.2S13.8,46.7,12.6,46.7z M17.8,41.5c-1.2,0-2.2,1-2.2,2.2c0,1.2,1,2.2,2.2,2.2s2.2-1,2.2-2.2
		C20,42.5,19,41.5,17.8,41.5z M23,36.3c-1.2,0-2.2,1-2.2,2.2s1,2.2,2.2,2.2s2.2-1,2.2-2.2S24.2,36.3,23,36.3z M28.2,31.1
		c-1.2,0-2.2,1-2.2,2.2s1,2.2,2.2,2.2s2.2-1,2.2-2.2S29.4,31.1,28.2,31.1z M33.4,25.9c-1.2,0-2.2,1-2.2,2.2s1,2.2,2.2,2.2
		c1.2,0,2.2-1,2.2-2.2S34.6,25.9,33.4,25.9z M38.6,25.9c-1.2,0-2.2,1-2.2,2.2s1,2.2,2.2,2.2s2.2-1,2.2-2.2S39.8,25.9,38.6,25.9z
		 M43.8,25.9c-1.2,0-2.2,1-2.2,2.2s1,2.2,2.2,2.2s2.2-1,2.2-2.2S45,25.9,43.8,25.9z M54.1,20.7c-1.2,0-2.2,1-2.2,2.2s1,2.2,2.2,2.2
		s2.2-1,2.2-2.2C56.3,21.7,55.3,20.7,54.1,20.7z M48.9,20.7c-1.2,0-2.2,1-2.2,2.2s1,2.2,2.2,2.2s2.2-1,2.2-2.2S50.1,20.7,48.9,20.7z
		 M38.6,20.7c-1.2,0-2.2,1-2.2,2.2s1,2.2,2.2,2.2s2.2-1,2.2-2.2C40.7,21.7,39.8,20.7,38.6,20.7z M43.8,20.7c-1.2,0-2.2,1-2.2,2.2
		s1,2.2,2.2,2.2s2.2-1,2.2-2.2C45.9,21.7,45,20.7,43.8,20.7z M43.8,15.6c-1.2,0-2.2,1-2.2,2.2s1,2.2,2.2,2.2s2.2-1,2.2-2.2
		C45.9,16.5,45,15.6,43.8,15.6z M48.9,15.6c-1.2,0-2.2,1-2.2,2.2s1,2.2,2.2,2.2s2.2-1,2.2-2.2C51.1,16.5,50.1,15.6,48.9,15.6z
		 M54.1,15.6c-1.2,0-2.2,1-2.2,2.2s1,2.2,2.2,2.2s2.2-1,2.2-2.2C56.3,16.5,55.3,15.6,54.1,15.6z M59.3,15.6c-1.2,0-2.2,1-2.2,2.2
		s1,2.2,2.2,2.2s2.2-1,2.2-2.2C61.5,16.5,60.5,15.6,59.3,15.6z M64.5,15.6c-1.2,0-2.2,1-2.2,2.2s1,2.2,2.2,2.2s2.2-1,2.2-2.2
		C66.7,16.5,65.7,15.6,64.5,15.6z M69.7,15.6c-1.2,0-2.2,1-2.2,2.2s1,2.2,2.2,2.2s2.2-1,2.2-2.2C71.9,16.5,70.9,15.6,69.7,15.6z
		 M74.9,15.6c-1.2,0-2.2,1-2.2,2.2s1,2.2,2.2,2.2s2.2-1,2.2-2.2C77.1,16.5,76.1,15.6,74.9,15.6z M74.9,10.4c-1.2,0-2.2,1-2.2,2.2
		s1,2.2,2.2,2.2s2.2-1,2.2-2.2C77.1,11.3,76.1,10.4,74.9,10.4z M69.7,10.4c-1.2,0-2.2,1-2.2,2.2s1,2.2,2.2,2.2s2.2-1,2.2-2.2
		C71.9,11.3,70.9,10.4,69.7,10.4z M64.5,10.4c-1.2,0-2.2,1-2.2,2.2s1,2.2,2.2,2.2s2.2-1,2.2-2.2C66.7,11.3,65.7,10.4,64.5,10.4z
		 M59.3,10.4c-1.2,0-2.2,1-2.2,2.2s1,2.2,2.2,2.2s2.2-1,2.2-2.2C61.5,11.3,60.5,10.4,59.3,10.4z M48.9,10.4c-1.2,0-2.2,1-2.2,2.2
		s1,2.2,2.2,2.2s2.2-1,2.2-2.2C51.1,11.3,50.1,10.4,48.9,10.4z M54.1,10.4c-1.2,0-2.2,1-2.2,2.2s1,2.2,2.2,2.2s2.2-1,2.2-2.2
		C56.3,11.3,55.3,10.4,54.1,10.4z M54.1,5.2c-1.2,0-2.2,1-2.2,2.2s1,2.2,2.2,2.2s2.2-1,2.2-2.2C56.3,6.1,55.3,5.2,54.1,5.2z
		 M59.3,5.2c-1.2,0-2.2,1-2.2,2.2s1,2.2,2.2,2.2s2.2-1,2.2-2.2C61.5,6.1,60.5,5.2,59.3,5.2z M64.5,5.2c-1.2,0-2.2,1-2.2,2.2
		s1,2.2,2.2,2.2s2.2-1,2.2-2.2C66.7,6.1,65.7,5.2,64.5,5.2z M69.7,5.2c-1.2,0-2.2,1-2.2,2.2s1,2.2,2.2,2.2s2.2-1,2.2-2.2
		C71.9,6.1,70.9,5.2,69.7,5.2z M74.9,5.2c-1.2,0-2.2,1-2.2,2.2s1,2.2,2.2,2.2s2.2-1,2.2-2.2C77.1,6.1,76.1,5.2,74.9,5.2z M74.9,0
		c-1.2,0-2.2,1-2.2,2.2s1,2.2,2.2,2.2s2.2-1,2.2-2.2C77.1,0.9,76.1,0,74.9,0z M69.7,0c-1.2,0-2.2,1-2.2,2.2s1,2.2,2.2,2.2
		s2.2-1,2.2-2.2C71.9,0.9,70.9,0,69.7,0z M64.5,0c-1.2,0-2.2,1-2.2,2.2s1,2.2,2.2,2.2s2.2-1,2.2-2.2C66.7,0.9,65.7,0,64.5,0z
		 M59.3,0c-1.2,0-2.2,1-2.2,2.2s1,2.2,2.2,2.2s2.2-1,2.2-2.2C61.5,0.9,60.5,0,59.3,0z M142.4,93.4c-1.2,0-2.2,1-2.2,2.2
		s1,2.2,2.2,2.2s2.2-1,2.2-2.2S143.6,93.4,142.4,93.4z M132,62.3c-1.2,0-2.2,1-2.2,2.2c0,1.2,1,2.2,2.2,2.2s2.2-1,2.2-2.2
		C134.2,63.2,133.2,62.3,132,62.3z M132,57.1c-1.2,0-2.2,1-2.2,2.2s1,2.2,2.2,2.2s2.2-1,2.2-2.2C134.2,58,133.2,57.1,132,57.1z
		 M132,51.9c-1.2,0-2.2,1-2.2,2.2s1,2.2,2.2,2.2s2.2-1,2.2-2.2S133.2,51.9,132,51.9z M137.2,77.8c-1.2,0-2.2,1-2.2,2.2
		s1,2.2,2.2,2.2s2.2-1,2.2-2.2S138.4,77.8,137.2,77.8z M132,72.6c-1.2,0-2.2,1-2.2,2.2s1,2.2,2.2,2.2s2.2-1,2.2-2.2
		S133.2,72.6,132,72.6z M132,67.5c-1.2,0-2.2,1-2.2,2.2s1,2.2,2.2,2.2s2.2-1,2.2-2.2S133.2,67.5,132,67.5z M126.8,62.3
		c-1.2,0-2.2,1-2.2,2.2c0,1.2,1,2.2,2.2,2.2s2.2-1,2.2-2.2C129,63.2,128,62.3,126.8,62.3z M126.8,57.1c-1.2,0-2.2,1-2.2,2.2
		s1,2.2,2.2,2.2s2.2-1,2.2-2.2C129,58,128,57.1,126.8,57.1z M126.8,51.9c-1.2,0-2.2,1-2.2,2.2s1,2.2,2.2,2.2s2.2-1,2.2-2.2
		S128,51.9,126.8,51.9z M126.8,67.5c-1.2,0-2.2,1-2.2,2.2s1,2.2,2.2,2.2s2.2-1,2.2-2.2S128,67.5,126.8,67.5z M121.6,57.1
		c-1.2,0-2.2,1-2.2,2.2s1,2.2,2.2,2.2s2.2-1,2.2-2.2C123.8,58,122.8,57.1,121.6,57.1z M121.6,51.9c-1.2,0-2.2,1-2.2,2.2
		s1,2.2,2.2,2.2s2.2-1,2.2-2.2S122.8,51.9,121.6,51.9z M121.6,62.3c-1.2,0-2.2,1-2.2,2.2c0,1.2,1,2.2,2.2,2.2s2.2-1,2.2-2.2
		C123.8,63.2,122.8,62.3,121.6,62.3z M116.4,57.1c-1.2,0-2.2,1-2.2,2.2s1,2.2,2.2,2.2s2.2-1,2.2-2.2C118.6,58,117.6,57.1,116.4,57.1
		z M116.4,51.9c-1.2,0-2.2,1-2.2,2.2s1,2.2,2.2,2.2s2.2-1,2.2-2.2S117.6,51.9,116.4,51.9z M116.4,72.6c-1.2,0-2.2,1-2.2,2.2
		s1,2.2,2.2,2.2s2.2-1,2.2-2.2C118.6,73.6,117.6,72.6,116.4,72.6z M116.4,67.5c-1.2,0-2.2,1-2.2,2.2s1,2.2,2.2,2.2s2.2-1,2.2-2.2
		S117.6,67.5,116.4,67.5z M116.4,62.3c-1.2,0-2.2,1-2.2,2.2c0,1.2,1,2.2,2.2,2.2s2.2-1,2.2-2.2C118.6,63.2,117.6,62.3,116.4,62.3z
		 M121.6,77.8c-1.2,0-2.2,1-2.2,2.2s1,2.2,2.2,2.2s2.2-1,2.2-2.2S122.8,77.8,121.6,77.8z M121.6,72.6c-1.2,0-2.2,1-2.2,2.2
		s1,2.2,2.2,2.2s2.2-1,2.2-2.2S122.8,72.6,121.6,72.6z M121.6,67.5c-1.2,0-2.2,1-2.2,2.2s1,2.2,2.2,2.2s2.2-1,2.2-2.2
		S122.8,67.5,121.6,67.5z M126.8,83c-1.2,0-2.2,1-2.2,2.2s1,2.2,2.2,2.2s2.2-1,2.2-2.2S128,83,126.8,83z M126.8,77.8
		c-1.2,0-2.2,1-2.2,2.2s1,2.2,2.2,2.2s2.2-1,2.2-2.2S128,77.8,126.8,77.8z M126.8,72.6c-1.2,0-2.2,1-2.2,2.2s1,2.2,2.2,2.2
		s2.2-1,2.2-2.2S128,72.6,126.8,72.6z M132,88.2c-1.2,0-2.2,1-2.2,2.2s1,2.2,2.2,2.2s2.2-1,2.2-2.2S133.2,88.2,132,88.2z M132,83
		c-1.2,0-2.2,1-2.2,2.2s1,2.2,2.2,2.2s2.2-1,2.2-2.2S133.2,83,132,83z M132,77.8c-1.2,0-2.2,1-2.2,2.2s1,2.2,2.2,2.2s2.2-1,2.2-2.2
		S133.2,77.8,132,77.8z M137.2,93.4c-1.2,0-2.2,1-2.2,2.2s1,2.2,2.2,2.2s2.2-1,2.2-2.2S138.4,93.4,137.2,93.4z M137.2,88.2
		c-1.2,0-2.2,1-2.2,2.2s1,2.2,2.2,2.2s2.2-1,2.2-2.2C139.3,89.2,138.4,88.2,137.2,88.2z M137.2,83c-1.2,0-2.2,1-2.2,2.2
		s1,2.2,2.2,2.2s2.2-1,2.2-2.2S138.4,83,137.2,83z M142.4,83c-1.2,0-2.2,1-2.2,2.2s1,2.2,2.2,2.2s2.2-1,2.2-2.2S143.6,83,142.4,83z
		 M142.4,88.2c-1.2,0-2.2,1-2.2,2.2s1,2.2,2.2,2.2s2.2-1,2.2-2.2C144.5,89.2,143.6,88.2,142.4,88.2z M147.6,88.2
		c-1.2,0-2.2,1-2.2,2.2s1,2.2,2.2,2.2s2.2-1,2.2-2.2C149.7,89.2,148.8,88.2,147.6,88.2z M152.8,88.2c-1.2,0-2.2,1-2.2,2.2
		s1,2.2,2.2,2.2s2.2-1,2.2-2.2C154.9,89.2,153.9,88.2,152.8,88.2z M147.6,93.4c-1.2,0-2.2,1-2.2,2.2s1,2.2,2.2,2.2s2.2-1,2.2-2.2
		S148.8,93.4,147.6,93.4z M152.8,93.4c-1.2,0-2.2,1-2.2,2.2s1,2.2,2.2,2.2s2.2-1,2.2-2.2S153.9,93.4,152.8,93.4z M147.6,98.6
		c-1.2,0-2.2,1-2.2,2.2s1,2.2,2.2,2.2s2.2-1,2.2-2.2S148.8,98.6,147.6,98.6z M152.8,98.6c-1.2,0-2.2,1-2.2,2.2s1,2.2,2.2,2.2
		s2.2-1,2.2-2.2S153.9,98.6,152.8,98.6z M142.4,5.2c-1.2,0-2.2,1-2.2,2.2s1,2.2,2.2,2.2s2.2-1,2.2-2.2S143.6,5.2,142.4,5.2z
		 M132,36.3c-1.2,0-2.2,1-2.2,2.2s1,2.2,2.2,2.2s2.2-1,2.2-2.2S133.2,36.3,132,36.3z M132,41.5c-1.2,0-2.2,1-2.2,2.2
		c0,1.2,1,2.2,2.2,2.2s2.2-1,2.2-2.2C134.2,42.5,133.2,41.5,132,41.5z M132,46.7c-1.2,0-2.2,1-2.2,2.2s1,2.2,2.2,2.2s2.2-1,2.2-2.2
		S133.2,46.7,132,46.7z M137.2,20.7c-1.2,0-2.2,1-2.2,2.2s1,2.2,2.2,2.2s2.2-1,2.2-2.2S138.4,20.7,137.2,20.7z M132,25.9
		c-1.2,0-2.2,1-2.2,2.2s1,2.2,2.2,2.2s2.2-1,2.2-2.2S133.2,25.9,132,25.9z M132,31.1c-1.2,0-2.2,1-2.2,2.2s1,2.2,2.2,2.2
		s2.2-1,2.2-2.2S133.2,31.1,132,31.1z M126.8,36.3c-1.2,0-2.2,1-2.2,2.2s1,2.2,2.2,2.2s2.2-1,2.2-2.2S128,36.3,126.8,36.3z
		 M126.8,41.5c-1.2,0-2.2,1-2.2,2.2c0,1.2,1,2.2,2.2,2.2s2.2-1,2.2-2.2C129,42.5,128,41.5,126.8,41.5z M126.8,46.7
		c-1.2,0-2.2,1-2.2,2.2s1,2.2,2.2,2.2s2.2-1,2.2-2.2S128,46.7,126.8,46.7z M126.8,31.1c-1.2,0-2.2,1-2.2,2.2s1,2.2,2.2,2.2
		s2.2-1,2.2-2.2S128,31.1,126.8,31.1z M121.6,41.5c-1.2,0-2.2,1-2.2,2.2c0,1.2,1,2.2,2.2,2.2s2.2-1,2.2-2.2
		C123.8,42.5,122.8,41.5,121.6,41.5z M121.6,46.7c-1.2,0-2.2,1-2.2,2.2s1,2.2,2.2,2.2s2.2-1,2.2-2.2S122.8,46.7,121.6,46.7z
		 M121.6,36.3c-1.2,0-2.2,1-2.2,2.2s1,2.2,2.2,2.2s2.2-1,2.2-2.2S122.8,36.3,121.6,36.3z M116.4,41.5c-1.2,0-2.2,1-2.2,2.2
		c0,1.2,1,2.2,2.2,2.2s2.2-1,2.2-2.2C118.6,42.5,117.6,41.5,116.4,41.5z M116.4,46.7c-1.2,0-2.2,1-2.2,2.2s1,2.2,2.2,2.2
		s2.2-1,2.2-2.2C118.6,47.7,117.6,46.7,116.4,46.7z M116.4,25.9c-1.2,0-2.2,1-2.2,2.2s1,2.2,2.2,2.2s2.2-1,2.2-2.2
		S117.6,25.9,116.4,25.9z M116.4,31.1c-1.2,0-2.2,1-2.2,2.2s1,2.2,2.2,2.2s2.2-1,2.2-2.2S117.6,31.1,116.4,31.1z M116.4,36.3
		c-1.2,0-2.2,1-2.2,2.2s1,2.2,2.2,2.2s2.2-1,2.2-2.2S117.6,36.3,116.4,36.3z M121.6,20.7c-1.2,0-2.2,1-2.2,2.2s1,2.2,2.2,2.2
		s2.2-1,2.2-2.2S122.8,20.7,121.6,20.7z M121.6,25.9c-1.2,0-2.2,1-2.2,2.2s1,2.2,2.2,2.2s2.2-1,2.2-2.2S122.8,25.9,121.6,25.9z
		 M121.6,31.1c-1.2,0-2.2,1-2.2,2.2s1,2.2,2.2,2.2s2.2-1,2.2-2.2S122.8,31.1,121.6,31.1z M126.8,15.6c-1.2,0-2.2,1-2.2,2.2
		s1,2.2,2.2,2.2s2.2-1,2.2-2.2C129,16.5,128,15.6,126.8,15.6z M126.8,20.7c-1.2,0-2.2,1-2.2,2.2s1,2.2,2.2,2.2s2.2-1,2.2-2.2
		S128,20.7,126.8,20.7z M126.8,25.9c-1.2,0-2.2,1-2.2,2.2s1,2.2,2.2,2.2s2.2-1,2.2-2.2S128,25.9,126.8,25.9z M132,10.4
		c-1.2,0-2.2,1-2.2,2.2s1,2.2,2.2,2.2s2.2-1,2.2-2.2C134.2,11.3,133.2,10.4,132,10.4z M132,15.6c-1.2,0-2.2,1-2.2,2.2s1,2.2,2.2,2.2
		s2.2-1,2.2-2.2C134.2,16.5,133.2,15.6,132,15.6z M132,20.7c-1.2,0-2.2,1-2.2,2.2s1,2.2,2.2,2.2s2.2-1,2.2-2.2S133.2,20.7,132,20.7z
		 M137.2,5.2c-1.2,0-2.2,1-2.2,2.2s1,2.2,2.2,2.2s2.2-1,2.2-2.2S138.4,5.2,137.2,5.2z M137.2,10.4c-1.2,0-2.2,1-2.2,2.2
		s1,2.2,2.2,2.2s2.2-1,2.2-2.2C139.3,11.3,138.4,10.4,137.2,10.4z M137.2,15.6c-1.2,0-2.2,1-2.2,2.2s1,2.2,2.2,2.2s2.2-1,2.2-2.2
		C139.3,16.5,138.4,15.6,137.2,15.6z M142.4,15.6c-1.2,0-2.2,1-2.2,2.2s1,2.2,2.2,2.2s2.2-1,2.2-2.2
		C144.5,16.5,143.6,15.6,142.4,15.6z M142.4,10.4c-1.2,0-2.2,1-2.2,2.2s1,2.2,2.2,2.2s2.2-1,2.2-2.2
		C144.5,11.3,143.6,10.4,142.4,10.4z M147.6,10.4c-1.2,0-2.2,1-2.2,2.2s1,2.2,2.2,2.2s2.2-1,2.2-2.2
		C149.7,11.3,148.8,10.4,147.6,10.4z M152.8,10.4c-1.2,0-2.2,1-2.2,2.2s1,2.2,2.2,2.2s2.2-1,2.2-2.2
		C154.9,11.3,153.9,10.4,152.8,10.4z M147.6,5.2c-1.2,0-2.2,1-2.2,2.2s1,2.2,2.2,2.2s2.2-1,2.2-2.2S148.8,5.2,147.6,5.2z M152.8,5.2
		c-1.2,0-2.2,1-2.2,2.2s1,2.2,2.2,2.2s2.2-1,2.2-2.2S153.9,5.2,152.8,5.2z M147.6,0c-1.2,0-2.2,1-2.2,2.2s1,2.2,2.2,2.2
		s2.2-1,2.2-2.2C149.7,0.9,148.8,0,147.6,0z M152.8,0c-1.2,0-2.2,1-2.2,2.2s1,2.2,2.2,2.2s2.2-1,2.2-2.2C154.9,0.9,153.9,0,152.8,0z
		 M168.3,93.4c-1.2,0-2.2,1-2.2,2.2s1,2.2,2.2,2.2s2.2-1,2.2-2.2S169.5,93.4,168.3,93.4z M178.7,62.3c-1.2,0-2.2,1-2.2,2.2
		c0,1.2,1,2.2,2.2,2.2s2.2-1,2.2-2.2C180.9,63.2,179.9,62.3,178.7,62.3z M178.7,57.1c-1.2,0-2.2,1-2.2,2.2s1,2.2,2.2,2.2
		s2.2-1,2.2-2.2C180.9,58,179.9,57.1,178.7,57.1z M178.7,51.9c-1.2,0-2.2,1-2.2,2.2s1,2.2,2.2,2.2s2.2-1,2.2-2.2
		S179.9,51.9,178.7,51.9z M173.5,77.8c-1.2,0-2.2,1-2.2,2.2s1,2.2,2.2,2.2s2.2-1,2.2-2.2S174.7,77.8,173.5,77.8z M178.7,72.6
		c-1.2,0-2.2,1-2.2,2.2s1,2.2,2.2,2.2s2.2-1,2.2-2.2S179.9,72.6,178.7,72.6z M178.7,67.5c-1.2,0-2.2,1-2.2,2.2s1,2.2,2.2,2.2
		s2.2-1,2.2-2.2S179.9,67.5,178.7,67.5z M183.9,62.3c-1.2,0-2.2,1-2.2,2.2c0,1.2,1,2.2,2.2,2.2s2.2-1,2.2-2.2
		C186.1,63.2,185.1,62.3,183.9,62.3z M183.9,57.1c-1.2,0-2.2,1-2.2,2.2s1,2.2,2.2,2.2s2.2-1,2.2-2.2C186.1,58,185.1,57.1,183.9,57.1
		z M183.9,51.9c-1.2,0-2.2,1-2.2,2.2s1,2.2,2.2,2.2s2.2-1,2.2-2.2S185.1,51.9,183.9,51.9z M183.9,67.5c-1.2,0-2.2,1-2.2,2.2
		s1,2.2,2.2,2.2s2.2-1,2.2-2.2S185.1,67.5,183.9,67.5z M189.1,57.1c-1.2,0-2.2,1-2.2,2.2s1,2.2,2.2,2.2s2.2-1,2.2-2.2
		C191.2,58,190.3,57.1,189.1,57.1z M189.1,51.9c-1.2,0-2.2,1-2.2,2.2s1,2.2,2.2,2.2s2.2-1,2.2-2.2S190.3,51.9,189.1,51.9z
		 M189.1,62.3c-1.2,0-2.2,1-2.2,2.2c0,1.2,1,2.2,2.2,2.2s2.2-1,2.2-2.2C191.2,63.2,190.3,62.3,189.1,62.3z M194.3,57.1
		c-1.2,0-2.2,1-2.2,2.2s1,2.2,2.2,2.2s2.2-1,2.2-2.2C196.4,58,195.5,57.1,194.3,57.1z M194.3,51.9c-1.2,0-2.2,1-2.2,2.2
		s1,2.2,2.2,2.2s2.2-1,2.2-2.2S195.5,51.9,194.3,51.9z M194.3,72.6c-1.2,0-2.2,1-2.2,2.2s1,2.2,2.2,2.2s2.2-1,2.2-2.2
		C196.4,73.6,195.5,72.6,194.3,72.6z M194.3,67.5c-1.2,0-2.2,1-2.2,2.2s1,2.2,2.2,2.2s2.2-1,2.2-2.2S195.5,67.5,194.3,67.5z
		 M194.3,62.3c-1.2,0-2.2,1-2.2,2.2c0,1.2,1,2.2,2.2,2.2s2.2-1,2.2-2.2C196.4,63.2,195.5,62.3,194.3,62.3z M189.1,77.8
		c-1.2,0-2.2,1-2.2,2.2s1,2.2,2.2,2.2s2.2-1,2.2-2.2S190.3,77.8,189.1,77.8z M189.1,72.6c-1.2,0-2.2,1-2.2,2.2s1,2.2,2.2,2.2
		s2.2-1,2.2-2.2C191.2,73.6,190.3,72.6,189.1,72.6z M189.1,67.5c-1.2,0-2.2,1-2.2,2.2s1,2.2,2.2,2.2s2.2-1,2.2-2.2
		S190.3,67.5,189.1,67.5z M183.9,83c-1.2,0-2.2,1-2.2,2.2s1,2.2,2.2,2.2s2.2-1,2.2-2.2S185.1,83,183.9,83z M183.9,77.8
		c-1.2,0-2.2,1-2.2,2.2s1,2.2,2.2,2.2s2.2-1,2.2-2.2S185.1,77.8,183.9,77.8z M183.9,72.6c-1.2,0-2.2,1-2.2,2.2s1,2.2,2.2,2.2
		s2.2-1,2.2-2.2C186.1,73.6,185.1,72.6,183.9,72.6z M178.7,88.2c-1.2,0-2.2,1-2.2,2.2s1,2.2,2.2,2.2s2.2-1,2.2-2.2
		S179.9,88.2,178.7,88.2z M178.7,83c-1.2,0-2.2,1-2.2,2.2s1,2.2,2.2,2.2s2.2-1,2.2-2.2S179.9,83,178.7,83z M178.7,77.8
		c-1.2,0-2.2,1-2.2,2.2s1,2.2,2.2,2.2s2.2-1,2.2-2.2S179.9,77.8,178.7,77.8z M173.5,93.4c-1.2,0-2.2,1-2.2,2.2s1,2.2,2.2,2.2
		s2.2-1,2.2-2.2S174.7,93.4,173.5,93.4z M173.5,88.2c-1.2,0-2.2,1-2.2,2.2s1,2.2,2.2,2.2s2.2-1,2.2-2.2S174.7,88.2,173.5,88.2z
		 M173.5,83c-1.2,0-2.2,1-2.2,2.2s1,2.2,2.2,2.2s2.2-1,2.2-2.2S174.7,83,173.5,83z M168.3,83c-1.2,0-2.2,1-2.2,2.2s1,2.2,2.2,2.2
		s2.2-1,2.2-2.2S169.5,83,168.3,83z M168.3,88.2c-1.2,0-2.2,1-2.2,2.2s1,2.2,2.2,2.2s2.2-1,2.2-2.2S169.5,88.2,168.3,88.2z
		 M163.1,88.2c-1.2,0-2.2,1-2.2,2.2s1,2.2,2.2,2.2s2.2-1,2.2-2.2S164.3,88.2,163.1,88.2z M157.9,88.2c-1.2,0-2.2,1-2.2,2.2
		s1,2.2,2.2,2.2s2.2-1,2.2-2.2C160.1,89.2,159.1,88.2,157.9,88.2z M163.1,93.4c-1.2,0-2.2,1-2.2,2.2s1,2.2,2.2,2.2s2.2-1,2.2-2.2
		S164.3,93.4,163.1,93.4z M157.9,93.4c-1.2,0-2.2,1-2.2,2.2s1,2.2,2.2,2.2s2.2-1,2.2-2.2S159.1,93.4,157.9,93.4z M163.1,98.6
		c-1.2,0-2.2,1-2.2,2.2s1,2.2,2.2,2.2s2.2-1,2.2-2.2S164.3,98.6,163.1,98.6z M157.9,98.6c-1.2,0-2.2,1-2.2,2.2s1,2.2,2.2,2.2
		s2.2-1,2.2-2.2S159.1,98.6,157.9,98.6z M168.3,5.2c-1.2,0-2.2,1-2.2,2.2s1,2.2,2.2,2.2s2.2-1,2.2-2.2
		C170.5,6.1,169.5,5.2,168.3,5.2z M178.7,36.3c-1.2,0-2.2,1-2.2,2.2s1,2.2,2.2,2.2s2.2-1,2.2-2.2S179.9,36.3,178.7,36.3z
		 M178.7,41.5c-1.2,0-2.2,1-2.2,2.2c0,1.2,1,2.2,2.2,2.2s2.2-1,2.2-2.2C180.9,42.5,179.9,41.5,178.7,41.5z M178.7,46.7
		c-1.2,0-2.2,1-2.2,2.2s1,2.2,2.2,2.2s2.2-1,2.2-2.2S179.9,46.7,178.7,46.7z M173.5,20.7c-1.2,0-2.2,1-2.2,2.2s1,2.2,2.2,2.2
		s2.2-1,2.2-2.2S174.7,20.7,173.5,20.7z M178.7,25.9c-1.2,0-2.2,1-2.2,2.2s1,2.2,2.2,2.2s2.2-1,2.2-2.2S179.9,25.9,178.7,25.9z
		 M178.7,31.1c-1.2,0-2.2,1-2.2,2.2s1,2.2,2.2,2.2s2.2-1,2.2-2.2S179.9,31.1,178.7,31.1z M183.9,36.3c-1.2,0-2.2,1-2.2,2.2
		s1,2.2,2.2,2.2s2.2-1,2.2-2.2S185.1,36.3,183.9,36.3z M183.9,41.5c-1.2,0-2.2,1-2.2,2.2c0,1.2,1,2.2,2.2,2.2s2.2-1,2.2-2.2
		C186.1,42.5,185.1,41.5,183.9,41.5z M183.9,46.7c-1.2,0-2.2,1-2.2,2.2s1,2.2,2.2,2.2s2.2-1,2.2-2.2S185.1,46.7,183.9,46.7z
		 M183.9,31.1c-1.2,0-2.2,1-2.2,2.2s1,2.2,2.2,2.2s2.2-1,2.2-2.2S185.1,31.1,183.9,31.1z M189.1,41.5c-1.2,0-2.2,1-2.2,2.2
		c0,1.2,1,2.2,2.2,2.2s2.2-1,2.2-2.2C191.2,42.5,190.3,41.5,189.1,41.5z M189.1,46.7c-1.2,0-2.2,1-2.2,2.2s1,2.2,2.2,2.2
		s2.2-1,2.2-2.2S190.3,46.7,189.1,46.7z M189.1,36.3c-1.2,0-2.2,1-2.2,2.2s1,2.2,2.2,2.2s2.2-1,2.2-2.2S190.3,36.3,189.1,36.3z
		 M194.3,41.5c-1.2,0-2.2,1-2.2,2.2c0,1.2,1,2.2,2.2,2.2s2.2-1,2.2-2.2C196.4,42.5,195.5,41.5,194.3,41.5z M194.3,46.7
		c-1.2,0-2.2,1-2.2,2.2s1,2.2,2.2,2.2s2.2-1,2.2-2.2S195.5,46.7,194.3,46.7z M194.3,25.9c-1.2,0-2.2,1-2.2,2.2s1,2.2,2.2,2.2
		s2.2-1,2.2-2.2S195.5,25.9,194.3,25.9z M194.3,31.1c-1.2,0-2.2,1-2.2,2.2s1,2.2,2.2,2.2s2.2-1,2.2-2.2S195.5,31.1,194.3,31.1z
		 M194.3,36.3c-1.2,0-2.2,1-2.2,2.2s1,2.2,2.2,2.2s2.2-1,2.2-2.2S195.5,36.3,194.3,36.3z M189.1,20.7c-1.2,0-2.2,1-2.2,2.2
		s1,2.2,2.2,2.2s2.2-1,2.2-2.2C191.2,21.7,190.3,20.7,189.1,20.7z M189.1,25.9c-1.2,0-2.2,1-2.2,2.2s1,2.2,2.2,2.2s2.2-1,2.2-2.2
		S190.3,25.9,189.1,25.9z M189.1,31.1c-1.2,0-2.2,1-2.2,2.2s1,2.2,2.2,2.2s2.2-1,2.2-2.2S190.3,31.1,189.1,31.1z M183.9,15.6
		c-1.2,0-2.2,1-2.2,2.2s1,2.2,2.2,2.2s2.2-1,2.2-2.2C186.1,16.5,185.1,15.6,183.9,15.6z M183.9,20.7c-1.2,0-2.2,1-2.2,2.2
		s1,2.2,2.2,2.2s2.2-1,2.2-2.2C186.1,21.7,185.1,20.7,183.9,20.7z M183.9,25.9c-1.2,0-2.2,1-2.2,2.2s1,2.2,2.2,2.2s2.2-1,2.2-2.2
		S185.1,25.9,183.9,25.9z M178.7,10.4c-1.2,0-2.2,1-2.2,2.2s1,2.2,2.2,2.2s2.2-1,2.2-2.2C180.9,11.3,179.9,10.4,178.7,10.4z
		 M178.7,15.6c-1.2,0-2.2,1-2.2,2.2s1,2.2,2.2,2.2s2.2-1,2.2-2.2C180.9,16.5,179.9,15.6,178.7,15.6z M178.7,20.7
		c-1.2,0-2.2,1-2.2,2.2s1,2.2,2.2,2.2s2.2-1,2.2-2.2S179.9,20.7,178.7,20.7z M173.5,5.2c-1.2,0-2.2,1-2.2,2.2s1,2.2,2.2,2.2
		s2.2-1,2.2-2.2C175.7,6.1,174.7,5.2,173.5,5.2z M173.5,10.4c-1.2,0-2.2,1-2.2,2.2s1,2.2,2.2,2.2s2.2-1,2.2-2.2
		C175.7,11.3,174.7,10.4,173.5,10.4z M173.5,15.6c-1.2,0-2.2,1-2.2,2.2s1,2.2,2.2,2.2s2.2-1,2.2-2.2
		C175.7,16.5,174.7,15.6,173.5,15.6z M168.3,15.6c-1.2,0-2.2,1-2.2,2.2s1,2.2,2.2,2.2s2.2-1,2.2-2.2
		C170.5,16.5,169.5,15.6,168.3,15.6z M168.3,10.4c-1.2,0-2.2,1-2.2,2.2s1,2.2,2.2,2.2s2.2-1,2.2-2.2
		C170.5,11.3,169.5,10.4,168.3,10.4z M163.1,10.4c-1.2,0-2.2,1-2.2,2.2s1,2.2,2.2,2.2s2.2-1,2.2-2.2
		C165.3,11.3,164.3,10.4,163.1,10.4z M157.9,10.4c-1.2,0-2.2,1-2.2,2.2s1,2.2,2.2,2.2s2.2-1,2.2-2.2
		C160.1,11.3,159.1,10.4,157.9,10.4z M163.1,5.2c-1.2,0-2.2,1-2.2,2.2s1,2.2,2.2,2.2s2.2-1,2.2-2.2C165.3,6.1,164.3,5.2,163.1,5.2z
		 M157.9,5.2c-1.2,0-2.2,1-2.2,2.2s1,2.2,2.2,2.2s2.2-1,2.2-2.2C160.1,6.1,159.1,5.2,157.9,5.2z M163.1,0c-1.2,0-2.2,1-2.2,2.2
		s1,2.2,2.2,2.2s2.2-1,2.2-2.2C165.3,0.9,164.3,0,163.1,0z M157.9,0c-1.2,0-2.2,1-2.2,2.2s1,2.2,2.2,2.2s2.2-1,2.2-2.2
		C160.1,0.9,159.1,0,157.9,0z"/>
</g>
</svg>
