<svg xmlns="http://www.w3.org/2000/svg" viewBox="0 0 55.12 78">
    <defs>
        <style>.cls-1{fill-rule:evenodd;}</style>
    </defs>

    <path class="cls-1"
          d="M2.6,65.52a2.6,2.6,0,1,0,2.6,2.6A2.6,2.6,0,0,0,2.6,65.52Zm6.24,0a2.6,2.6,0,1,0,2.6,2.6A2.6,2.6,0,0,0,8.84,65.52Zm6.24,0a2.6,2.6,0,1,0,2.6,2.6A2.6,2.6,0,0,0,15.08,65.52ZM2.6,58.24a2.6,2.6,0,1,0,2.6,2.6A2.6,2.6,0,0,0,2.6,58.24Zm6.24,0a2.6,2.6,0,1,0,2.6,2.6A2.6,2.6,0,0,0,8.84,58.24Zm6.24,0a2.6,2.6,0,1,0,2.6,2.6A2.6,2.6,0,0,0,15.08,58.24ZM2.6,51a2.6,2.6,0,1,0,2.6,2.6A2.6,2.6,0,0,0,2.6,51Zm6.24,0a2.6,2.6,0,1,0,2.6,2.6A2.6,2.6,0,0,0,8.84,51Zm6.24,0a2.6,2.6,0,1,0,2.6,2.6A2.6,2.6,0,0,0,15.08,51ZM8.84,43.68a2.6,2.6,0,1,0,2.6,2.6A2.6,2.6,0,0,0,8.84,43.68Zm6.24,0a2.6,2.6,0,1,0,2.6,2.6A2.6,2.6,0,0,0,15.08,43.68ZM8.84,36.4a2.6,2.6,0,1,0,2.6,2.6A2.6,2.6,0,0,0,8.84,36.4Zm6.24,0a2.6,2.6,0,1,0,2.6,2.6A2.6,2.6,0,0,0,15.08,36.4ZM8.84,29.12a2.6,2.6,0,1,0,2.6,2.6A2.6,2.6,0,0,0,8.84,29.12Zm6.24,0a2.6,2.6,0,1,0,2.6,2.6A2.6,2.6,0,0,0,15.08,29.12ZM8.84,21.84a2.6,2.6,0,1,0,2.6,2.6A2.6,2.6,0,0,0,8.84,21.84Zm6.24,0a2.6,2.6,0,1,0,2.6,2.6A2.6,2.6,0,0,0,15.08,21.84ZM8.84,14.56a2.6,2.6,0,1,0,2.6,2.6A2.6,2.6,0,0,0,8.84,14.56Zm6.24,0a2.6,2.6,0,1,0,2.6,2.6A2.6,2.6,0,0,0,15.08,14.56Zm0-7.28a2.6,2.6,0,1,0,2.6,2.6A2.6,2.6,0,0,0,15.08,7.28ZM52.52,65.52a2.6,2.6,0,1,0,2.6,2.6A2.6,2.6,0,0,0,52.52,65.52Zm-6.24,0a2.6,2.6,0,1,0,2.6,2.6A2.6,2.6,0,0,0,46.28,65.52Zm-6.24,0a2.6,2.6,0,1,0,2.6,2.6A2.6,2.6,0,0,0,40,65.52Zm12.48-7.28a2.6,2.6,0,1,0,2.6,2.6A2.6,2.6,0,0,0,52.52,58.24Zm-6.24,0a2.6,2.6,0,1,0,2.6,2.6A2.6,2.6,0,0,0,46.28,58.24Zm-6.24,0a2.6,2.6,0,1,0,2.6,2.6A2.6,2.6,0,0,0,40,58.24Zm12.48-2.08a2.6,2.6,0,1,0-2.6-2.6A2.6,2.6,0,0,0,52.52,56.16ZM46.28,51a2.6,2.6,0,1,0,2.6,2.6A2.6,2.6,0,0,0,46.28,51ZM40,51a2.6,2.6,0,1,0,2.6,2.6A2.6,2.6,0,0,0,40,51Zm6.24-7.28a2.6,2.6,0,1,0,2.6,2.6A2.6,2.6,0,0,0,46.28,43.68Zm-6.24,0a2.6,2.6,0,1,0,2.6,2.6A2.6,2.6,0,0,0,40,43.68Zm6.24-7.28a2.6,2.6,0,1,0,2.6,2.6A2.6,2.6,0,0,0,46.28,36.4ZM40,36.4a2.6,2.6,0,1,0,2.6,2.6A2.6,2.6,0,0,0,40,36.4Zm6.24-7.28a2.6,2.6,0,1,0,2.6,2.6A2.6,2.6,0,0,0,46.28,29.12Zm-6.24,0a2.6,2.6,0,1,0,2.6,2.6A2.6,2.6,0,0,0,40,29.12Zm6.24-7.28a2.6,2.6,0,1,0,2.6,2.6A2.6,2.6,0,0,0,46.28,21.84Zm-6.24,0a2.6,2.6,0,1,0,2.6,2.6A2.6,2.6,0,0,0,40,21.84Zm6.24-7.28a2.6,2.6,0,1,0,2.6,2.6A2.6,2.6,0,0,0,46.28,14.56Zm-6.24,0a2.6,2.6,0,1,0,2.6,2.6A2.6,2.6,0,0,0,40,14.56Zm0-7.28a2.6,2.6,0,1,0,2.6,2.6A2.6,2.6,0,0,0,40,7.28ZM33.8,72.8a2.6,2.6,0,1,0,2.6,2.6A2.6,2.6,0,0,0,33.8,72.8Zm-6.24,0a2.6,2.6,0,1,0,2.6,2.6A2.6,2.6,0,0,0,27.56,72.8Zm-6.24,0a2.6,2.6,0,1,0,2.6,2.6A2.6,2.6,0,0,0,21.32,72.8ZM33.8,65.52a2.6,2.6,0,1,0,2.6,2.6A2.6,2.6,0,0,0,33.8,65.52Zm-6.24,0a2.6,2.6,0,1,0,2.6,2.6A2.6,2.6,0,0,0,27.56,65.52Zm-6.24,0a2.6,2.6,0,1,0,2.6,2.6A2.6,2.6,0,0,0,21.32,65.52ZM33.8,58.24a2.6,2.6,0,1,0,2.6,2.6A2.6,2.6,0,0,0,33.8,58.24Zm-6.24,0a2.6,2.6,0,1,0,2.6,2.6A2.6,2.6,0,0,0,27.56,58.24Zm-6.24,0a2.6,2.6,0,1,0,2.6,2.6A2.6,2.6,0,0,0,21.32,58.24ZM33.8,51a2.6,2.6,0,1,0,2.6,2.6A2.6,2.6,0,0,0,33.8,51Zm-6.24,0a2.6,2.6,0,1,0,2.6,2.6A2.6,2.6,0,0,0,27.56,51Zm-6.24,0a2.6,2.6,0,1,0,2.6,2.6A2.6,2.6,0,0,0,21.32,51ZM33.8,43.68a2.6,2.6,0,1,0,2.6,2.6A2.6,2.6,0,0,0,33.8,43.68Zm-6.24,0a2.6,2.6,0,1,0,2.6,2.6A2.6,2.6,0,0,0,27.56,43.68Zm-6.24,0a2.6,2.6,0,1,0,2.6,2.6A2.6,2.6,0,0,0,21.32,43.68ZM33.8,36.4A2.6,2.6,0,1,0,36.4,39,2.6,2.6,0,0,0,33.8,36.4Zm-6.24,0a2.6,2.6,0,1,0,2.6,2.6A2.6,2.6,0,0,0,27.56,36.4Zm-6.24,0a2.6,2.6,0,1,0,2.6,2.6A2.6,2.6,0,0,0,21.32,36.4ZM33.8,29.12a2.6,2.6,0,1,0,2.6,2.6A2.6,2.6,0,0,0,33.8,29.12Zm-6.24,0a2.6,2.6,0,1,0,2.6,2.6A2.6,2.6,0,0,0,27.56,29.12Zm-6.24,0a2.6,2.6,0,1,0,2.6,2.6A2.6,2.6,0,0,0,21.32,29.12ZM33.8,21.84a2.6,2.6,0,1,0,2.6,2.6A2.6,2.6,0,0,0,33.8,21.84Zm-6.24,0a2.6,2.6,0,1,0,2.6,2.6A2.6,2.6,0,0,0,27.56,21.84Zm-6.24,0a2.6,2.6,0,1,0,2.6,2.6A2.6,2.6,0,0,0,21.32,21.84ZM33.8,14.56a2.6,2.6,0,1,0,2.6,2.6A2.6,2.6,0,0,0,33.8,14.56Zm-6.24,0a2.6,2.6,0,1,0,2.6,2.6A2.6,2.6,0,0,0,27.56,14.56Zm-6.24,0a2.6,2.6,0,1,0,2.6,2.6A2.6,2.6,0,0,0,21.32,14.56ZM33.8,7.28a2.6,2.6,0,1,0,2.6,2.6A2.6,2.6,0,0,0,33.8,7.28Zm-6.24,0a2.6,2.6,0,1,0,2.6,2.6A2.6,2.6,0,0,0,27.56,7.28Zm-6.24,0a2.6,2.6,0,1,0,2.6,2.6A2.6,2.6,0,0,0,21.32,7.28ZM33.8,0a2.6,2.6,0,1,0,2.6,2.6A2.6,2.6,0,0,0,33.8,0ZM27.56,0a2.6,2.6,0,1,0,2.6,2.6A2.6,2.6,0,0,0,27.56,0ZM21.32,0a2.6,2.6,0,1,0,2.6,2.6A2.6,2.6,0,0,0,21.32,0Z"/>

</svg>