<svg xmlns="http://www.w3.org/2000/svg" viewBox="0 0 90.09 83">
    <defs>
        <style>.cls-1{fill-rule:evenodd;}</style>
    </defs>
    <title>icon_2</title>

    <path class="cls-1"
          d="M81.48,56.68A2.53,2.53,0,1,0,84,59.21,2.53,2.53,0,0,0,81.48,56.68Zm-6.07,0a2.53,2.53,0,1,0,2.53,2.53A2.53,2.53,0,0,0,75.41,56.68ZM87.56,49.6a2.53,2.53,0,1,0,2.53,2.53A2.53,2.53,0,0,0,87.56,49.6Zm-6.07,0A2.53,2.53,0,1,0,84,52.13,2.53,2.53,0,0,0,81.48,49.6Zm-6.07,0a2.53,2.53,0,1,0,2.53,2.53A2.53,2.53,0,0,0,75.41,49.6Zm12.15-7.09A2.53,2.53,0,1,0,90.09,45,2.53,2.53,0,0,0,87.56,42.51Zm-6.07,0A2.53,2.53,0,1,0,84,45,2.53,2.53,0,0,0,81.48,42.51Zm-6.07,0A2.53,2.53,0,1,0,77.94,45,2.53,2.53,0,0,0,75.41,42.51Zm12.15-7.09A2.53,2.53,0,1,0,90.09,38,2.53,2.53,0,0,0,87.56,35.43Zm-6.07,0A2.53,2.53,0,1,0,84,38,2.53,2.53,0,0,0,81.48,35.43Zm-6.07,0A2.53,2.53,0,1,0,77.94,38,2.53,2.53,0,0,0,75.41,35.43Zm12.15-7.09a2.53,2.53,0,1,0,2.53,2.53A2.53,2.53,0,0,0,87.56,28.34Zm-6.07,0A2.53,2.53,0,1,0,84,30.87,2.53,2.53,0,0,0,81.48,28.34Zm6.07-7.09a2.53,2.53,0,1,0,2.53,2.53A2.53,2.53,0,0,0,87.56,21.26Zm-6.07,0A2.53,2.53,0,1,0,84,23.79,2.53,2.53,0,0,0,81.48,21.26Zm-6.07,0a2.53,2.53,0,1,0,2.53,2.53A2.53,2.53,0,0,0,75.41,21.26Zm12.15-7.09a2.53,2.53,0,1,0,2.53,2.53A2.53,2.53,0,0,0,87.56,14.17Zm-6.07,0A2.53,2.53,0,1,0,84,16.7,2.53,2.53,0,0,0,81.48,14.17Zm-6.07,0a2.53,2.53,0,1,0,2.53,2.53A2.53,2.53,0,0,0,75.41,14.17Zm12.15-2A2.53,2.53,0,1,0,85,9.62,2.53,2.53,0,0,0,87.56,12.15ZM81.48,7.09A2.53,2.53,0,1,0,84,9.62,2.53,2.53,0,0,0,81.48,7.09Zm-6.07,0a2.53,2.53,0,1,0,2.53,2.53A2.53,2.53,0,0,0,75.41,7.09ZM81.48,0A2.53,2.53,0,1,0,84,2.53,2.53,2.53,0,0,0,81.48,0ZM75.41,0a2.53,2.53,0,1,0,2.53,2.53A2.53,2.53,0,0,0,75.41,0ZM69.34,56.68a2.53,2.53,0,1,0,2.53,2.53A2.53,2.53,0,0,0,69.34,56.68Zm-6.07,0a2.53,2.53,0,1,0,2.53,2.53A2.53,2.53,0,0,0,63.26,56.68Zm-6.07,0a2.53,2.53,0,1,0,2.53,2.53A2.53,2.53,0,0,0,57.19,56.68ZM69.34,49.6a2.53,2.53,0,1,0,2.53,2.53A2.53,2.53,0,0,0,69.34,49.6Zm-6.07,0a2.53,2.53,0,1,0,2.53,2.53A2.53,2.53,0,0,0,63.26,49.6Zm-6.07,0a2.53,2.53,0,1,0,2.53,2.53A2.53,2.53,0,0,0,57.19,49.6Zm12.15-7.09A2.53,2.53,0,1,0,71.87,45,2.53,2.53,0,0,0,69.34,42.51Zm-6.07,0A2.53,2.53,0,1,0,65.79,45,2.53,2.53,0,0,0,63.26,42.51Zm-6.07,0A2.53,2.53,0,1,0,59.72,45,2.53,2.53,0,0,0,57.19,42.51Zm6.07-7.09A2.53,2.53,0,1,0,65.79,38,2.53,2.53,0,0,0,63.26,35.43Zm-6.07,0A2.53,2.53,0,1,0,59.72,38,2.53,2.53,0,0,0,57.19,35.43Zm0-7.09a2.53,2.53,0,1,0,2.53,2.53A2.53,2.53,0,0,0,57.19,28.34Zm6.07-7.09a2.53,2.53,0,1,0,2.53,2.53A2.53,2.53,0,0,0,63.26,21.26Zm-6.07,0a2.53,2.53,0,1,0,2.53,2.53A2.53,2.53,0,0,0,57.19,21.26Zm12.15-7.09a2.53,2.53,0,1,0,2.53,2.53A2.53,2.53,0,0,0,69.34,14.17Zm-6.07,0a2.53,2.53,0,1,0,2.53,2.53A2.53,2.53,0,0,0,63.26,14.17Zm-6.07,0a2.53,2.53,0,1,0,2.53,2.53A2.53,2.53,0,0,0,57.19,14.17ZM69.34,7.09a2.53,2.53,0,1,0,2.53,2.53A2.53,2.53,0,0,0,69.34,7.09Zm-6.07,0a2.53,2.53,0,1,0,2.53,2.53A2.53,2.53,0,0,0,63.26,7.09Zm-6.07,0a2.53,2.53,0,1,0,2.53,2.53A2.53,2.53,0,0,0,57.19,7.09ZM69.34,0a2.53,2.53,0,1,0,2.53,2.53A2.53,2.53,0,0,0,69.34,0ZM63.26,0a2.53,2.53,0,1,0,2.53,2.53A2.53,2.53,0,0,0,63.26,0ZM57.19,0a2.53,2.53,0,1,0,2.53,2.53A2.53,2.53,0,0,0,57.19,0ZM51.12,56.68a2.53,2.53,0,1,0,2.53,2.53A2.53,2.53,0,0,0,51.12,56.68Zm-6.07,0a2.53,2.53,0,1,0,2.53,2.53A2.53,2.53,0,0,0,45,56.68Zm-6.07,0a2.53,2.53,0,1,0,2.53,2.53A2.53,2.53,0,0,0,39,56.68ZM51.12,49.6a2.53,2.53,0,1,0,2.53,2.53A2.53,2.53,0,0,0,51.12,49.6ZM45,49.6a2.53,2.53,0,1,0,2.53,2.53A2.53,2.53,0,0,0,45,49.6ZM39,49.6a2.53,2.53,0,1,0,2.53,2.53A2.53,2.53,0,0,0,39,49.6Zm12.15-7.09A2.53,2.53,0,1,0,53.65,45,2.53,2.53,0,0,0,51.12,42.51Zm-6.07,0A2.53,2.53,0,1,0,47.57,45,2.53,2.53,0,0,0,45,42.51Zm-6.07,0A2.53,2.53,0,1,0,41.5,45,2.53,2.53,0,0,0,39,42.51Zm12.15-7.09A2.53,2.53,0,1,0,53.65,38,2.53,2.53,0,0,0,51.12,35.43ZM39,35.43A2.53,2.53,0,1,0,41.5,38,2.53,2.53,0,0,0,39,35.43ZM51.12,21.26a2.53,2.53,0,1,0,2.53,2.53A2.53,2.53,0,0,0,51.12,21.26ZM39,21.26a2.53,2.53,0,1,0,2.53,2.53A2.53,2.53,0,0,0,39,21.26Zm12.15-7.09a2.53,2.53,0,1,0,2.53,2.53A2.53,2.53,0,0,0,51.12,14.17Zm-6.07,0a2.53,2.53,0,1,0,2.53,2.53A2.53,2.53,0,0,0,45,14.17Zm-6.07,0A2.53,2.53,0,1,0,41.5,16.7,2.53,2.53,0,0,0,39,14.17ZM51.12,7.09a2.53,2.53,0,1,0,2.53,2.53A2.53,2.53,0,0,0,51.12,7.09ZM45,7.09a2.53,2.53,0,1,0,2.53,2.53A2.53,2.53,0,0,0,45,7.09ZM39,7.09A2.53,2.53,0,1,0,41.5,9.62,2.53,2.53,0,0,0,39,7.09ZM51.12,0a2.53,2.53,0,1,0,2.53,2.53A2.53,2.53,0,0,0,51.12,0ZM45,0a2.53,2.53,0,1,0,2.53,2.53A2.53,2.53,0,0,0,45,0ZM39,0A2.53,2.53,0,1,0,41.5,2.53,2.53,2.53,0,0,0,39,0ZM32.9,56.68a2.53,2.53,0,1,0,2.53,2.53A2.53,2.53,0,0,0,32.9,56.68Zm-6.07,7.09a2.53,2.53,0,1,0,2.53,2.53A2.53,2.53,0,0,0,26.82,63.77Zm0-7.09a2.53,2.53,0,1,0,2.53,2.53A2.53,2.53,0,0,0,26.82,56.68ZM20.75,70.85a2.53,2.53,0,1,0,2.53,2.53A2.53,2.53,0,0,0,20.75,70.85Zm0-7.09a2.53,2.53,0,1,0,2.53,2.53A2.53,2.53,0,0,0,20.75,63.77Zm0-7.09a2.53,2.53,0,1,0,2.53,2.53A2.53,2.53,0,0,0,20.75,56.68ZM32.9,49.6a2.53,2.53,0,1,0,2.53,2.53A2.53,2.53,0,0,0,32.9,49.6Zm-6.07,0a2.53,2.53,0,1,0,2.53,2.53A2.53,2.53,0,0,0,26.82,49.6Zm-6.07,0a2.53,2.53,0,1,0,2.53,2.53A2.53,2.53,0,0,0,20.75,49.6ZM32.9,42.51A2.53,2.53,0,1,0,35.43,45,2.53,2.53,0,0,0,32.9,42.51Zm-6.07,0A2.53,2.53,0,1,0,29.35,45,2.53,2.53,0,0,0,26.82,42.51Zm-6.07,0A2.53,2.53,0,1,0,23.28,45,2.53,2.53,0,0,0,20.75,42.51ZM32.9,35.43A2.53,2.53,0,1,0,35.43,38,2.53,2.53,0,0,0,32.9,35.43Zm-6.07,0A2.53,2.53,0,1,0,29.35,38,2.53,2.53,0,0,0,26.82,35.43Zm6.07-7.09a2.53,2.53,0,1,0,2.53,2.53A2.53,2.53,0,0,0,32.9,28.34Zm0-7.09a2.53,2.53,0,1,0,2.53,2.53A2.53,2.53,0,0,0,32.9,21.26Zm-6.07,0a2.53,2.53,0,1,0,2.53,2.53A2.53,2.53,0,0,0,26.82,21.26Zm6.07-7.09a2.53,2.53,0,1,0,2.53,2.53A2.53,2.53,0,0,0,32.9,14.17Zm-6.07,0a2.53,2.53,0,1,0,2.53,2.53A2.53,2.53,0,0,0,26.82,14.17Zm-6.07,0a2.53,2.53,0,1,0,2.53,2.53A2.53,2.53,0,0,0,20.75,14.17ZM32.9,7.09a2.53,2.53,0,1,0,2.53,2.53A2.53,2.53,0,0,0,32.9,7.09Zm-6.07,0a2.53,2.53,0,1,0,2.53,2.53A2.53,2.53,0,0,0,26.82,7.09Zm-6.07,0a2.53,2.53,0,1,0,2.53,2.53A2.53,2.53,0,0,0,20.75,7.09ZM32.9,0a2.53,2.53,0,1,0,2.53,2.53A2.53,2.53,0,0,0,32.9,0ZM26.82,0a2.53,2.53,0,1,0,2.53,2.53A2.53,2.53,0,0,0,26.82,0ZM20.75,0a2.53,2.53,0,1,0,2.53,2.53A2.53,2.53,0,0,0,20.75,0ZM14.68,77.94a2.53,2.53,0,1,0,2.53,2.53A2.53,2.53,0,0,0,14.68,77.94Zm0-7.09a2.53,2.53,0,1,0,2.53,2.53A2.53,2.53,0,0,0,14.68,70.85Zm0-7.09a2.53,2.53,0,1,0,2.53,2.53A2.53,2.53,0,0,0,14.68,63.77Zm0-7.09a2.53,2.53,0,1,0,2.53,2.53A2.53,2.53,0,0,0,14.68,56.68Zm-6.07,0a2.53,2.53,0,1,0,2.53,2.53A2.53,2.53,0,0,0,8.6,56.68Zm6.07-7.09a2.53,2.53,0,1,0,2.53,2.53A2.53,2.53,0,0,0,14.68,49.6Zm-6.07,0a2.53,2.53,0,1,0,2.53,2.53A2.53,2.53,0,0,0,8.6,49.6Zm-6.07,0a2.53,2.53,0,1,0,2.53,2.53A2.53,2.53,0,0,0,2.53,49.6Zm12.15-7.09A2.53,2.53,0,1,0,17.21,45,2.53,2.53,0,0,0,14.68,42.51Zm-6.07,0A2.53,2.53,0,1,0,11.13,45,2.53,2.53,0,0,0,8.6,42.51Zm-6.07,0A2.53,2.53,0,1,0,5.06,45,2.53,2.53,0,0,0,2.53,42.51Zm12.15-7.09A2.53,2.53,0,1,0,17.21,38,2.53,2.53,0,0,0,14.68,35.43Zm-6.07,0A2.53,2.53,0,1,0,11.13,38,2.53,2.53,0,0,0,8.6,35.43Zm-6.07,0A2.53,2.53,0,1,0,5.06,38,2.53,2.53,0,0,0,2.53,35.43ZM8.6,28.34a2.53,2.53,0,1,0,2.53,2.53A2.53,2.53,0,0,0,8.6,28.34Zm-6.07,0a2.53,2.53,0,1,0,2.53,2.53A2.53,2.53,0,0,0,2.53,28.34Zm12.15-7.09a2.53,2.53,0,1,0,2.53,2.53A2.53,2.53,0,0,0,14.68,21.26Zm-6.07,0a2.53,2.53,0,1,0,2.53,2.53A2.53,2.53,0,0,0,8.6,21.26Zm-6.07,0a2.53,2.53,0,1,0,2.53,2.53A2.53,2.53,0,0,0,2.53,21.26Zm12.15-7.09a2.53,2.53,0,1,0,2.53,2.53A2.53,2.53,0,0,0,14.68,14.17Zm-6.07,0a2.53,2.53,0,1,0,2.53,2.53A2.53,2.53,0,0,0,8.6,14.17Zm-6.07,0A2.53,2.53,0,1,0,5.06,16.7,2.53,2.53,0,0,0,2.53,14.17ZM14.68,7.09a2.53,2.53,0,1,0,2.53,2.53A2.53,2.53,0,0,0,14.68,7.09Zm-6.07,0a2.53,2.53,0,1,0,2.53,2.53A2.53,2.53,0,0,0,8.6,7.09Zm-6.07,0A2.53,2.53,0,1,0,5.06,9.62,2.53,2.53,0,0,0,2.53,7.09ZM14.68,0a2.53,2.53,0,1,0,2.53,2.53A2.53,2.53,0,0,0,14.68,0ZM8.6,0a2.53,2.53,0,1,0,2.53,2.53A2.53,2.53,0,0,0,8.6,0Z"/>
</svg>