<svg xmlns="http://www.w3.org/2000/svg" viewBox="0 0 89 61">
    <defs>
        <style>.cls-1{fill-rule:evenodd;}</style>
    </defs>
    <path class="cls-1"
          d="M80.5,56A2.5,2.5,0,1,0,83,58.5,2.5,2.5,0,0,0,80.5,56Zm-6,0A2.5,2.5,0,1,0,77,58.5,2.5,2.5,0,0,0,74.5,56Zm12-7A2.5,2.5,0,1,0,89,51.5,2.5,2.5,0,0,0,86.5,49Zm-6,0A2.5,2.5,0,1,0,83,51.5,2.5,2.5,0,0,0,80.5,49Zm-6,0A2.5,2.5,0,1,0,77,51.5,2.5,2.5,0,0,0,74.5,49Zm12-7A2.5,2.5,0,1,0,89,44.5,2.5,2.5,0,0,0,86.5,42Zm-6,0A2.5,2.5,0,1,0,83,44.5,2.5,2.5,0,0,0,80.5,42Zm-6,0A2.5,2.5,0,1,0,77,44.5,2.5,2.5,0,0,0,74.5,42Zm12-7A2.5,2.5,0,1,0,89,37.5,2.5,2.5,0,0,0,86.5,35Zm-6,0A2.5,2.5,0,1,0,83,37.5,2.5,2.5,0,0,0,80.5,35Zm-6,0A2.5,2.5,0,1,0,77,37.5,2.5,2.5,0,0,0,74.5,35Zm12-7A2.5,2.5,0,1,0,89,30.5,2.5,2.5,0,0,0,86.5,28Zm-24,0A2.5,2.5,0,1,0,65,30.5,2.5,2.5,0,0,0,62.5,28Zm6,0A2.5,2.5,0,1,0,71,30.5,2.5,2.5,0,0,0,68.5,28Zm6,0A2.5,2.5,0,1,0,77,30.5,2.5,2.5,0,0,0,74.5,28Zm6,0A2.5,2.5,0,1,0,83,30.5,2.5,2.5,0,0,0,80.5,28Zm6-7A2.5,2.5,0,1,0,89,23.5,2.5,2.5,0,0,0,86.5,21Zm-6,0A2.5,2.5,0,1,0,83,23.5,2.5,2.5,0,0,0,80.5,21Zm-12,0A2.5,2.5,0,1,0,71,23.5,2.5,2.5,0,0,0,68.5,21Zm6,0A2.5,2.5,0,1,0,77,23.5,2.5,2.5,0,0,0,74.5,21Zm12-7A2.5,2.5,0,1,0,89,16.5,2.5,2.5,0,0,0,86.5,14Zm-6,0A2.5,2.5,0,1,0,83,16.5,2.5,2.5,0,0,0,80.5,14Zm-6,0A2.5,2.5,0,1,0,77,16.5,2.5,2.5,0,0,0,74.5,14Zm12-2A2.5,2.5,0,1,0,84,9.5,2.5,2.5,0,0,0,86.5,12Zm-6-5A2.5,2.5,0,1,0,83,9.5,2.5,2.5,0,0,0,80.5,7Zm-6-7A2.5,2.5,0,1,0,77,2.5,2.5,2.5,0,0,0,74.5,0Zm-6,56A2.5,2.5,0,1,0,71,58.5,2.5,2.5,0,0,0,68.5,56Zm-6,0A2.5,2.5,0,1,0,65,58.5,2.5,2.5,0,0,0,62.5,56Zm-6,0A2.5,2.5,0,1,0,59,58.5,2.5,2.5,0,0,0,56.5,56Zm12-7A2.5,2.5,0,1,0,71,51.5,2.5,2.5,0,0,0,68.5,49Zm-6,0A2.5,2.5,0,1,0,65,51.5,2.5,2.5,0,0,0,62.5,49Zm-6,0A2.5,2.5,0,1,0,59,51.5,2.5,2.5,0,0,0,56.5,49Zm12-14A2.5,2.5,0,1,0,71,37.5,2.5,2.5,0,0,0,68.5,35Zm0,7A2.5,2.5,0,1,0,71,44.5,2.5,2.5,0,0,0,68.5,42Zm-6,0A2.5,2.5,0,1,0,65,44.5,2.5,2.5,0,0,0,62.5,42Zm-6,0A2.5,2.5,0,1,0,59,44.5,2.5,2.5,0,0,0,56.5,42Zm6-7A2.5,2.5,0,1,0,65,37.5,2.5,2.5,0,0,0,62.5,35Zm-6,0A2.5,2.5,0,1,0,59,37.5,2.5,2.5,0,0,0,56.5,35Zm0-14A2.5,2.5,0,1,0,59,23.5,2.5,2.5,0,0,0,56.5,21Zm6-7A2.5,2.5,0,1,0,65,16.5,2.5,2.5,0,0,0,62.5,14Zm-6,0A2.5,2.5,0,1,0,59,16.5,2.5,2.5,0,0,0,56.5,14Zm12-7A2.5,2.5,0,1,0,71,9.5,2.5,2.5,0,0,0,68.5,7Zm-6,0A2.5,2.5,0,1,0,65,9.5,2.5,2.5,0,0,0,62.5,7Zm-6,0A2.5,2.5,0,1,0,59,9.5,2.5,2.5,0,0,0,56.5,7Zm12-7A2.5,2.5,0,1,0,71,2.5,2.5,2.5,0,0,0,68.5,0Zm-6,0A2.5,2.5,0,1,0,65,2.5,2.5,2.5,0,0,0,62.5,0Zm-6,0A2.5,2.5,0,1,0,59,2.5,2.5,2.5,0,0,0,56.5,0Zm-6,56A2.5,2.5,0,1,0,53,58.5,2.5,2.5,0,0,0,50.5,56Zm-6,0A2.5,2.5,0,1,0,47,58.5,2.5,2.5,0,0,0,44.5,56Zm-6,0A2.5,2.5,0,1,0,41,58.5,2.5,2.5,0,0,0,38.5,56Zm12-7A2.5,2.5,0,1,0,53,51.5,2.5,2.5,0,0,0,50.5,49Zm-6,0A2.5,2.5,0,1,0,47,51.5,2.5,2.5,0,0,0,44.5,49Zm-6,0A2.5,2.5,0,1,0,41,51.5,2.5,2.5,0,0,0,38.5,49Zm12-7A2.5,2.5,0,1,0,53,44.5,2.5,2.5,0,0,0,50.5,42Zm-12,0A2.5,2.5,0,1,0,41,44.5,2.5,2.5,0,0,0,38.5,42Zm12-14A2.5,2.5,0,1,0,53,30.5,2.5,2.5,0,0,0,50.5,28Zm0-7A2.5,2.5,0,1,0,53,23.5,2.5,2.5,0,0,0,50.5,21Zm-12,7A2.5,2.5,0,1,0,41,30.5,2.5,2.5,0,0,0,38.5,28Zm0-7A2.5,2.5,0,1,0,41,23.5,2.5,2.5,0,0,0,38.5,21Zm12-7A2.5,2.5,0,1,0,53,16.5,2.5,2.5,0,0,0,50.5,14Zm-6,14A2.5,2.5,0,1,0,47,30.5,2.5,2.5,0,0,0,44.5,28Zm0-7A2.5,2.5,0,1,0,47,23.5,2.5,2.5,0,0,0,44.5,21Zm0-7A2.5,2.5,0,1,0,47,16.5,2.5,2.5,0,0,0,44.5,14Zm-6,0A2.5,2.5,0,1,0,41,16.5,2.5,2.5,0,0,0,38.5,14Zm12-7A2.5,2.5,0,1,0,53,9.5,2.5,2.5,0,0,0,50.5,7Zm-6,0A2.5,2.5,0,1,0,47,9.5,2.5,2.5,0,0,0,44.5,7Zm-6,0A2.5,2.5,0,1,0,41,9.5,2.5,2.5,0,0,0,38.5,7Zm12-7A2.5,2.5,0,1,0,53,2.5,2.5,2.5,0,0,0,50.5,0Zm-6,0A2.5,2.5,0,1,0,47,2.5,2.5,2.5,0,0,0,44.5,0Zm-6,0A2.5,2.5,0,1,0,41,2.5,2.5,2.5,0,0,0,38.5,0Zm-6,56A2.5,2.5,0,1,0,35,58.5,2.5,2.5,0,0,0,32.5,56Zm-6,0A2.5,2.5,0,1,0,29,58.5,2.5,2.5,0,0,0,26.5,56Zm-6,0A2.5,2.5,0,1,0,23,58.5,2.5,2.5,0,0,0,20.5,56Zm12-7A2.5,2.5,0,1,0,35,51.5,2.5,2.5,0,0,0,32.5,49Zm-6,0A2.5,2.5,0,1,0,29,51.5,2.5,2.5,0,0,0,26.5,49Zm-6,0A2.5,2.5,0,1,0,23,51.5,2.5,2.5,0,0,0,20.5,49Zm12-7A2.5,2.5,0,1,0,35,44.5,2.5,2.5,0,0,0,32.5,42Zm-6,0A2.5,2.5,0,1,0,29,44.5,2.5,2.5,0,0,0,26.5,42Zm-6-7A2.5,2.5,0,1,0,23,37.5,2.5,2.5,0,0,0,20.5,35Zm0,7A2.5,2.5,0,1,0,23,44.5,2.5,2.5,0,0,0,20.5,42Zm12-7A2.5,2.5,0,1,0,35,37.5,2.5,2.5,0,0,0,32.5,35Zm-6,0A2.5,2.5,0,1,0,29,37.5,2.5,2.5,0,0,0,26.5,35Zm6-14A2.5,2.5,0,1,0,35,23.5,2.5,2.5,0,0,0,32.5,21Zm0-7A2.5,2.5,0,1,0,35,16.5,2.5,2.5,0,0,0,32.5,14Zm-6,0A2.5,2.5,0,1,0,29,16.5,2.5,2.5,0,0,0,26.5,14Zm6-7A2.5,2.5,0,1,0,35,9.5,2.5,2.5,0,0,0,32.5,7Zm-6,0A2.5,2.5,0,1,0,29,9.5,2.5,2.5,0,0,0,26.5,7Zm-6,0A2.5,2.5,0,1,0,23,9.5,2.5,2.5,0,0,0,20.5,7Zm12-7A2.5,2.5,0,1,0,35,2.5,2.5,2.5,0,0,0,32.5,0Zm-6,0A2.5,2.5,0,1,0,29,2.5,2.5,2.5,0,0,0,26.5,0Zm-6,0A2.5,2.5,0,1,0,23,2.5,2.5,2.5,0,0,0,20.5,0Zm-6,56A2.5,2.5,0,1,0,17,58.5,2.5,2.5,0,0,0,14.5,56Zm-6,0A2.5,2.5,0,1,0,11,58.5,2.5,2.5,0,0,0,8.5,56Zm6-7A2.5,2.5,0,1,0,17,51.5,2.5,2.5,0,0,0,14.5,49Zm-6,0A2.5,2.5,0,1,0,11,51.5,2.5,2.5,0,0,0,8.5,49Zm-6,0A2.5,2.5,0,1,0,5,51.5,2.5,2.5,0,0,0,2.5,49Zm12-7A2.5,2.5,0,1,0,17,44.5,2.5,2.5,0,0,0,14.5,42Zm-6,0A2.5,2.5,0,1,0,11,44.5,2.5,2.5,0,0,0,8.5,42Zm-6,0A2.5,2.5,0,1,0,5,44.5,2.5,2.5,0,0,0,2.5,42Zm12-7A2.5,2.5,0,1,0,17,37.5,2.5,2.5,0,0,0,14.5,35Zm-6,0A2.5,2.5,0,1,0,11,37.5,2.5,2.5,0,0,0,8.5,35Zm-6,0A2.5,2.5,0,1,0,5,37.5,2.5,2.5,0,0,0,2.5,35Zm24-7A2.5,2.5,0,1,0,29,30.5,2.5,2.5,0,0,0,26.5,28Zm-6,0A2.5,2.5,0,1,0,23,30.5,2.5,2.5,0,0,0,20.5,28Zm-6,0A2.5,2.5,0,1,0,17,30.5,2.5,2.5,0,0,0,14.5,28Zm-6,0A2.5,2.5,0,1,0,11,30.5,2.5,2.5,0,0,0,8.5,28Zm-6,0A2.5,2.5,0,1,0,5,30.5,2.5,2.5,0,0,0,2.5,28Zm18-7A2.5,2.5,0,1,0,23,23.5,2.5,2.5,0,0,0,20.5,21Zm-6,0A2.5,2.5,0,1,0,17,23.5,2.5,2.5,0,0,0,14.5,21Zm-6,0A2.5,2.5,0,1,0,11,23.5,2.5,2.5,0,0,0,8.5,21Zm-6,0A2.5,2.5,0,1,0,5,23.5,2.5,2.5,0,0,0,2.5,21Zm12-7A2.5,2.5,0,1,0,17,16.5,2.5,2.5,0,0,0,14.5,14Zm-6,0A2.5,2.5,0,1,0,11,16.5,2.5,2.5,0,0,0,8.5,14Zm-6,0A2.5,2.5,0,1,0,5,16.5,2.5,2.5,0,0,0,2.5,14Zm6-7A2.5,2.5,0,1,0,11,9.5,2.5,2.5,0,0,0,8.5,7Zm-6,0A2.5,2.5,0,1,0,5,9.5,2.5,2.5,0,0,0,2.5,7Zm12-7A2.5,2.5,0,1,0,17,2.5,2.5,2.5,0,0,0,14.5,0Z"/>

</svg>